<svg width="50" height="50" viewBox="0 0 50 50" fill="none" xmlns="http://www.w3.org/2000/svg">
<path d="M25.0977 0C11.3662 0 0 11.1709 0 24.9023C0 38.6338 11.3662 50 25.0977 50C38.8291 50 50 38.6338 50 24.9023C50 11.1709 38.8291 0 25.0977 0ZM37.4238 33.085C38.5664 34.2275 38.5664 36.0859 37.4238 37.2295C36.29 38.3623 34.4316 38.3809 33.2793 37.2295L25.0977 29.0449L16.7197 37.2305C15.5771 38.373 13.7188 38.373 12.5752 37.2305C11.4326 36.0879 11.4326 34.2295 12.5752 33.0859L20.7588 24.9023L12.5752 16.7188C11.4326 15.5752 11.4326 13.7168 12.5752 12.5742C13.7188 11.4316 15.5771 11.4316 16.7197 12.5742L25.0977 20.7598L33.2793 12.5742C34.4199 11.4336 36.2783 11.4297 37.4238 12.5742C38.5664 13.7168 38.5664 15.5752 37.4238 16.7188L29.2402 24.9023L37.4238 33.085Z" fill="#3C64B1" fill-opacity="0.2"/>
</svg>
