<svg width="24" height="18" viewBox="0 0 24 18" fill="none" xmlns="http://www.w3.org/2000/svg">
<path d="M0.50114 1.46044C3.79505 4.25002 9.57483 9.15773 11.2736 10.688C11.5016 10.8945 11.7462 10.9995 12.0001 10.9995C12.2535 10.9995 12.4977 10.8955 12.7253 10.6899C14.4255 9.1582 20.2052 4.25002 23.4992 1.46044C23.7043 1.28709 23.7355 0.982406 23.5695 0.770484C23.1857 0.280781 22.6134 0 22.0001 0H2.00016C1.38689 0 0.814593 0.280781 0.430828 0.770531C0.264796 0.982406 0.296062 1.28709 0.50114 1.46044Z" fill="black"/>
<path d="M23.7095 2.97191C23.5323 2.88941 23.3238 2.91819 23.1763 3.04419C21.0191 4.87278 18.1768 7.28881 16.0333 9.13255C15.9205 9.22925 15.857 9.37133 15.8594 9.52025C15.8619 9.6687 15.9307 9.80882 16.0469 9.90158C18.0387 11.4968 21.0401 13.6911 23.2076 15.2507C23.294 15.3132 23.3965 15.3449 23.4996 15.3449C23.5777 15.3449 23.6558 15.3269 23.7276 15.2898C23.8946 15.2043 23.9996 15.0324 23.9996 14.8449V3.42552C23.9995 3.2307 23.8862 3.05347 23.7095 2.97191Z" fill="black"/>
<path d="M0.792 15.2508C2.95997 13.6912 5.96194 11.4969 7.95314 9.90164C8.06934 9.80887 8.1382 9.66871 8.14064 9.52031C8.14308 9.37139 8.07961 9.22931 7.96683 9.13261C5.82323 7.28887 2.98045 4.87284 0.823266 3.04425C0.674812 2.91825 0.465844 2.89045 0.290063 2.97196C0.113297 3.05353 0 3.23076 0 3.42557V14.845C0 15.0325 0.105 15.2044 0.271969 15.2899C0.343734 15.327 0.421875 15.345 0.500016 15.345C0.603047 15.345 0.705562 15.3133 0.792 15.2508Z" fill="black"/>
<path d="M23.3873 16.6113C21.294 15.1137 17.438 12.3218 15.1363 10.4535C14.9488 10.3007 14.6773 10.3056 14.4927 10.4648C14.0411 10.8588 13.6631 11.1909 13.3951 11.4321C12.5718 12.1752 11.4292 12.1752 10.604 11.4311C10.3369 11.1904 9.95904 10.8573 9.50735 10.4647C9.32426 10.3046 9.05229 10.2997 8.86427 10.4535C6.5703 12.3153 2.70996 15.1107 0.613289 16.6112C0.49657 16.6952 0.421382 16.8246 0.406757 16.9677C0.392601 17.1107 0.439945 17.2528 0.538101 17.3583C0.91657 17.7661 1.44977 18 2.00009 18H22.0001C22.5504 18 23.0831 17.7661 23.4625 17.3583C23.5601 17.2533 23.608 17.1113 23.5939 16.9682C23.5792 16.8252 23.504 16.6953 23.3873 16.6113Z" fill="black"/>
</svg>
