<svg width="333" height="203" viewBox="0 0 333 203" fill="none" xmlns="http://www.w3.org/2000/svg">
<path d="M254.835 77.3551C246.462 33.8019 210.577 0.989258 166.921 0.989258C132.232 0.989258 102.329 21.8174 87.3739 52.1051C51.4894 55.8926 23.3828 88.0833 23.3828 127.239C23.3828 168.896 55.673 202.989 95.1518 202.989H250.651C283.543 202.989 310.459 174.58 310.459 139.864C310.522 123.913 304.791 108.542 294.444 96.915C284.098 85.2876 269.922 78.2877 254.835 77.3551Z" fill="#5F81E9"/>
<path d="M213.555 40.5703H109.825V156.129H213.555V40.5703Z" fill="url(#paint0_linear)"/>
<path d="M211.734 117.913H111.644V153.399H211.734V117.913Z" fill="white"/>
<path d="M123.473 126.102H119.833V144.755H123.473V126.102Z" fill="#5F81E9"/>
<g opacity="0.7">
<path opacity="0.7" d="M131.29 126.237H127.41V144.626H131.29V126.237Z" fill="#5F81E9"/>
</g>
<g opacity="0.6">
<path opacity="0.6" d="M138.951 126.237H135.071V144.626H138.951V126.237Z" fill="#5F81E9"/>
</g>
<g opacity="0.5">
<path opacity="0.5" d="M146.609 126.237H142.729V144.626H146.609V126.237Z" fill="#5F81E9"/>
</g>
<g opacity="0.5">
<path opacity="0.5" d="M154.267 126.237H150.388V144.626H154.267V126.237Z" fill="#5F81E9"/>
</g>
<g opacity="0.4">
<path opacity="0.4" d="M161.924 126.237H158.045V144.626H161.924V126.237Z" fill="#5F81E9"/>
</g>
<g opacity="0.3">
<path opacity="0.3" d="M169.587 126.237H165.707V144.626H169.587V126.237Z" fill="#5F81E9"/>
</g>
<path d="M197.404 144.755C202.555 144.755 206.73 140.579 206.73 135.428C206.73 130.277 202.555 126.102 197.404 126.102C192.253 126.102 188.077 130.277 188.077 135.428C188.077 140.579 192.253 144.755 197.404 144.755Z" fill="#5F81E9"/>
<path d="M211.734 80.6063H111.644V116.548H211.734V80.6063Z" fill="white"/>
<path d="M123.473 88.7955H119.833V107.449H123.473V88.7955Z" fill="#5F81E9"/>
<g opacity="0.7">
<path opacity="0.7" d="M131.29 88.9507H127.41V107.34H131.29V88.9507Z" fill="#5F81E9"/>
</g>
<g opacity="0.6">
<path opacity="0.6" d="M138.951 88.9507H135.071V107.34H138.951V88.9507Z" fill="#5F81E9"/>
</g>
<g opacity="0.5">
<path opacity="0.5" d="M146.609 88.9507H142.729V107.34H146.609V88.9507Z" fill="#5F81E9"/>
</g>
<g opacity="0.5">
<path opacity="0.5" d="M154.267 88.9507H150.388V107.34H154.267V88.9507Z" fill="#5F81E9"/>
</g>
<g opacity="0.4">
<path opacity="0.4" d="M161.924 88.9507H158.045V107.34H161.924V88.9507Z" fill="#5F81E9"/>
</g>
<g opacity="0.3">
<path opacity="0.3" d="M169.587 88.9507H165.707V107.34H169.587V88.9507Z" fill="#5F81E9"/>
</g>
<path d="M197.404 107.449C202.555 107.449 206.73 103.273 206.73 98.1221C206.73 92.9712 202.555 88.7955 197.404 88.7955C192.253 88.7955 188.077 92.9712 188.077 98.1221C188.077 103.273 192.253 107.449 197.404 107.449Z" fill="#5F81E9"/>
<path d="M211.734 43.3H111.644V79.2415H211.734V43.3Z" fill="white"/>
<path d="M123.473 51.4893H119.833V70.1424H123.473V51.4893Z" fill="#5F81E9"/>
<g opacity="0.7">
<path opacity="0.7" d="M131.29 51.6672H127.41V70.057H131.29V51.6672Z" fill="#5F81E9"/>
</g>
<g opacity="0.6">
<path opacity="0.6" d="M138.951 51.6672H135.071V70.057H138.951V51.6672Z" fill="#5F81E9"/>
</g>
<g opacity="0.5">
<path opacity="0.5" d="M146.609 51.6672H142.729V70.057H146.609V51.6672Z" fill="#5F81E9"/>
</g>
<g opacity="0.5">
<path opacity="0.5" d="M154.267 51.6672H150.388V70.057H154.267V51.6672Z" fill="#5F81E9"/>
</g>
<g opacity="0.4">
<path opacity="0.4" d="M161.924 51.6672H158.045V70.057H161.924V51.6672Z" fill="#5F81E9"/>
</g>
<g opacity="0.3">
<path opacity="0.3" d="M169.587 51.6672H165.707V70.057H169.587V51.6672Z" fill="#5F81E9"/>
</g>
<path d="M197.403 71.0523C203.057 71.0523 207.64 66.4693 207.64 60.8158C207.64 55.1624 203.057 50.5793 197.403 50.5793C191.75 50.5793 187.167 55.1624 187.167 60.8158C187.167 66.4693 191.75 71.0523 197.403 71.0523Z" fill="url(#paint1_linear)"/>
<path d="M197.403 108.359C203.057 108.359 207.64 103.877 207.64 98.3496C207.64 92.8218 203.057 88.3406 197.403 88.3406C191.75 88.3406 187.167 92.8218 187.167 98.3496C187.167 103.877 191.75 108.359 197.403 108.359Z" fill="url(#paint2_linear)"/>
<path d="M197.403 145.665C203.057 145.665 207.64 141.184 207.64 135.656C207.64 130.128 203.057 125.647 197.403 125.647C191.75 125.647 187.167 130.128 187.167 135.656C187.167 141.184 191.75 145.665 197.403 145.665Z" fill="url(#paint3_linear)"/>
<path d="M197.404 70.1424C202.555 70.1424 206.73 65.9668 206.73 60.8158C206.73 55.6649 202.555 51.4893 197.404 51.4893C192.253 51.4893 188.077 55.6649 188.077 60.8158C188.077 65.9668 192.253 70.1424 197.404 70.1424Z" fill="#5F81E9"/>
<g opacity="0.7">
<path opacity="0.7" d="M226.748 30.1063H229.478" stroke="#5F81E9" stroke-width="4" stroke-linecap="round" stroke-linejoin="round"/>
<path opacity="0.7" d="M244.664 30.1063H320.61" stroke="#5F81E9" stroke-width="4" stroke-linecap="round" stroke-linejoin="round" stroke-dasharray="12.52 33.38"/>
<path opacity="0.7" d="M328.202 30.1063H330.932V32.8361" stroke="#5F81E9" stroke-width="4" stroke-linecap="round" stroke-linejoin="round"/>
<path opacity="0.7" d="M330.934 47.3081V99.7599" stroke="#5F81E9" stroke-width="4" stroke-linecap="round" stroke-linejoin="round" stroke-dasharray="11.93 31.8"/>
<path opacity="0.7" d="M330.934 106.994V109.723" stroke="#5F81E9" stroke-width="4" stroke-linecap="round" stroke-linejoin="round"/>
</g>
<g opacity="0.7">
<path opacity="0.7" d="M106.184 176.397L103.454 176.384" stroke="#5F81E9" stroke-width="4" stroke-linecap="round" stroke-linejoin="round"/>
<path opacity="0.7" d="M88.2692 176.311L12.3281 175.947" stroke="#5F81E9" stroke-width="4" stroke-linecap="round" stroke-linejoin="round" stroke-dasharray="12.52 33.38"/>
<path opacity="0.7" d="M4.72973 175.915L2 175.901L2.0182 173.172" stroke="#5F81E9" stroke-width="4" stroke-linecap="round" stroke-linejoin="round"/>
<path opacity="0.7" d="M2.10938 159.164L2.31865 127.649" stroke="#5F81E9" stroke-width="4" stroke-linecap="round" stroke-linejoin="round" stroke-dasharray="11.55 30.79"/>
<path opacity="0.7" d="M2.36426 120.642L2.38245 117.913" stroke="#5F81E9" stroke-width="4" stroke-linecap="round" stroke-linejoin="round"/>
</g>
<path d="M127.932 164.364C128.812 164.364 129.592 164.584 130.272 165.024C130.952 165.451 131.479 166.064 131.852 166.864C132.225 167.651 132.412 168.564 132.412 169.604C132.412 170.644 132.219 171.571 131.832 172.384C131.459 173.184 130.932 173.811 130.252 174.264C129.572 174.704 128.799 174.924 127.932 174.924C127.225 174.924 126.585 174.777 126.012 174.484C125.452 174.177 125.025 173.764 124.732 173.244V174.764H121.732V160.044H124.752V166.044C125.045 165.524 125.472 165.117 126.032 164.824C126.605 164.517 127.239 164.364 127.932 164.364ZM127.072 172.624C127.819 172.624 128.392 172.364 128.792 171.844C129.192 171.324 129.392 170.577 129.392 169.604C129.392 168.671 129.192 167.951 128.792 167.444C128.392 166.937 127.819 166.684 127.072 166.684C126.325 166.684 125.745 166.944 125.332 167.464C124.932 167.971 124.732 168.697 124.732 169.644C124.732 170.604 124.932 171.344 125.332 171.864C125.745 172.371 126.325 172.624 127.072 172.624ZM137.829 163.064H133.369V160.524H145.449V163.064H140.989V174.764H137.829V163.064ZM153.168 164.364C155.568 164.364 156.768 165.784 156.768 168.624V174.764H153.748V168.764C153.748 168.057 153.615 167.544 153.348 167.224C153.095 166.891 152.688 166.724 152.128 166.724C151.461 166.724 150.928 166.937 150.528 167.364C150.128 167.791 149.928 168.364 149.928 169.084V174.764H146.908V160.044H149.928V166.004C150.288 165.471 150.748 165.064 151.308 164.784C151.868 164.504 152.488 164.364 153.168 164.364ZM168.273 169.944H161.593C161.647 170.891 161.893 171.584 162.333 172.024C162.773 172.451 163.427 172.664 164.293 172.664C164.813 172.664 165.333 172.577 165.853 172.404C166.373 172.231 166.853 171.977 167.293 171.644L168.093 173.684C167.613 174.071 167.013 174.377 166.293 174.604C165.587 174.817 164.873 174.924 164.153 174.924C162.447 174.924 161.107 174.457 160.133 173.524C159.16 172.577 158.673 171.291 158.673 169.664C158.673 168.637 158.88 167.724 159.293 166.924C159.72 166.111 160.313 165.484 161.073 165.044C161.833 164.591 162.693 164.364 163.653 164.364C165.08 164.364 166.207 164.831 167.033 165.764C167.86 166.684 168.273 167.931 168.273 169.504V169.944ZM163.733 166.484C163.16 166.484 162.693 166.651 162.333 166.984C161.987 167.317 161.76 167.804 161.653 168.444H165.673C165.513 167.137 164.867 166.484 163.733 166.484ZM176.07 164.384C176.496 164.384 176.856 164.451 177.15 164.584L177.13 167.344C176.636 167.117 176.143 167.004 175.65 167.004C174.85 167.004 174.236 167.224 173.81 167.664C173.396 168.091 173.19 168.691 173.19 169.464V174.764H170.17V167.524C170.17 166.444 170.116 165.477 170.01 164.624H172.85L173.05 166.364C173.303 165.724 173.696 165.237 174.23 164.904C174.776 164.557 175.39 164.384 176.07 164.384ZM187.277 169.944H180.597C180.651 170.891 180.897 171.584 181.337 172.024C181.777 172.451 182.431 172.664 183.297 172.664C183.817 172.664 184.337 172.577 184.857 172.404C185.377 172.231 185.857 171.977 186.297 171.644L187.097 173.684C186.617 174.071 186.017 174.377 185.297 174.604C184.591 174.817 183.877 174.924 183.157 174.924C181.451 174.924 180.111 174.457 179.137 173.524C178.164 172.577 177.677 171.291 177.677 169.664C177.677 168.637 177.884 167.724 178.297 166.924C178.724 166.111 179.317 165.484 180.077 165.044C180.837 164.591 181.697 164.364 182.657 164.364C184.084 164.364 185.211 164.831 186.037 165.764C186.864 166.684 187.277 167.931 187.277 169.504V169.944ZM182.737 166.484C182.164 166.484 181.697 166.651 181.337 166.984C180.991 167.317 180.764 167.804 180.657 168.444H184.677C184.517 167.137 183.871 166.484 182.737 166.484ZM192.193 171.544V174.764H188.933V171.544H192.193ZM204.353 164.624V174.764H201.373V173.264C201.066 173.784 200.633 174.191 200.073 174.484C199.513 174.777 198.88 174.924 198.173 174.924C197.293 174.924 196.513 174.711 195.833 174.284C195.166 173.857 194.64 173.251 194.253 172.464C193.88 171.664 193.693 170.744 193.693 169.704C193.693 168.664 193.88 167.737 194.253 166.924C194.64 166.111 195.173 165.484 195.853 165.044C196.533 164.591 197.306 164.364 198.173 164.364C198.88 164.364 199.513 164.517 200.073 164.824C200.633 165.131 201.066 165.544 201.373 166.064V164.624H204.353ZM199.053 172.624C199.8 172.624 200.373 172.371 200.773 171.864C201.173 171.357 201.373 170.624 201.373 169.664C201.373 168.704 201.173 167.971 200.773 167.464C200.373 166.944 199.8 166.684 199.053 166.684C198.306 166.684 197.726 166.951 197.313 167.484C196.9 168.017 196.693 168.757 196.693 169.704C196.693 170.651 196.893 171.377 197.293 171.884C197.706 172.377 198.293 172.624 199.053 172.624ZM206.791 164.624H209.811V174.764H206.791V164.624ZM209.911 159.864V162.704H206.691V159.864H209.911Z" fill="#E5E5E5"/>
<defs>
<linearGradient id="paint0_linear" x1="161.69" y1="156.129" x2="161.69" y2="40.5703" gradientUnits="userSpaceOnUse">
<stop stop-color="#808080" stop-opacity="0.25"/>
<stop offset="0.54" stop-color="#808080" stop-opacity="0.12"/>
<stop offset="1" stop-color="#808080" stop-opacity="0.1"/>
</linearGradient>
<linearGradient id="paint1_linear" x1="7310.53" y1="2510.2" x2="7310.53" y2="869.908" gradientUnits="userSpaceOnUse">
<stop stop-color="#808080" stop-opacity="0.25"/>
<stop offset="0.54" stop-color="#808080" stop-opacity="0.12"/>
<stop offset="1" stop-color="#808080" stop-opacity="0.1"/>
</linearGradient>
<linearGradient id="paint2_linear" x1="7310.53" y1="5475.99" x2="7310.53" y2="3872.15" gradientUnits="userSpaceOnUse">
<stop stop-color="#808080" stop-opacity="0.25"/>
<stop offset="0.54" stop-color="#808080" stop-opacity="0.12"/>
<stop offset="1" stop-color="#808080" stop-opacity="0.1"/>
</linearGradient>
<linearGradient id="paint3_linear" x1="7310.53" y1="8475.96" x2="7310.53" y2="6872.12" gradientUnits="userSpaceOnUse">
<stop stop-color="#808080" stop-opacity="0.25"/>
<stop offset="0.54" stop-color="#808080" stop-opacity="0.12"/>
<stop offset="1" stop-color="#808080" stop-opacity="0.1"/>
</linearGradient>
</defs>
</svg>
