<svg width="316" height="288" viewBox="0 0 316 288" fill="none" xmlns="http://www.w3.org/2000/svg">
<path d="M121.901 187.172C121.901 187.172 137.463 181.925 134.241 163.334L114.474 158.196L109.885 173.45L121.901 187.172Z" fill="#CED7E7"/>
<path opacity="0.1" d="M109.885 173.45L121.898 187.172C121.898 187.172 137.46 181.925 134.238 163.334L109.885 173.45Z" fill="black"/>
<path d="M44.4946 36.1051C44.4946 36.1051 46.5943 39.5259 49.4649 37.817C52.3355 36.1081 49.5819 31.3867 49.5819 31.3867C49.5819 31.3867 44.0837 30.6329 44.4946 36.1051Z" fill="#5F81E9"/>
<path opacity="0.1" d="M49.465 37.8169C49.1264 38.0363 48.7466 38.1841 48.3489 38.2512C47.9512 38.3184 47.544 38.3035 47.1523 38.2074C46.0995 37.9401 45.2896 37.1292 44.8546 36.5976C44.7249 36.4418 44.6047 36.2783 44.4947 36.108C44.3477 34.1558 44.9536 32.9935 45.7935 32.3087C46.9483 31.3687 48.5471 31.3296 49.237 31.3597C49.45 31.3597 49.573 31.3897 49.573 31.3897L49.63 31.4858C49.711 31.639 49.8879 31.9784 50.0769 32.4319C50.7188 33.9186 51.4837 36.6126 49.465 37.8169Z" fill="black"/>
<path d="M123.43 162.46L134.229 163.334L154.326 163.5L138.491 183.022C138.491 183.022 133.467 183.295 132.432 184.004C131.397 184.713 116.867 184.334 116.867 184.334L114.521 174.327L123.43 162.46Z" fill="#FFA2A2"/>
<path opacity="0.05" d="M123.43 162.46L134.229 163.334L154.326 163.5L138.491 183.022C138.491 183.022 133.467 183.295 132.432 184.004C131.397 184.713 116.867 184.334 116.867 184.334L114.521 174.327L123.43 162.46Z" fill="black"/>
<path d="M112.509 109.973L115.02 114.238L115.566 121.674C115.566 121.674 117.315 128.015 118.626 129.874C119.936 131.733 120.482 136.655 120.482 136.655C120.482 136.655 121.028 141.248 121.682 142.23C122.336 143.212 123.212 150.339 123.212 150.339C123.212 150.339 129.001 161.929 134.241 163.349C134.241 163.349 108.25 171.879 121.901 187.187C121.901 187.187 112.182 189.59 109.888 186.86C107.593 184.13 101.588 143.668 101.588 143.668L103.445 109.55L112.509 109.973Z" fill="#CED7E7"/>
<path opacity="0.05" d="M112.509 109.973L115.02 114.238L115.566 121.674C115.566 121.674 117.315 128.015 118.626 129.874C119.936 131.733 120.482 136.655 120.482 136.655C120.482 136.655 121.028 141.248 121.682 142.23C122.336 143.212 123.212 150.339 123.212 150.339C123.212 150.339 129.001 161.929 134.241 163.349C134.241 163.349 108.25 171.879 121.901 187.187C121.901 187.187 112.182 189.59 109.888 186.86C107.593 184.13 101.588 143.668 101.588 143.668L103.445 109.55L112.509 109.973Z" fill="black"/>
<path d="M80.9764 68.4094C80.247 72.1977 80.4634 76.1078 81.6063 79.7922L77.5629 91.3823C77.5629 91.3823 46.7662 74.2149 49.3879 70.0583C50.8726 67.7006 51.0616 61.4626 50.9416 56.507C50.8546 52.7408 50.5877 49.7194 50.5877 49.7194C50.5877 49.7194 88.3824 53.4405 83.3521 62.0783C82.2137 64.0415 81.4108 66.1813 80.9764 68.4094Z" fill="#FFA2A2"/>
<path opacity="0.1" d="M83.3504 62.0783C82.212 64.0415 81.4091 66.1813 80.9747 68.4094C75.3658 70.206 69.3087 70.002 63.8331 67.8321C58.3575 65.6622 53.8015 61.6604 50.9399 56.507C50.8529 52.7408 50.5859 49.7194 50.5859 49.7194C50.5859 49.7194 88.3717 53.4405 83.3504 62.0783Z" fill="black"/>
<path d="M98.639 43.4874C98.6417 47.4965 97.6994 51.4497 95.8889 55.0255C94.0784 58.6014 91.4507 61.6991 88.2195 64.0667C84.9882 66.4343 81.2446 68.0051 77.2929 68.6514C73.3412 69.2977 69.293 69.0012 65.4773 67.786C61.6616 66.5709 58.1861 64.4714 55.3333 61.6581C52.4806 58.8449 50.3311 55.3974 49.0595 51.5958C47.788 47.7942 47.4303 43.7458 48.0155 39.7797C48.6007 35.8136 50.1123 32.0418 52.4275 28.7708C52.7875 28.2642 53.1664 27.7697 53.5644 27.2871C55.8318 24.5277 58.6535 22.2765 61.8462 20.6797C63.5784 19.812 65.4054 19.1488 67.2904 18.7034C70.6942 17.8961 74.2275 17.7986 77.6705 18.4171C81.1135 19.0356 84.3926 20.3569 87.3038 22.2987C90.2149 24.2405 92.6959 26.7613 94.5923 29.7044C96.4887 32.6474 97.76 35.9497 98.3271 39.4058C98.539 40.7559 98.6433 42.1207 98.639 43.4874Z" fill="#FFA2A2"/>
<path d="M108.684 148.248C108.303 150.285 108.78 154.006 109.503 157.793C109.533 157.958 109.566 158.124 109.599 158.289C109.632 158.454 109.68 158.709 109.722 158.916C110.055 160.544 110.418 162.157 110.772 163.623C111.126 165.088 111.444 166.344 111.714 167.377C112.121 168.924 112.4 169.897 112.4 169.897C112.4 169.897 112.436 170.852 112.484 172.372C112.511 173.249 112.541 174.318 112.571 175.498C112.571 175.84 112.592 176.189 112.601 176.549C112.616 177.177 112.631 177.829 112.646 178.495C112.646 178.712 112.646 178.928 112.661 179.147C112.661 179.865 112.688 180.598 112.7 181.328C112.715 182.331 112.727 183.334 112.733 184.307C112.733 184.679 112.733 185.046 112.733 185.406C112.733 186.337 112.733 187.229 112.733 188.049C112.7 190.377 112.607 192.134 112.409 192.641C112.34 192.816 112.277 193.005 112.217 193.203C111.957 194.135 111.769 195.086 111.654 196.047L111.144 195.63C110.169 194.825 109.203 194.002 108.222 193.203C106.592 191.836 104.861 190.593 103.045 189.485C102.922 189.413 102.799 189.341 102.673 189.272C102.337 189.076 101.995 188.893 101.647 188.719C100.93 188.357 100.195 188.032 99.4452 187.746C95.9807 186.424 92.2702 185.944 88.5088 186.025C87.009 186.599 86.0341 187.01 86.0341 187.01L84.1264 187.587L83.8084 187.683C81.7417 188.314 78.8351 189.209 77.7883 189.581C76.0965 190.182 61.4076 193.242 61.4076 193.242C60.0656 193.609 58.6948 193.86 57.3101 193.993C54.7888 194.703 52.2223 195.241 49.6282 195.603C43.7333 196.357 37.746 195.875 32.0477 194.185C31.8776 194.195 31.707 194.19 31.5378 194.17C31.6427 194.17 31.7447 194.146 31.8377 194.128L31.4718 194.02L30.9708 193.864C30.131 193.599 29.2981 193.31 28.4722 192.996L27.9713 192.804C27.1714 192.495 26.3885 192.164 25.6226 191.809L25.1217 191.581C24.3218 191.209 23.5389 190.815 22.773 190.401C22.497 190.257 22.2241 190.101 21.9541 189.953C21.1382 189.497 20.3383 189.018 19.5544 188.518C19.4225 187.385 19.3535 186.629 19.3535 186.629L18.1836 180.796L18.1236 180.496L17.2838 176.291L17.2238 175.991L15.397 166.842L15.337 166.542L14.4972 162.337L14.4372 162.037L12.5864 152.895L12.5264 152.594L11.6865 148.39L11.6266 148.089L9.79081 138.929L9.73082 138.629L8.89094 134.439L8.83095 134.138L8.49799 132.487L7.99707 129.985C7.99707 129.985 6.39829 127.696 4.59854 124.99L4.39757 124.69C3.88464 123.93 3.35672 123.14 2.84379 122.365C2.67281 122.11 2.50784 121.858 2.34286 121.608C2.0929 121.23 1.85093 120.861 1.61696 120.5L1.45498 120.251L1.42199 120.2C-1.16365 116.193 0.567108 114.451 0.567108 114.451C0.567108 114.451 1.65296 112.98 3.05376 111.033C3.12275 110.934 3.19474 110.835 3.26973 110.733C3.86964 109.892 4.52955 108.973 5.17746 108.054L5.67839 107.339C5.86736 107.072 6.05334 106.805 6.23331 106.54C6.3053 106.441 6.37429 106.339 6.44028 106.24C7.82309 104.24 8.96293 102.495 9.1969 101.876C9.56285 100.9 11.8965 98.0138 14.2212 95.4819C16.0539 93.4817 17.8777 91.7037 18.6966 91.2772C20.5533 90.2951 21.3182 87.1205 21.3182 87.1205C21.3182 87.1205 25.3586 85.7029 25.9046 84.6097C26.4505 83.5165 34.0964 78.6029 34.0964 78.6029C34.0964 78.6029 37.189 76.6087 38.4398 75.4073C38.6169 75.2502 38.7713 75.0693 38.8987 74.8697C39.3337 74.0889 42.1743 73.4461 43.3291 73.2149C43.6291 73.1548 43.815 73.1218 43.815 73.1218C44.2813 72.2735 44.8706 71.4992 45.5638 70.8242C46.0347 70.4067 46.6226 68.9681 47.1176 67.5745C47.6545 66.0548 48.0714 64.5922 48.0714 64.5922C48.9473 61.6398 50.6931 62.5138 50.6931 62.5138C50.6907 62.9171 50.7289 63.3196 50.8071 63.7152C51.5359 67.3192 55.4954 68.8209 57.5741 70.5058C59.8688 72.3619 63.4713 77.1763 66.3119 78.1584C68.6635 78.9724 71.3902 82.0418 72.254 83.066L72.32 83.1441C72.464 83.3122 72.536 83.4084 72.536 83.4084C72.536 83.4084 74.1468 83.3243 75.1276 83.3062H75.4846C75.6841 83.2862 75.8736 83.209 76.0305 83.084C77.0054 82.4202 78.4572 80.474 79.0901 80.0265C79.852 79.4769 80.6199 70.6199 80.6199 70.6199L80.6589 70.6019C83.3795 69.3255 86.2981 82.1019 86.2981 82.1019C86.2981 82.1019 91.4304 83.6336 91.8683 84.7268C91.9523 84.9431 92.3392 85.3275 92.9211 85.793C95.5708 87.8205 98.3909 89.6142 101.35 91.1541C101.416 91.1871 101.479 91.2201 101.545 91.2472C101.604 91.2793 101.665 91.3084 101.728 91.3343C101.839 91.3883 101.947 91.4364 102.049 91.4814C102.211 91.5535 102.361 91.6136 102.499 91.6616L102.679 91.7247C103.109 91.8679 103.514 92.0777 103.879 92.3464C103.987 92.4245 104.095 92.5056 104.2 92.5927C104.608 92.9331 104.984 93.3112 105.321 93.722C105.372 93.782 105.42 93.8451 105.468 93.9052C105.696 94.1905 105.9 94.4728 106.068 94.7341C106.344 95.1372 106.595 95.5564 106.821 95.9895C106.821 95.9895 111.297 103.645 112.718 104.516C114.14 105.387 115.013 114.25 115.013 114.25L110.214 132.063C110.214 132.063 109.989 136.568 109.569 141.163C109.335 143.74 109.038 146.362 108.684 148.248Z" fill="#CED7E7"/>
<path d="M72.5383 83.9489C72.5383 83.9489 69.3198 85.6969 66.8061 85.8621C66.4771 85.8774 66.1474 85.8583 65.8223 85.805C63.1887 85.4055 59.3252 83.2371 59.3252 83.2371L63.8576 78.2605L69.3708 80.9966L71.3985 82.8857L72.5383 83.9489Z" fill="#63667E"/>
<path opacity="0.1" d="M98.316 39.4057C98.202 39.5672 98.0724 39.7171 97.9291 39.8532C96.3513 41.3549 93.5497 40.7332 91.399 40.3848C89.5301 40.0789 87.7044 39.5506 85.9608 38.8111C84.443 38.1623 82.6222 37.3694 81.2574 38.3005C80.7325 38.6549 80.3725 39.2225 79.8266 39.5349C79.2807 39.8472 78.5848 39.8683 77.9399 39.8773C75.8402 39.8773 73.7405 39.9013 71.6918 39.4268C68.6352 38.712 65.4736 36.9129 62.567 38.0993C60.2934 39.0243 59.0605 41.5021 58.4456 43.8838C58.1457 45.0521 57.9237 46.2865 57.2458 47.2776C56.5679 48.2687 55.2571 48.9715 54.1412 48.506C52.4944 47.8182 52.2515 45.0191 50.2658 44.8779C48.0851 44.7247 48.1121 46.9803 48.748 48.6111C49.6898 51.0138 50.9227 53.4165 50.9767 55.9213C48.633 51.7183 47.5256 46.9368 47.7825 42.13C48.0394 37.3231 49.6502 32.6873 52.4285 28.7587C52.912 28.4589 53.2904 28.016 53.5113 27.4913C53.5335 27.4204 53.5516 27.3482 53.5653 27.2751C53.7303 26.4371 53.2653 25.5571 53.2383 24.6802C53.1334 22.5387 55.449 21.0461 57.5727 20.7758C58.9855 20.5956 60.4313 20.7337 61.8471 20.6887C62.5603 20.6729 63.2695 20.5782 63.9618 20.4063C65.1563 20.048 66.2747 19.4728 67.2614 18.7094C70.6651 17.902 74.1984 17.8046 77.6414 18.4231C81.0845 19.0416 84.3635 20.3628 87.2747 22.3047C90.1858 24.2465 92.6668 26.7673 94.5632 29.7103C96.4596 32.6534 97.7309 35.9557 98.298 39.4117L98.316 39.4057Z" fill="black"/>
<path d="M98.8267 37.6369C98.6772 38.2309 98.3656 38.7716 97.9268 39.1986C96.3491 40.7003 93.5474 40.0756 91.3968 39.7272C89.5278 39.428 87.7018 38.9036 85.9585 38.1654C84.4407 37.5197 82.62 36.7268 81.2552 37.6579C80.7303 38.0123 80.3703 38.5799 79.8244 38.8923C79.2785 39.2046 78.5826 39.2256 77.9376 39.2317C75.8379 39.2467 73.7382 39.2587 71.6895 38.7841C68.633 38.0663 65.4714 36.2703 62.5648 37.4536C60.2911 38.3787 59.0583 40.8595 58.4434 43.2412C58.1434 44.4095 57.9215 45.6439 57.2436 46.632C56.5657 47.6201 55.2548 48.3289 54.139 47.8634C52.4922 47.1756 52.2493 44.3764 50.2635 44.2353C48.0828 44.0821 48.1098 46.3377 48.7457 47.9685C49.8616 50.8127 51.3794 53.6419 50.8815 56.6573C50.3865 56.6573 49.5676 56.6393 49.0817 56.6272C49.4597 55.9815 48.7398 55.2127 48.0229 54.9934C47.306 54.7742 46.4691 54.7772 45.9231 54.2546C45.3772 53.732 45.3742 52.9241 45.4312 52.2003C45.5556 50.6532 45.9336 49.1373 46.5501 47.7132C46.943 46.8122 47.4499 45.8361 47.15 44.893C46.9699 44.4656 46.7531 44.0546 46.5021 43.6646C45.8782 42.4633 46.0251 40.9616 46.5591 39.7212C46.787 39.1926 46.952 38.694 47.141 38.2195C47.3796 37.545 47.725 36.9132 48.1638 36.3484C48.8507 35.4924 49.5226 34.204 48.7638 33.4081C48.5718 33.2069 48.9557 33.0687 48.8327 32.8074C48.811 32.7628 48.7959 32.7152 48.7877 32.6663C48.7525 32.3499 48.8289 32.0311 49.0037 31.7652C49.0391 31.6961 49.0782 31.629 49.1207 31.564C49.1552 31.4954 49.1943 31.4292 49.2377 31.3658C49.9019 30.2554 50.7847 29.2918 51.8323 28.5336C52.4832 28.0621 53.2451 27.6086 53.5031 26.8457C53.803 25.9447 53.2751 24.9866 53.2301 24.0345C53.1251 21.8931 55.4408 20.4004 57.5645 20.1301C59.6882 19.8598 61.8899 20.3073 63.9596 19.7577C66.8962 18.9828 68.9599 16.3879 71.6265 14.9313C73.0853 14.1503 74.7031 13.7134 76.3563 13.6541C78.0094 13.5947 79.6543 13.9145 81.1652 14.5889C84.2788 16.0125 86.6274 18.8897 89.879 19.971C91.0308 20.3554 92.2786 20.5086 93.3165 21.1453C94.5163 21.8841 95.2452 23.1756 95.8691 24.449C96.82 26.3802 97.012 28.3204 97.6689 30.3657C98.1908 31.9875 98.9137 34.1079 98.9737 35.976C99.0074 36.5338 98.9579 37.0936 98.8267 37.6369Z" fill="#896363"/>
<g opacity="0.1">
<path opacity="0.1" d="M49.1563 33.8735C49.2043 33.6813 49.209 33.4808 49.1701 33.2865C49.1312 33.0922 49.0497 32.9091 48.9313 32.7502C49.0093 32.9845 48.6704 33.1197 48.8564 33.3149C49.0045 33.4708 49.1081 33.6638 49.1563 33.8735Z" fill="black"/>
<path opacity="0.1" d="M48.9214 32.0625C48.886 32.1673 48.8649 32.2764 48.8584 32.3869C48.9154 32.2908 48.9934 32.1916 48.9214 32.0625Z" fill="black"/>
<path opacity="0.1" d="M98.013 38.4658C96.4323 39.9675 93.6337 39.3457 91.477 38.9944C89.6093 38.6933 87.7851 38.1658 86.0447 37.4236C84.5239 36.7749 82.7062 35.982 81.3384 36.913C80.8164 37.2674 80.4565 37.835 79.9076 38.1474C79.3587 38.4598 78.6658 38.4808 78.0208 38.4868C75.9211 38.4868 73.8214 38.5138 71.7697 38.0363C68.7161 37.3215 65.5546 35.5284 62.648 36.7088C60.3743 37.6368 59.1415 40.1146 58.5266 42.4963C58.2266 43.6646 58.0077 44.899 57.3267 45.8901C56.6458 46.8812 55.335 47.584 54.2222 47.1215C52.5754 46.4307 52.3324 43.6346 50.3467 43.4934C48.7959 43.3823 48.364 44.4935 48.469 45.7279C48.559 44.7849 49.0689 44.0581 50.3467 44.1482C52.3324 44.2893 52.5754 47.0885 54.2222 47.7762C55.335 48.2418 56.6488 47.542 57.3267 46.5449C58.0047 45.5477 58.2266 44.3194 58.5266 43.154C59.1415 40.7724 60.3743 38.2916 62.648 37.3665C65.5546 36.1832 68.7161 37.9672 71.7697 38.694C73.8094 39.1716 75.9271 39.1565 78.0208 39.1415C78.6658 39.1415 79.3467 39.1235 79.9076 38.8051C80.4685 38.4868 80.8074 37.9251 81.3384 37.5677C82.7062 36.6397 84.5239 37.4326 86.0447 38.0783C87.7855 38.8201 89.6095 39.3486 91.477 39.6521C93.6337 40.0005 96.4323 40.6282 98.013 39.1205C98.8709 38.3006 99.1289 37.1142 99.0719 35.8168C99.0239 36.8469 98.7239 37.781 98.013 38.4658Z" fill="black"/>
<path opacity="0.1" d="M53.3379 23.4908C53.3213 23.6404 53.3152 23.7909 53.3199 23.9414C53.3499 24.5661 53.5868 25.1908 53.6618 25.8004C53.7728 25.0526 53.4278 24.2717 53.3379 23.4908Z" fill="black"/>
<path opacity="0.1" d="M47.2436 44.7999C47.2683 44.8897 47.2873 44.981 47.3005 45.0732C47.3492 44.7634 47.3297 44.4467 47.2436 44.1452C47.0647 43.7162 46.8479 43.3041 46.5956 42.9138C46.3703 42.4695 46.2366 41.9843 46.2027 41.4872C46.1417 42.2048 46.2776 42.9255 46.5956 43.5715C46.8485 43.9604 47.0653 44.3716 47.2436 44.7999Z" fill="black"/>
<path opacity="0.1" d="M50.964 55.9064L49.2093 55.8794C49.2502 55.9855 49.2666 56.0996 49.2573 56.213C49.2479 56.3263 49.213 56.4361 49.1553 56.5341C49.6502 56.5341 50.4721 56.5521 50.955 56.5642C51.0389 56.0501 51.0681 55.5286 51.042 55.0084C51.0352 55.3091 51.0091 55.6091 50.964 55.9064Z" fill="black"/>
<path opacity="0.1" d="M48.0941 54.2454C47.3772 54.0292 46.5433 54.0262 46.0094 53.5006C45.6951 53.1564 45.5179 52.7086 45.5115 52.2422C45.4665 52.933 45.5115 53.6778 46.0094 54.1583C46.5433 54.6839 47.3772 54.6869 48.0941 54.9032C48.3274 54.9711 48.5443 55.0861 48.7315 55.241C48.9188 55.396 49.0724 55.5876 49.183 55.8042C49.4859 55.1825 48.79 54.4527 48.0941 54.2454Z" fill="black"/>
</g>
<path opacity="0.1" d="M102.663 189.272C102.327 189.076 101.985 188.893 101.638 188.719C100.921 188.357 100.186 188.032 99.4359 187.746C95.9713 186.424 92.2609 185.944 88.4994 186.025C86.9996 186.599 86.0247 187.01 86.0247 187.01L84.117 187.587L83.7991 187.683C83.7781 187.473 83.7541 187.262 83.7331 187.049C83.7121 186.836 83.6881 186.632 83.6641 186.421C82.9922 180.051 82.4642 173.507 82.4642 173.507V167.854V167.197L82.4282 150.543L82.1283 145.053L81.9873 142.623L81.9603 142.161L81.9063 141.211L81.8763 140.647C81.8101 140.468 81.754 140.285 81.7084 140.1C81.6874 140.025 81.6664 139.941 81.6484 139.854C81.5734 139.554 81.4924 139.166 81.4084 138.746C80.8595 135.983 80.1726 131.324 80.1306 130.378C80.0766 129.117 78.9847 121.572 78.9847 121.572C78.8737 117.419 75.3852 109.598 74.5064 108.123C73.6275 106.649 72.6466 97.7886 72.9766 97.311C73.1475 97.0558 73.2585 95.5451 73.3275 94.1515C73.3275 93.9923 73.3425 93.8361 73.3485 93.683C73.3935 92.5927 73.4145 91.6827 73.4145 91.6827L76.846 91.0039L77.7669 90.8237L77.8389 90.8087L77.8689 90.8688C77.9679 91.052 78.2768 91.6377 78.6398 92.4065C78.6818 92.4876 78.7208 92.5747 78.7628 92.6618C78.7808 92.7039 78.8018 92.7459 78.8228 92.7879C79.4947 94.2596 80.2716 96.1968 80.2386 97.311C80.1846 99.2813 82.4252 104.039 82.4252 104.039C82.6412 105.132 87.3925 116.01 87.3925 116.01C87.3925 116.01 91.271 126.672 91.052 128.423C90.8331 130.174 92.9088 141.764 92.9088 141.764L95.0385 153.685C96.0733 156.033 97.4381 161.445 97.4381 161.445L97.9571 164.515L98.056 165.1L99.4389 173.291L100.117 177.303C100.117 177.303 100.402 179.436 100.834 181.808C100.87 182.021 100.912 182.238 100.954 182.454C101.22 184.016 101.598 185.557 102.084 187.064C102.326 187.786 102.519 188.524 102.663 189.272Z" fill="black"/>
<path d="M103.036 189.485C102.913 189.413 102.79 189.341 102.664 189.272C102.328 189.076 101.986 188.893 101.638 188.719C100.921 188.357 100.186 188.032 99.4361 187.746C95.9715 186.424 92.2611 185.944 88.4996 186.025C86.9998 186.599 86.0249 187.01 86.0249 187.01L84.1172 187.587C84.0932 187.376 84.0722 187.166 84.0482 186.953C84.0242 186.74 84.0062 186.568 83.9882 186.376C83.3163 180.021 82.7884 173.507 82.7884 173.507V167.8V167.143L82.7524 150.531L82.4524 145.287L82.3924 144.2L82.3504 143.464L82.2965 142.491L82.2425 141.503L82.2035 140.791V140.635C82.2035 140.62 82.2035 140.602 82.1825 140.584C82.1255 140.421 82.0565 140.175 81.9815 139.863L81.9455 139.713C81.9305 139.644 81.9125 139.569 81.8975 139.493C81.3336 136.932 80.5057 131.408 80.4607 130.372C80.4067 129.111 79.3149 121.566 79.3149 121.566C79.2039 117.413 75.7154 109.592 74.8365 108.117C73.9576 106.642 72.9798 97.7825 73.3067 97.3049C73.4957 97.0046 73.6067 95.1815 73.6787 93.6768C73.6787 93.5567 73.6787 93.4396 73.6787 93.3285C73.7177 92.4004 73.7327 91.6766 73.7327 91.6766L76.9242 91.0459L77.7341 90.8867L77.8601 90.8627L78.16 90.8026C78.16 90.8026 78.553 91.5294 79.0239 92.5296L79.0839 92.6557C79.7708 94.1394 80.5837 96.1576 80.5597 97.3049C80.5057 99.2752 82.7464 104.033 82.7464 104.033C82.9624 105.126 87.7137 116.004 87.7137 116.004C87.7137 116.004 91.5922 126.666 91.3732 128.417C91.1542 130.168 93.2299 141.758 93.2299 141.758L95.3596 153.678C96.3945 156.027 97.7593 161.439 97.7593 161.439L98.2422 164.298L98.3412 164.878L99.4301 171.341L100.435 177.297C100.435 177.297 100.735 179.42 101.149 181.802C101.188 182.018 101.227 182.235 101.269 182.454C101.534 184.023 101.912 185.57 102.4 187.085C102.666 187.87 102.878 188.671 103.036 189.485Z" fill="#63667E"/>
<path d="M100.33 35.2341C100.33 35.2341 99.1841 36.7118 98.1492 36.7118C97.1144 36.7118 93.086 36.5466 90.9863 35.8918C88.8866 35.2371 78.592 34.7415 78.592 34.7415C78.592 34.7415 64.014 34.7956 63.5221 34.303C63.0302 33.8105 54.4574 31.1855 53.5845 31.3507C53.4015 31.3868 52.9546 31.4649 52.3577 31.564L51.6738 31.6751C50.6389 31.8403 49.3461 32.0325 48.1643 32.1737C46.7035 32.3448 45.4197 32.4319 45.0117 32.2818V31.0234C45.0117 31.0234 46.7035 28.5606 46.8115 27.8548C46.9195 27.149 48.3413 16.9165 52.0547 13.2553C53.5889 10.319 56.0715 7.98981 59.0977 6.6479C64.122 4.45844 69.1463 2.60235 69.1463 2.60235L70.0252 2.4762L72.8598 2.05573C72.946 1.96985 73.0393 1.89147 73.1388 1.82147C73.9247 1.22079 76.3063 -0.085681 79.4109 2.72248L79.9598 3.59947C79.9598 3.59947 89.5135 5.83999 93.9348 13.6578C98.3562 21.4756 98.5782 29.1312 98.9051 32.6302C98.9051 32.6302 98.6862 33.6153 99.1241 33.9967C99.2827 34.1369 99.4338 34.2853 99.577 34.4412C99.616 34.4802 99.655 34.5193 99.691 34.5613C99.817 34.6875 99.934 34.8196 100.03 34.9277C100.041 34.9362 100.052 34.9463 100.06 34.9578C100.083 34.9862 100.108 35.0133 100.135 35.0389L100.33 35.2341Z" fill="#5F81E9"/>
<path opacity="0.05" d="M100.331 35.2341C100.331 35.2341 99.1855 36.7118 98.1506 36.7118C97.1157 36.7118 93.0873 36.5466 90.9876 35.8918C88.8879 35.2371 78.5933 34.7415 78.5933 34.7415C78.5933 34.7415 64.0154 34.7956 63.5235 34.303C63.0315 33.8105 54.4587 31.1855 53.5859 31.3507C53.4029 31.3868 52.9559 31.4648 52.359 31.564L52.2031 30.6029L52.1641 30.3656C52.1641 30.3656 68.7097 26.8126 79.7392 28.6747C90.7686 30.5368 98.9065 32.6091 98.9065 32.6091C98.9065 32.6091 98.6875 33.5942 99.1255 33.9757C99.284 34.1159 99.4352 34.2643 99.5784 34.4202C99.6174 34.4592 99.6564 34.4983 99.6924 34.5403C99.8184 34.6664 99.9353 34.7986 100.031 34.9067C100.043 34.9152 100.053 34.9253 100.061 34.9368C100.085 34.9652 100.11 34.9922 100.136 35.0178L100.331 35.2341Z" fill="black"/>
<path opacity="0.1" d="M98.8288 37.6368C96.7861 37.796 93.0216 37.2974 91.3748 37.0541C90.9069 36.9851 90.448 36.901 89.986 36.7989C88.2193 36.4144 82.787 35.3362 79.4875 35.8348C75.5011 36.4355 64.2526 35.3422 64.2526 35.3422C64.2526 35.3422 57.3176 33.9216 54.531 32.7743C53.5081 32.3508 51.7984 32.2187 50.0976 32.4289C49.6639 32.4831 49.2334 32.5603 48.8078 32.6602C46.4861 33.2098 44.5274 34.4622 44.8664 36.5976C44.7366 36.4419 44.6164 36.2784 44.5064 36.1081C44.3594 34.1559 44.9653 32.9936 45.8052 32.3088L46.0032 32.2277C47.0292 31.9358 48.0733 31.7121 49.1288 31.558C49.2937 31.5309 49.4647 31.5069 49.6387 31.4859C52.6233 31.0834 56.9397 30.9933 60.5812 32.8284C60.5812 32.8284 63.9647 34.4172 66.2594 34.4172C68.554 34.4172 87.2264 34.5824 91.5968 35.8378C92.4668 36.0895 93.3541 36.2772 94.2514 36.3994C95.8448 36.6051 97.4639 36.4522 98.9908 35.9519C99.022 36.5185 98.9674 37.0866 98.8288 37.6368Z" fill="black"/>
<path opacity="0.1" d="M100.33 35.2341C100.33 35.2341 99.1841 36.7117 98.1492 36.7117C97.1144 36.7117 93.086 36.5465 90.9863 35.8918C88.8866 35.2371 78.592 34.7415 78.592 34.7415C78.592 34.7415 64.014 34.7956 63.5221 34.303C63.0302 33.8105 54.4574 31.1855 53.5845 31.3507C53.4015 31.3867 52.9546 31.4648 52.3577 31.5639L51.6738 31.675C50.4859 31.669 49.3036 31.8369 48.1643 32.1736C46.7035 32.3448 45.4197 32.4319 45.0117 32.2817V32.0325C45.3262 31.8497 45.6541 31.6911 45.9926 31.5579C48.0167 30.9904 50.101 30.6657 52.2017 30.5908C54.8203 30.4947 57.8829 30.8011 60.5735 32.1586C60.5735 32.1586 63.9571 33.7474 66.2517 33.7474C68.5464 33.7474 87.2188 33.9096 91.5892 35.168C92.4596 35.4173 93.3467 35.604 94.2438 35.7266C96.2121 35.975 98.211 35.6876 100.03 34.8947C100.041 34.9031 100.052 34.9132 100.06 34.9247C100.083 34.9531 100.108 34.9802 100.135 35.0058L100.33 35.2341Z" fill="black"/>
<path d="M44.909 36.5466C44.909 36.5466 41.2495 33.7564 46.0008 31.8973C46.0008 31.8973 54.3007 29.3294 60.5818 32.498C60.5818 32.498 63.9653 34.0808 66.26 34.0808C68.5547 34.0808 87.227 34.246 91.5974 35.5044C92.4678 35.754 93.355 35.9407 94.252 36.063C96.5772 36.3453 98.9325 35.8971 100.992 34.7806C101.292 34.6154 101.562 34.5313 101.643 34.6274C101.916 34.9578 101.7 36.8709 99.2973 37.2523C97.4226 37.5527 93.1632 36.985 91.3725 36.7238C90.9075 36.6547 90.4456 36.5676 89.9866 36.4685C88.2199 36.084 82.7877 35.0058 79.4731 35.5044C75.4897 36.1051 64.2383 35.0118 64.2383 35.0118C64.2383 35.0118 57.3062 33.5912 54.5196 32.4409C51.733 31.2906 43.8711 32.2817 44.909 36.5466Z" fill="#5F81E9"/>
<path opacity="0.1" d="M75.7574 7.23058C75.4575 6.79809 71.603 3.70761 70.0312 2.4582L72.8658 2.03773C72.952 1.95184 73.0453 1.87347 73.1448 1.80347C75.2055 3.96891 75.7574 7.23058 75.7574 7.23058Z" fill="black"/>
<path opacity="0.1" d="M63.2578 23.8062L62.001 25.6653L66.8063 25.5031L66.9143 23.4248L63.2578 23.8062Z" fill="black"/>
<path opacity="0.1" d="M92.5771 26.0498L93.1231 27.7437L96.1827 28.2363L94.8718 26.212L92.5771 26.0498Z" fill="black"/>
<path opacity="0.1" d="M40.0488 82.9158C40.3758 83.4624 51.1323 97.6323 53.9729 97.2389C56.8135 96.8454 40.0488 82.9158 40.0488 82.9158Z" fill="black"/>
<path opacity="0.1" d="M76.0889 95.8663C76.0889 95.8663 78.7105 98.3832 78.3266 99.3653C77.9426 100.347 76.0889 95.8663 76.0889 95.8663Z" fill="black"/>
<path opacity="0.1" d="M47.4767 113.145C47.4767 113.145 45.182 123.915 46.3849 124.257C47.5877 124.6 47.4767 113.145 47.4767 113.145Z" fill="black"/>
<path opacity="0.1" d="M76.9619 154.97C77.3429 156.063 80.5104 163.172 81.2213 163.554C81.9322 163.935 76.9619 154.97 76.9619 154.97Z" fill="black"/>
<path opacity="0.1" d="M113.765 125.774C113.654 126.155 110.925 128.399 111.525 129.219C112.124 130.039 113.765 125.774 113.765 125.774Z" fill="black"/>
<path opacity="0.1" d="M92.5762 145.729C92.5222 146.005 91.9763 151.735 93.0142 152.838C94.052 153.94 92.5762 145.729 92.5762 145.729Z" fill="black"/>
<path opacity="0.1" d="M120.558 175.498C119.766 175.94 118.947 176.366 118.113 176.774C117.213 177.213 116.313 177.63 115.396 178.024C115.03 178.183 114.664 178.339 114.301 178.489C113.749 178.718 113.203 178.937 112.663 179.147C111.022 179.79 109.441 180.348 108.035 180.82C107.489 181.003 106.967 181.171 106.481 181.328C104.033 182.105 102.407 182.529 102.407 182.529C102.036 182.449 101.656 182.418 101.277 182.436C101.172 182.436 101.064 182.436 100.953 182.436C100.445 182.473 99.9389 182.537 99.4378 182.628C96.0872 183.229 91.3539 184.914 88.5013 186.016C87.0015 186.59 86.0266 187.001 86.0266 187.001L84.1189 187.578L83.801 187.674C81.7343 188.304 78.8277 189.199 77.7808 189.572C76.0891 190.173 61.4001 193.233 61.4001 193.233C60.0582 193.6 58.6874 193.851 57.3027 193.984C53.8906 194.297 50.461 194.376 47.0381 194.218C43.6006 194.44 38.0394 193.684 34.8029 193.173L34.2869 193.092C33.0361 192.888 32.2412 192.74 32.2412 192.74L32.6612 192.161L41.2729 180.264L41.3239 180.192L49.3478 169.113L49.6478 168.71L50.3767 167.704C50.3767 167.704 50.8146 167.104 52.5004 167.065C52.6983 167.065 52.9143 167.065 53.1513 167.065C54.5673 167.179 55.9643 167.464 57.3117 167.914L57.7016 168.032C63.5118 169.699 72.4926 169.281 72.4926 169.281C72.4926 169.281 78.0808 168.38 82.4721 167.839L82.7991 167.797C84.2341 167.594 85.679 167.469 87.1275 167.422C89.8031 167.476 95.5923 166.055 95.5923 166.055C96.8371 165.788 97.3621 165.563 98.064 165.061C98.1569 164.995 98.2559 164.923 98.3639 164.845C98.6639 164.62 99.0088 164.343 99.4528 164.001C100.263 163.379 101.399 162.535 103.187 161.352C103.343 161.25 103.508 161.148 103.685 161.052C103.862 160.956 104.087 160.827 104.303 160.718C106.034 159.897 107.86 159.292 109.738 158.916C111.297 158.581 112.878 158.363 114.469 158.265H114.706C119.205 158.024 123.8 158.796 126.488 161.328C126.958 161.773 127.367 162.278 127.706 162.83C127.87 163.092 128.016 163.365 128.144 163.647C128.389 164.184 128.571 164.749 128.687 165.329C128.709 165.437 128.727 165.545 128.741 165.653C128.741 165.686 128.741 165.716 128.741 165.749C128.741 165.836 128.759 165.923 128.765 166.01C129.005 169.605 125.279 172.855 120.558 175.498Z" fill="black"/>
<path d="M32.2412 192.095C32.2412 192.095 41.9598 193.897 47.0381 193.569C47.0381 193.569 56.3758 194.062 61.4001 192.587C61.4001 192.587 76.098 189.524 77.7808 188.923C79.4636 188.323 86.0266 186.352 86.0266 186.352C86.0266 186.352 98.8049 180.994 102.407 181.868C102.407 181.868 130.693 174.543 128.672 164.647C126.65 154.751 108.796 156.994 103.175 160.709C97.554 164.425 98.3759 164.812 95.5863 165.413C95.5863 165.413 89.7971 166.833 87.1215 166.779C84.4459 166.725 72.4866 168.638 72.4866 168.638C72.4866 168.638 63.0949 169.077 57.3087 167.272C51.5225 165.467 50.3737 167.053 50.3737 167.053L32.2412 192.095Z" fill="#FFA2A2"/>
<path opacity="0.1" d="M53.3161 166.41C53.3176 166.422 53.3176 166.434 53.3161 166.446C53.2952 166.669 53.2374 166.887 53.1451 167.092C51.9933 169.921 45.4542 177.552 45.4542 177.552C45.1561 178.459 44.7963 179.344 44.3774 180.201C43.4763 182.034 42.4385 183.796 41.2728 185.472C39.5448 187.98 37.6582 190.375 35.6246 192.641H35.6096C35.3508 192.834 35.0814 193.011 34.8027 193.173C34.0978 193.594 33.039 194.113 32.0401 194.176C31.87 194.186 31.6994 194.181 31.5302 194.161C31.6352 194.161 31.7371 194.137 31.8301 194.119L31.4642 194.011L30.9632 193.855C30.1234 193.591 29.2905 193.301 28.4646 192.987L27.9637 192.795C27.1638 192.486 26.3809 192.155 25.615 191.8L25.1141 191.572C24.3142 191.2 23.5313 190.806 22.7654 190.392C22.4894 190.248 22.2165 190.092 21.9465 189.944C21.1306 189.488 20.3307 189.009 19.5468 188.509C18.715 187.978 17.9011 187.425 17.1052 186.848C16.5053 185.734 16.0103 184.746 15.7404 184.214C15.2485 183.226 15.2065 181.811 15.2664 180.787C15.2664 180.682 15.2665 180.583 15.2844 180.487C15.3354 179.844 15.4134 179.403 15.4134 179.403C14.969 178.808 14.568 178.181 14.2136 177.528C14.01 177.204 13.8942 176.833 13.8776 176.45C13.8912 176.297 13.877 176.142 13.8357 175.994C13.6047 175.045 12.6118 173.414 11.694 172.39C11.01 171.636 10.9681 168.819 11.034 166.821C11.073 165.62 11.148 164.737 11.148 164.737C11.0136 164.65 10.913 164.52 10.8631 164.368C10.6219 163.71 10.4588 163.027 10.3771 162.331C10.3771 162.232 10.3501 162.133 10.3351 162.031C10.1432 160.652 10.0562 159.268 10.0562 159.268C7.83649 157.649 6.78064 155.123 6.28871 152.871L6.22572 152.57C5.95555 151.186 5.84086 149.776 5.88377 148.366C5.88377 148.23 5.88377 148.128 5.88377 148.065C5.88377 148.002 5.88377 147.99 5.88377 147.99C5.88377 147.99 6.17773 141.482 6.99961 138.941C7.03261 138.833 7.0686 138.734 7.1046 138.641C7.16515 138.481 7.24364 138.329 7.33856 138.187C7.63852 137.788 7.85149 137.034 8.02847 136.142C8.15145 135.523 8.25343 134.835 8.32842 134.151C8.39741 133.58 8.45141 133.012 8.4934 132.487C8.61039 131.081 8.64638 129.985 8.64638 129.985L8.09146 127.246C7.93848 126.498 7.8215 125.744 7.74051 124.99C7.74051 124.891 7.71651 124.792 7.70451 124.69C7.56422 123.298 7.53914 121.896 7.62952 120.5C7.62952 120.398 7.62952 120.299 7.64752 120.2C7.88173 117.02 8.71209 113.912 10.0952 111.04L10.2452 110.739C10.4451 110.339 10.6551 109.945 10.8751 109.559C11.034 109.274 11.202 108.991 11.376 108.712C11.8372 107.964 12.3378 107.241 12.8758 106.546C12.9538 106.444 13.0348 106.345 13.1158 106.246C14.0517 105.084 15.0919 104.011 16.2233 103.038C19.2529 100.432 22.0335 99.2993 24.5591 99.2122C35.6036 98.8217 41.7977 118.38 42.7996 121.807C42.8956 122.137 42.9436 122.317 42.9436 122.317C42.9436 122.317 47.4189 126.801 46.1081 128.768C45.854 129.202 45.6992 129.686 45.6552 130.186C45.2952 132.832 46.3271 137.19 46.3271 137.19C46.3271 137.19 46.693 138.391 47.7609 141.269L48.0758 142.11C48.7447 143.912 48.9007 146.936 48.5168 149.645C48.1478 152.24 47.281 154.535 45.8921 155.123C43.0515 156.325 43.8164 157.526 44.4703 158.514C44.8589 159.222 45.1832 159.964 45.4392 160.731C45.8502 161.839 46.2311 163.004 46.3751 163.458C46.4171 163.584 46.4381 163.653 46.4381 163.653C46.8359 163.499 47.2493 163.388 47.6709 163.322C48.2078 163.247 48.7387 163.301 48.8407 163.761C48.8947 164.007 49.2037 164.299 49.6386 164.59C50.9284 165.479 53.3161 166.41 53.3161 166.41Z" fill="black"/>
<path d="M52.6625 166.41C52.6442 166.638 52.5863 166.862 52.4916 167.071C51.3457 169.903 44.8006 177.552 44.8006 177.552C44.5012 178.459 44.1415 179.343 43.7238 180.201C42.9999 181.681 42.1813 183.113 41.2731 184.487C39.3928 187.327 37.3097 190.027 35.04 192.566L34.971 192.641C34.971 192.641 34.7071 192.843 34.2871 193.101C33.5368 193.581 32.7099 193.928 31.8425 194.128L31.4765 194.02L30.9756 193.864C30.1357 193.599 29.3028 193.31 28.4769 192.996L27.976 192.804C27.1761 192.495 26.3932 192.164 25.6273 191.809L25.1264 191.581C24.3265 191.209 23.5436 190.815 22.7777 190.401C22.5018 190.257 22.2288 190.101 21.9589 189.953C21.143 189.497 20.3431 189.018 19.5592 188.518C18.7273 187.987 17.9134 187.434 17.1175 186.857C16.7496 186.593 16.3856 186.321 16.0257 186.043C15.6207 185.274 15.2968 184.625 15.0958 184.223C14.6039 183.235 14.5619 181.82 14.6219 180.796C14.6219 180.691 14.6219 180.592 14.6399 180.496C14.6909 179.853 14.7689 179.412 14.7689 179.412C14.7689 179.412 14.5259 179.084 14.2319 178.64C14.067 178.393 13.89 178.108 13.731 177.826C13.4311 177.297 13.1971 176.763 13.2421 176.459C13.2482 176.407 13.2482 176.355 13.2421 176.303C13.2376 176.202 13.2225 176.101 13.1971 176.003C12.9661 175.054 11.9703 173.423 11.0524 172.399C10.3685 171.645 10.3265 168.828 10.3895 166.83C10.3895 166.728 10.3895 166.629 10.3895 166.53C10.4315 165.494 10.4945 164.746 10.4945 164.746C10.1555 164.599 9.89455 163.509 9.72657 162.343L9.68158 162.043C9.4896 160.664 9.40262 159.28 9.40262 159.28C7.18293 157.661 6.12708 155.135 5.63814 152.883C5.29752 151.305 5.16641 149.689 5.2482 148.077C5.2482 148.029 5.2482 148.002 5.2482 148.002C5.2482 148.002 5.50616 141.461 6.32805 138.917C6.36104 138.809 6.39704 138.71 6.43303 138.617C6.50501 138.461 6.59458 138.314 6.7 138.178C7.15593 137.541 7.45889 136.01 7.65686 134.442L7.69286 134.142C7.94182 132.039 8.01081 129.976 8.01081 129.976L7.45289 127.237C7.30091 126.486 7.18393 125.734 7.10194 124.981C7.08694 124.882 7.07794 124.78 7.06594 124.681C6.92568 123.289 6.9006 121.887 6.99095 120.491C6.99095 120.389 6.99095 120.29 7.01195 120.191C7.24474 117.01 8.07517 113.902 9.45961 111.03C9.5076 110.928 9.55559 110.829 9.60959 110.73C9.99526 109.95 10.4239 109.192 10.8934 108.46C11.0554 108.204 11.2204 107.952 11.3943 107.703C11.6673 107.306 11.9523 106.916 12.2492 106.537L12.4892 106.237C13.4172 105.08 14.4483 104.009 15.5698 103.039C18.8693 100.206 21.8689 99.1131 24.5685 99.2122C35.202 99.5936 41.1712 118.449 42.152 121.807C42.248 122.137 42.296 122.317 42.296 122.317C42.296 122.317 46.7744 126.801 45.4636 128.768C45.2094 129.202 45.0547 129.686 45.0106 130.186C44.6477 132.832 45.6825 137.19 45.6825 137.19C45.6825 137.19 46.0485 138.391 47.1163 141.269C47.2123 141.536 47.3173 141.815 47.4163 142.11C48.0852 143.912 48.2412 146.936 47.8572 149.645C47.4883 152.243 46.6244 154.534 45.2326 155.123C42.395 156.325 43.1569 157.526 43.8138 158.514C44.2024 159.222 44.5266 159.964 44.7826 160.73C45.3016 162.145 45.7785 163.653 45.7785 163.653C45.9748 163.577 46.1751 163.512 46.3784 163.458C46.7957 163.32 47.2376 163.274 47.6742 163.322C47.7951 163.332 47.9098 163.379 48.002 163.458C48.0941 163.537 48.159 163.643 48.1872 163.761C48.2682 164.121 48.8891 164.569 49.642 164.992C50.6196 165.525 51.6282 165.998 52.6625 166.41Z" fill="#CED7E7"/>
<path opacity="0.1" d="M13.1826 137.529C14.2205 137.475 25.3609 133.156 27.6556 134.631C29.9503 136.106 44.1533 145.674 44.1533 145.674C44.1533 145.674 35.2535 134.03 27.4996 131.297C19.7457 128.564 13.1826 137.529 13.1826 137.529Z" fill="black"/>
<path opacity="0.1" d="M29.1963 155.135C29.1963 155.135 40.3367 157.376 42.0285 158.907L29.1963 155.135Z" fill="black"/>
<path opacity="0.1" d="M27.0502 171.816C26.8882 171.981 22.8508 181.054 23.1747 181.054C23.4987 181.054 26.9422 175.648 26.9422 175.648L27.0502 171.816Z" fill="black"/>
<path opacity="0.1" d="M34.6422 160.929C34.6422 160.929 31.3667 162.079 31.7476 162.187C32.1286 162.295 34.5312 161.421 34.6422 160.929Z" fill="black"/>
<path opacity="0.1" d="M31.3672 174.654C31.9131 175.801 33.6589 179.246 34.0428 178.7C34.4268 178.153 31.3672 174.654 31.3672 174.654Z" fill="black"/>
<path opacity="0.1" d="M72.2575 83.7177L71.7895 84.3844C71.7895 84.3844 68.0731 81.7625 66.5463 80.45C65.0195 79.1375 61.414 85.1503 58.5734 86.7901C55.7328 88.43 50.9305 88.8685 50.9305 88.8685C50.9305 88.8685 47.217 85.1503 47.331 84.063C47.445 82.9758 45.5852 82.6424 45.4742 81.8766C45.3632 81.1107 44.7093 78.9243 43.8365 77.831C43.3745 77.2544 43.3085 75.4493 43.3505 73.8786C43.6505 73.8185 43.8365 73.7855 43.8365 73.7855C44.3027 72.9372 44.892 72.1629 45.5852 71.4879C46.5691 70.6139 48.0959 65.2559 48.0959 65.2559C48.9687 62.3035 50.7145 63.1775 50.7145 63.1775C50.7145 67.6616 55.3038 69.3014 57.5955 71.1605C59.8872 73.0196 63.4927 77.831 66.3333 78.8161C68.664 79.612 71.3906 82.6905 72.2575 83.7177Z" fill="black"/>
<path d="M72.2588 83.06L71.7909 83.7297C71.7909 83.7297 68.0594 81.1138 66.5326 79.7923C65.0058 78.4708 61.4003 84.4926 58.5597 86.1324C55.7191 87.7723 50.9168 88.2138 50.9168 88.2138C50.9168 88.2138 47.2033 84.4926 47.3173 83.4084C47.4313 82.3241 45.5715 81.9878 45.4606 81.2189C45.3496 80.45 44.6957 78.2666 43.8228 77.1733C43.3609 76.5967 43.2949 74.7917 43.3369 73.2209L43.8228 73.1308C44.289 72.2825 44.8783 71.5082 45.5715 70.8332C46.5554 69.9562 48.0822 64.6012 48.0822 64.6012C48.9551 61.6489 50.7008 62.5198 50.7008 62.5198C50.7008 67.0039 55.2902 68.6467 57.5819 70.5058C59.8735 72.3649 63.479 77.1733 66.3196 78.1584C68.6653 78.9664 71.3919 82.0328 72.2588 83.06Z" fill="#CED7E7"/>
<path opacity="0.1" d="M72.5383 83.949C72.5383 83.949 69.3198 85.697 66.8061 85.8622C66.4771 85.8775 66.1473 85.8584 65.8223 85.8051C65.8223 85.8051 68.5969 83.7298 71.1735 83.3063L72.5383 83.949Z" fill="black"/>
<path opacity="0.1" d="M79.0916 92.8599C79.0916 92.8599 75.0332 91.2772 73.6924 93.6588C73.7374 92.5656 73.7554 91.6586 73.7554 91.6586L78.1798 90.7816C78.1798 90.7816 78.6057 91.5715 79.1036 92.6347C79.0916 92.7759 79.0916 92.8599 79.0916 92.8599Z" fill="black"/>
<path d="M65.8223 85.805C65.8223 85.805 70.6846 82.8827 73.0213 83.129C75.4719 83.3843 80.2202 83.5645 80.2202 83.5645C80.2202 83.5645 78.5825 87.2827 78.8014 88.0485C79.0204 88.8144 79.0744 92.5326 79.0744 92.5326C79.0744 92.5326 74.1611 90.6194 73.3422 94.1724C73.3422 94.1724 70.6666 90.1809 68.8638 88.9766C67.6676 88.1113 66.6373 87.0368 65.8223 85.805Z" fill="#63667E"/>
<path opacity="0.1" d="M93.2887 89.1989C91.8699 89.1989 86.8456 86.0243 85.7537 83.949C84.6619 81.8737 83.1321 84.1652 81.7133 84.9341C80.8134 85.4267 77.2469 84.3965 75.3242 83.6487C76.2991 82.9849 78.4588 81.1168 79.0917 80.6693C79.8536 80.1197 80.6215 71.2627 80.6215 71.2627C83.3511 69.8421 86.2997 82.7446 86.2997 82.7446C86.2997 82.7446 91.4349 84.2764 91.8699 85.3696C91.9539 85.5858 92.3408 85.9703 92.9227 86.4358C93.5227 87.9495 93.8526 89.1989 93.2887 89.1989Z" fill="black"/>
<path d="M93.2868 88.5411C91.868 88.5411 86.8437 85.3695 85.7519 83.2942C84.66 81.2188 83.1303 83.5104 81.7115 84.2763C80.8116 84.7688 77.953 83.8168 76.0303 83.0749C77.0051 82.4142 78.4569 80.468 79.0898 80.0175C79.8517 79.4709 80.6196 70.6139 80.6196 70.6139C83.3492 69.1933 86.2978 82.0958 86.2978 82.0958C86.2978 82.0958 91.4331 83.6276 91.868 84.7208C91.952 84.937 92.339 85.3215 92.9209 85.787C93.5208 87.2917 93.8508 88.5411 93.2868 88.5411Z" fill="#CED7E7"/>
<path d="M112.692 184.34L160.178 144.695C160.652 144.294 161.256 144.081 161.876 144.095L179.592 144.56C179.592 144.56 180.818 145.461 179.019 147.431L134.223 184.238C133.739 184.634 133.138 184.86 132.513 184.881L113.142 185.523C113.003 185.528 112.866 185.488 112.75 185.411C112.634 185.334 112.545 185.222 112.496 185.092C112.446 184.962 112.439 184.819 112.474 184.685C112.509 184.55 112.585 184.429 112.692 184.34Z" fill="#3C64B1"/>
<path d="M135.663 179.463C135.663 179.463 146.036 194.335 157.56 180.502C169.084 166.668 165.752 159.4 162.257 159.015C158.763 158.631 139.101 173.777 135.663 179.463Z" fill="#FFA2A2"/>
<path d="M315.454 218.832C314.29 212.36 313.577 205.816 313.318 199.247V199.247C313.09 193.836 311.193 188.628 307.887 184.338C304.581 180.048 300.029 176.887 294.855 175.287C292.971 174.707 290.893 174.165 288.602 173.679C268.502 169.41 262.396 173.137 261.702 173.627C261.117 172.557 260.609 171.446 260.181 170.304C260.147 170.187 260.115 170.069 260.082 169.952C264.06 165.71 266.483 160.245 266.957 154.449C270.31 151.049 272.269 146.948 272.269 142.532C272.269 138.734 270.818 135.169 268.28 132.083V126.09C268.28 122.662 267.605 119.268 266.294 116.101C264.982 112.935 263.059 110.058 260.636 107.634C258.212 105.21 255.335 103.288 252.168 101.976C249.001 100.664 245.607 99.9893 242.18 99.9893H240.063C236.636 99.9893 233.242 100.664 230.075 101.976C226.908 103.288 224.031 105.21 221.607 107.634C219.184 110.058 217.261 112.935 215.95 116.101C214.638 119.268 213.963 122.662 213.963 126.09V132.559C211.675 135.384 210.404 138.897 210.354 142.532C210.354 146.855 212.233 150.876 215.458 154.233C215.898 160.242 218.433 165.906 222.621 170.238C222.762 171.218 222.907 172.273 223.05 173.385L187.089 180.991C187.089 180.991 173.225 181.56 164.298 199.983C156.742 215.579 141.699 255.674 137.261 267.61H137.261L137.261 267.61C136.457 269.773 136 271.013 136 271.013C136 271.013 136.147 270.865 136.43 270.61C136.15 271.365 136 271.773 136 271.773C136 271.773 136.218 271.553 136.633 271.19C136.003 276.185 135.913 284.759 142.457 285.827C147.943 286.723 162.072 287.091 172.75 287.242V287.252H173.49C180.566 287.347 185.949 287.347 185.949 287.347V287.252H300.757V286.075C300.758 285.006 300.543 283.949 300.124 282.965C300.179 282.902 300.233 282.838 300.284 282.773C300.898 283.585 301.307 284.532 301.475 285.536C301.463 285.634 301.445 285.731 301.422 285.827C301.422 285.827 301.445 285.766 301.489 285.652C301.517 285.965 301.494 286.281 301.422 286.587C301.422 286.587 316.151 248.634 315.994 225.972C316.037 223.581 315.856 221.19 315.454 218.832ZM223.639 178.51C223.449 177.428 223.328 176.335 223.274 175.237L223.275 175.207C223.402 176.272 223.525 177.377 223.639 178.51ZM179.017 260.03V269.075L173.347 270.286L179.017 260.03Z" fill="url(#paint0_linear)"/>
<path d="M240.532 103.64H240.532C247.454 103.64 254.093 106.39 258.988 111.284C263.883 116.179 266.633 122.818 266.633 129.74V140.874H214.432V129.74C214.432 122.818 217.182 116.179 222.076 111.284C226.971 106.39 233.61 103.64 240.532 103.64Z" fill="#5F81E9"/>
<path d="M240.715 164.967C257.146 164.967 270.466 155.814 270.466 144.524C270.466 133.234 257.146 124.082 240.715 124.082C224.284 124.082 210.964 133.234 210.964 144.524C210.964 155.814 224.284 164.967 240.715 164.967Z" fill="#5F81E9"/>
<path d="M221.641 164.328C221.641 164.328 227.847 196.816 221.641 205.577C215.435 214.338 240.623 217.806 240.623 217.806L266.723 208.315L270.374 184.953C270.374 184.953 254.495 176.009 257.78 157.94L221.641 164.328Z" fill="#D7A487"/>
<path d="M298.664 273.84C298.664 273.84 300.307 280.958 291.364 282.236C286.082 283.013 280.711 282.949 275.449 282.047L273.477 264.167H294.284L298.664 273.84Z" fill="#D7A487"/>
<path d="M140.719 264.729C140.719 264.729 136.77 280.776 145.713 282.236C154.657 283.696 187.51 283.696 187.51 283.696V264.714L172.638 267.891L158.672 254.493L140.719 264.729Z" fill="#D7A487"/>
<path opacity="0.1" d="M223.559 174.823L188.606 182.215C188.606 182.215 175.282 182.762 166.703 200.467C158.125 218.171 139.508 268.73 139.508 268.73C139.508 268.73 155.387 252.668 174.004 269.825L186.416 247.375L183.678 282.966H279.866V266.174C279.866 266.174 299.943 276.943 298.483 282.966C298.483 282.966 315.664 238.699 311.969 218.581C310.851 212.362 310.165 206.073 309.916 199.759V199.759C309.697 194.559 307.874 189.554 304.697 185.432C301.52 181.309 297.145 178.271 292.173 176.733C290.362 176.176 288.365 175.655 286.163 175.188C265.538 170.807 260.245 175.188 260.245 175.188C260.245 175.188 256.25 188.187 256.321 194.079C256.412 201.653 245.552 206.673 245.552 206.673C245.552 206.673 229.49 202.84 228.76 199.737C228.03 196.634 222.281 178.473 223.559 174.823Z" fill="black"/>
<path d="M223.559 174.093L188.606 181.485C188.606 181.485 175.282 182.032 166.703 199.737C158.125 217.441 139.508 268 139.508 268C139.508 268 155.387 251.938 174.004 269.095L186.416 246.645L183.678 282.236H279.866V265.444C279.866 265.444 299.943 276.213 298.483 282.236C298.483 282.236 315.664 237.969 311.969 217.851C310.851 211.632 310.165 205.343 309.916 199.029V199.029C309.697 193.829 307.874 188.824 304.697 184.702C301.52 180.579 297.145 177.541 292.173 176.003C290.362 175.446 288.365 174.925 286.163 174.458C265.538 170.077 260.245 174.458 260.245 174.458C260.245 174.458 256.25 187.457 256.321 193.349C256.412 200.923 245.552 205.943 245.552 205.943C245.552 205.943 229.49 202.11 228.76 199.007C228.03 195.904 222.281 177.743 223.559 174.093Z" fill="#313444"/>
<path opacity="0.1" d="M259.281 172.542C257.813 168.384 257.484 163.91 258.329 159.582L222.189 165.971C222.189 165.971 222.711 168.702 223.301 172.793C225.636 175.217 228.44 177.14 231.542 178.446C234.644 179.751 237.979 180.413 241.345 180.389C244.71 180.365 248.036 179.658 251.119 178.309C254.203 176.96 256.98 174.997 259.281 172.542Z" fill="black"/>
<path d="M265.447 153.924C265.447 160.456 262.873 166.724 258.283 171.37C253.693 176.016 247.457 178.666 240.926 178.745C234.395 178.825 228.096 176.327 223.394 171.793C218.693 167.26 215.967 161.056 215.809 154.527C215.804 154.326 215.802 154.125 215.802 153.924C215.801 149.276 217.105 144.722 219.565 140.778C222.025 136.835 225.542 133.661 229.717 131.618C230.462 131.255 231.227 130.928 232.011 130.636C236.097 129.135 240.505 128.726 244.797 129.45C244.8 129.452 244.803 129.452 244.806 129.452C250.304 130.388 255.327 133.15 259.062 137.292C262.797 141.434 265.028 146.714 265.393 152.28C265.429 152.824 265.447 153.372 265.447 153.924Z" fill="#D7A487"/>
<g opacity="0.1">
<path opacity="0.1" d="M231.975 131.219C231.986 131.211 231.998 131.203 232.009 131.197C231.225 131.487 230.46 131.814 229.715 132.179C225.54 134.222 222.023 137.395 219.563 141.339C217.103 145.282 215.799 149.837 215.8 154.485C215.8 154.685 215.802 154.886 215.807 155.087C216.579 155.066 217.337 154.884 218.034 154.552C224.086 151.728 227.717 143.086 229.142 137.059C229.653 134.902 230.142 132.471 231.975 131.219Z" fill="black"/>
<path opacity="0.1" d="M250.975 131.916C249.01 131.013 246.935 130.373 244.804 130.012C246.552 130.414 248.114 131.395 249.235 132.796C249.785 133.543 250.24 134.356 250.592 135.214C247.289 133.77 243.711 133.06 240.106 133.135C236.501 133.21 232.956 134.067 229.715 135.647C231.274 139.062 236.105 140.925 239.33 142.172C242.862 143.535 246.435 144.782 250.049 145.912C248.985 145.047 247.921 144.183 246.857 143.32C249.259 143.701 251.662 144.083 254.065 144.466C254.143 143.031 253.973 141.594 253.562 140.217C254.934 141.33 256.774 141.703 258.272 142.648C261.081 144.419 262.249 147.835 263.78 150.781C264.135 151.592 264.689 152.301 265.39 152.84C265.094 148.378 263.599 144.078 261.061 140.395C258.524 136.712 255.039 133.782 250.975 131.916Z" fill="black"/>
</g>
<path d="M231.977 130.658C231.988 130.65 231.999 130.643 232.011 130.636C231.227 130.926 230.462 131.254 229.717 131.618C225.542 133.661 222.025 136.835 219.565 140.778C217.105 144.722 215.801 149.276 215.802 153.924C215.802 154.125 215.804 154.326 215.809 154.526C216.581 154.506 217.339 154.324 218.036 153.992C224.088 151.168 227.719 142.526 229.144 136.499C229.655 134.341 230.144 131.91 231.977 130.658Z" fill="#313444"/>
<path d="M250.976 131.355C249.011 130.453 246.936 129.813 244.805 129.452C246.553 129.854 248.115 130.835 249.236 132.235C249.786 132.983 250.241 133.795 250.593 134.654C247.289 133.209 243.712 132.5 240.107 132.575C236.502 132.649 232.957 133.506 229.716 135.086C231.275 138.501 236.106 140.365 239.331 141.611C242.863 142.975 246.436 144.221 250.05 145.351C248.986 144.486 247.922 143.622 246.858 142.759C249.26 143.141 251.663 143.523 254.066 143.906C254.144 142.471 253.974 141.034 253.563 139.657C254.935 140.769 256.775 141.142 258.273 142.088C261.082 143.858 262.25 147.275 263.781 150.221C264.136 151.032 264.69 151.74 265.391 152.28C265.095 147.817 263.6 143.517 261.062 139.834C258.525 136.151 255.04 133.222 250.976 131.355Z" fill="#313444"/>
<path opacity="0.1" d="M212.972 149.83C212.972 149.83 238.525 118.072 268.093 149.83L265.538 142.712C265.538 142.712 251.666 122.452 241.81 126.833C231.954 131.213 222.28 134.316 222.28 134.316L212.972 149.83Z" fill="black"/>
<path d="M212.972 149.27C212.972 149.27 238.525 117.511 268.093 149.27L265.538 142.151C265.538 142.151 251.666 121.892 241.81 126.272C231.954 130.653 222.28 133.756 222.28 133.756L212.972 149.27Z" fill="#5F81E9"/>
<path opacity="0.1" d="M191.982 217.715C191.982 217.715 186.506 232.317 194.172 245.458C201.838 258.6 187.419 264.075 187.419 264.075" fill="black"/>
<path opacity="0.1" d="M280.687 204.573C280.687 204.573 290.178 216.62 283.973 227.389C277.767 238.157 278.132 264.075 278.132 264.075" fill="black"/>
<path d="M183.586 274.844H289.083C291.407 274.844 293.635 275.767 295.278 277.41C296.921 279.053 297.844 281.281 297.844 283.605H174.825C174.825 281.281 175.748 279.053 177.391 277.41C179.034 275.767 181.263 274.844 183.586 274.844H183.586Z" fill="#535461"/>
<path d="M199.456 214.612H273.214C278.149 214.612 282.882 216.573 286.371 220.062C289.861 223.552 291.821 228.285 291.821 233.219V276.852H180.849V233.219C180.849 228.285 182.809 223.552 186.299 220.062C189.788 216.573 194.521 214.612 199.456 214.612Z" fill="#535461"/>
<path d="M236.243 255.041C239.872 255.041 242.813 252.099 242.813 248.47C242.813 244.841 239.872 241.899 236.243 241.899C232.614 241.899 229.672 244.841 229.672 248.47C229.672 252.099 232.614 255.041 236.243 255.041Z" fill="white"/>
<path opacity="0.1" d="M214.432 134.94C214.432 134.94 239.546 109.839 266.633 134.482" stroke="black" stroke-miterlimit="10"/>
<path d="M272.979 133.341H270.457V147.634H272.979V133.341Z" fill="#3C64B1"/>
<path d="M267.095 142.589C269.399 142.589 271.609 143.505 273.238 145.134C274.868 146.764 275.783 148.973 275.783 151.278V151.838C275.783 154.142 274.868 156.352 273.238 157.982C271.609 159.611 269.399 160.526 267.095 160.526V142.589Z" fill="#B4C9FA"/>
<path d="M267.373 141.749H267.373C266.289 141.749 265.411 142.627 265.411 143.711V159.405C265.411 160.489 266.289 161.367 267.373 161.367H267.373C268.456 161.367 269.335 160.489 269.335 159.405V143.711C269.335 142.627 268.456 141.749 267.373 141.749Z" fill="#3C64B1"/>
<path d="M207.827 147.915H210.35V133.621H207.827V147.915Z" fill="#3C64B1"/>
<path d="M213.713 160.807C211.409 160.807 209.199 159.892 207.569 158.262C205.94 156.633 205.025 154.423 205.025 152.119V151.558C205.025 149.254 205.94 147.044 207.569 145.415C209.199 143.785 211.409 142.87 213.713 142.87V160.807Z" fill="#B4C9FA"/>
<path d="M213.433 161.648H213.433C214.516 161.648 215.395 160.769 215.395 159.686V143.991C215.395 142.907 214.516 142.029 213.433 142.029H213.433C212.349 142.029 211.471 142.907 211.471 143.991V159.686C211.471 160.769 212.349 161.648 213.433 161.648Z" fill="#3C64B1"/>
<path d="M270.158 118.063C266.743 110.962 259.304 102.376 243.27 101.69L243.271 101.671L243.079 101.68L243.066 101.679L243.066 101.681L237.386 101.951L237.386 101.979C221.457 102.712 214.054 111.264 210.649 118.343C208.385 123.139 207.184 128.367 207.128 133.669L209.089 133.621L211.051 133.576C211.136 128.85 212.225 124.195 214.245 119.921C218.569 111.04 226.525 106.316 237.892 105.88L237.892 105.877L242.916 105.599L242.916 105.6C254.282 106.036 262.238 110.76 266.563 119.641C268.582 123.915 269.671 128.569 269.757 133.296L271.718 133.341L273.679 133.389C273.623 128.086 272.422 122.858 270.158 118.063Z" fill="#B4C9FA"/>
<defs>
<linearGradient id="paint0_linear" x1="64155.5" y1="129690" x2="64155.5" y2="56115.8" gradientUnits="userSpaceOnUse">
<stop stop-color="#808080" stop-opacity="0.25"/>
<stop offset="0.53514" stop-color="#808080" stop-opacity="0.12"/>
<stop offset="1" stop-color="#808080" stop-opacity="0.1"/>
</linearGradient>
</defs>
</svg>
