<svg width="552" height="543" viewBox="0 0 552 543" fill="none" xmlns="http://www.w3.org/2000/svg">
<rect opacity="0.2" x="69" y="75" width="471.263" height="436.094" rx="20" fill="#B4BBFA"/>
<path d="M414.334 91.4967C414.334 91.4967 348.626 78.4685 344.285 115.525C339.943 152.582 361.65 213.617 344.285 233.236M292.188 370.565C281.334 382.19 243.347 389.456 249.859 397.449C256.371 405.442 280.249 409.801 268.31 418.521C256.371 427.24 221.761 447.074 235.267 446.966" stroke="#5F81E9" stroke-width="3" stroke-miterlimit="10" stroke-dasharray="10 10"/>
<path d="M248.223 448.384C246.614 439.433 245.627 430.382 245.269 421.294V421.294C244.953 413.81 242.329 406.606 237.756 400.673C233.184 394.739 226.887 390.365 219.73 388.153C217.124 387.351 214.25 386.601 211.081 385.928C183.279 380.023 174.833 385.179 173.873 385.857C173.064 384.376 172.361 382.84 171.769 381.26C171.721 381.099 171.678 380.936 171.632 380.773C177.134 374.905 180.486 367.346 181.142 359.329C185.779 354.627 188.489 348.953 188.489 342.845C188.489 337.592 186.483 332.661 182.972 328.392V320.102C182.972 315.361 182.038 310.667 180.224 306.287C178.41 301.907 175.75 297.927 172.398 294.574C169.045 291.222 165.065 288.562 160.685 286.748C156.305 284.934 151.611 284 146.87 284H143.942C139.201 284 134.506 284.934 130.126 286.748C125.746 288.562 121.766 291.222 118.413 294.574C115.061 297.927 112.402 301.906 110.587 306.287C108.773 310.667 107.839 315.361 107.839 320.102V329.051C104.675 332.959 102.917 337.817 102.848 342.845C102.848 348.825 105.447 354.387 109.907 359.031C110.517 367.342 114.023 375.177 119.815 381.169C120.011 382.524 120.211 383.984 120.409 385.523L70.6669 396.042C70.6669 396.042 51.4896 396.831 39.1426 422.313C28.69 443.885 7.88306 499.345 1.74419 515.856H1.74415L1.74411 515.856C0.631592 518.848 0 520.563 0 520.563C0 520.563 0.203572 520.357 0.594299 520.006C0.207994 521.049 0 521.614 0 521.614C0 521.614 0.301953 521.309 0.875644 520.807C0.00441717 527.717 -0.119938 539.576 8.93186 541.054C16.5195 542.293 36.0635 542.801 50.8328 543.01V543.024H51.8571C61.6441 543.155 69.0906 543.156 69.0906 543.156V543.024H227.894V541.397C227.896 539.918 227.598 538.455 227.019 537.095C227.095 537.007 227.169 536.919 227.24 536.83C228.09 537.952 228.655 539.263 228.888 540.651C228.87 540.786 228.846 540.921 228.814 541.054C228.814 541.054 228.846 540.97 228.907 540.811C228.945 541.244 228.913 541.681 228.814 542.105C228.814 542.105 249.188 489.607 248.97 458.262C249.029 454.953 248.779 451.646 248.223 448.384ZM121.223 392.611C120.961 391.114 120.793 389.602 120.719 388.084L120.721 388.042C120.896 389.516 121.066 391.044 121.223 392.611ZM59.502 505.371V517.882L51.659 519.558L59.502 505.371Z" fill="url(#paint0_linear)"/>
<path d="M144.591 289.049H144.591C154.166 289.049 163.349 292.853 170.119 299.623C176.89 306.394 180.693 315.577 180.693 325.152V340.552H108.488V325.152C108.488 315.577 112.292 306.394 119.062 299.623C125.833 292.853 135.016 289.049 144.591 289.049Z" fill="#5F81E9"/>
<path d="M144.843 373.878C167.571 373.878 185.995 361.218 185.995 345.602C185.995 329.985 167.571 317.325 144.843 317.325C122.116 317.325 103.691 329.985 103.691 345.602C103.691 361.218 122.116 373.878 144.843 373.878Z" fill="#5F81E9"/>
<path d="M118.46 372.994C118.46 372.994 127.044 417.933 118.46 430.051C109.876 442.169 144.717 446.966 144.717 446.966L180.819 433.838L185.868 401.523C185.868 401.523 163.904 389.152 168.448 364.158L118.46 372.994Z" fill="#D7A487"/>
<path d="M225.001 524.473C225.001 524.473 227.274 534.319 214.903 536.087C207.597 537.161 200.168 537.073 192.89 535.824L190.161 511.093H218.942L225.001 524.473Z" fill="#D7A487"/>
<path d="M6.52785 511.87C6.52785 511.87 1.06467 534.067 13.4355 536.086C25.8063 538.106 71.25 538.106 71.25 538.106V511.85L50.678 516.244L31.3605 497.712L6.52785 511.87Z" fill="#D7A487"/>
<path opacity="0.1" d="M121.112 387.511L72.7647 397.736C72.7647 397.736 54.3347 398.493 42.4689 422.982C30.603 447.471 4.85156 517.404 4.85156 517.404C4.85156 517.404 26.816 495.187 52.5675 518.919L69.7351 487.866L65.9481 537.096H198.997V513.87C198.997 513.87 226.768 528.765 224.749 537.096C224.749 537.096 248.513 475.866 243.402 448.038C241.856 439.436 240.907 430.737 240.563 422.003V422.003C240.259 414.81 237.738 407.888 233.343 402.185C228.949 396.483 222.898 392.28 216.02 390.153C213.515 389.383 210.753 388.663 207.707 388.016C179.179 381.956 171.857 388.016 171.857 388.016C171.857 388.016 166.331 405.997 166.429 414.146C166.556 424.623 151.534 431.566 151.534 431.566C151.534 431.566 129.317 426.264 128.307 421.972C127.297 417.68 119.345 392.56 121.112 387.511Z" fill="black"/>
<path d="M121.112 386.501L72.7647 396.726C72.7647 396.726 54.3347 397.483 42.4689 421.972C30.6031 446.461 4.85156 516.394 4.85156 516.394C4.85156 516.394 26.816 494.177 52.5675 517.909L69.7351 486.856L65.9481 536.087H198.997V512.86C198.997 512.86 226.768 527.755 224.749 536.087C224.749 536.087 248.513 474.856 243.402 447.028C241.856 438.426 240.907 429.727 240.563 420.993V420.993C240.259 413.801 237.738 406.878 233.343 401.175C228.949 395.473 222.898 391.27 216.02 389.143C213.515 388.373 210.753 387.653 207.707 387.006C179.179 380.947 171.857 387.006 171.857 387.006C171.857 387.006 166.331 404.987 166.429 413.136C166.556 423.613 151.534 430.556 151.534 430.556C151.534 430.556 129.317 425.254 128.307 420.962C127.297 416.67 119.345 391.55 121.112 386.501Z" fill="#313444"/>
<path opacity="0.1" d="M170.523 384.355C168.492 378.605 168.038 372.416 169.206 366.43L119.218 375.266C119.218 375.266 119.939 379.044 120.755 384.704C123.985 388.056 127.864 390.716 132.155 392.522C136.445 394.328 141.059 395.243 145.714 395.21C150.369 395.177 154.969 394.198 159.234 392.332C163.499 390.466 167.34 387.752 170.523 384.355Z" fill="black"/>
<path d="M179.052 358.604C179.052 367.638 175.492 376.308 169.143 382.735C162.793 389.161 154.167 392.827 145.134 392.937C136.1 393.046 127.387 389.591 120.884 383.32C114.381 377.049 110.611 368.468 110.392 359.437C110.384 359.159 110.382 358.881 110.382 358.604C110.381 352.175 112.184 345.875 115.587 340.42C118.99 334.965 123.855 330.576 129.63 327.75C130.66 327.247 131.718 326.795 132.803 326.392C138.455 324.314 144.551 323.748 150.489 324.751C150.492 324.753 150.497 324.754 150.501 324.753C158.106 326.048 165.053 329.869 170.22 335.598C175.387 341.327 178.472 348.631 178.977 356.329C179.027 357.081 179.052 357.839 179.052 358.604Z" fill="#D7A487"/>
<g opacity="0.1">
<path opacity="0.1" d="M132.754 327.197C132.77 327.186 132.786 327.176 132.802 327.167C131.717 327.568 130.659 328.021 129.629 328.525C123.854 331.351 118.989 335.741 115.586 341.195C112.183 346.65 110.38 352.95 110.381 359.379C110.381 359.656 110.383 359.934 110.391 360.212C111.458 360.184 112.507 359.932 113.471 359.472C121.843 355.566 126.864 343.612 128.836 335.276C129.543 332.292 130.22 328.929 132.754 327.197Z" fill="black"/>
<path opacity="0.1" d="M159.036 328.161C156.319 326.913 153.449 326.027 150.5 325.528C152.919 326.084 155.079 327.441 156.63 329.378C157.39 330.413 158.02 331.536 158.507 332.724C153.937 330.726 148.988 329.745 144.002 329.848C139.016 329.951 134.112 331.137 129.629 333.322C131.785 338.046 138.468 340.623 142.929 342.348C147.814 344.233 152.756 345.958 157.756 347.521C156.284 346.324 154.812 345.129 153.34 343.936C156.663 344.463 159.986 344.992 163.31 345.521C163.418 343.537 163.183 341.548 162.614 339.644C164.512 341.183 167.057 341.699 169.13 343.006C173.015 345.455 174.631 350.182 176.749 354.256C177.239 355.378 178.005 356.358 178.976 357.104C178.566 350.931 176.498 344.984 172.988 339.889C169.478 334.795 164.658 330.743 159.036 328.161Z" fill="black"/>
</g>
<path d="M132.755 326.422C132.771 326.411 132.787 326.401 132.803 326.391C131.718 326.793 130.66 327.246 129.63 327.75C123.855 330.575 118.99 334.965 115.587 340.42C112.184 345.874 110.381 352.174 110.382 358.603C110.382 358.881 110.384 359.159 110.392 359.437C111.459 359.408 112.508 359.156 113.472 358.697C121.844 354.791 126.865 342.837 128.837 334.501C129.544 331.516 130.221 328.154 132.755 326.422Z" fill="#313444"/>
<path d="M159.036 327.386C156.319 326.137 153.449 325.252 150.5 324.753C152.919 325.309 155.079 326.666 156.63 328.603C157.39 329.637 158.02 330.761 158.507 331.948C153.937 329.95 148.988 328.969 144.002 329.072C139.016 329.176 134.112 330.361 129.629 332.547C131.785 337.27 138.468 339.848 142.929 341.572C147.814 343.458 152.756 345.182 157.756 346.745C156.284 345.549 154.812 344.354 153.34 343.16C156.663 343.688 159.986 344.216 163.31 344.746C163.418 342.761 163.183 340.773 162.614 338.869C164.512 340.408 167.057 340.924 169.13 342.231C173.015 344.68 174.631 349.406 176.749 353.481C177.239 354.603 178.005 355.582 178.976 356.329C178.566 350.156 176.498 344.208 172.988 339.114C169.478 334.02 164.658 329.968 159.036 327.386Z" fill="#313444"/>
<path opacity="0.1" d="M106.469 352.941C106.469 352.941 141.814 309.012 182.713 352.941L179.179 343.095C179.179 343.095 159.991 315.071 146.358 321.13C132.725 327.189 119.344 331.481 119.344 331.481L106.469 352.941Z" fill="black"/>
<path d="M106.469 352.166C106.469 352.166 141.814 308.237 182.713 352.166L179.179 342.319C179.179 342.319 159.991 314.296 146.358 320.355C132.725 326.414 119.344 330.706 119.344 330.706L106.469 352.166Z" fill="#5F81E9"/>
<path opacity="0.1" d="M77.4347 446.84C77.4347 446.84 69.8607 467.037 80.4643 485.215C91.0678 503.392 71.123 510.966 71.123 510.966" fill="black"/>
<path opacity="0.1" d="M200.134 428.662C200.134 428.662 213.262 445.325 204.678 460.221C196.094 475.116 196.599 510.966 196.599 510.966" fill="black"/>
<path d="M65.8214 525.862H211.746C214.96 525.862 218.043 527.138 220.315 529.411C222.588 531.684 223.865 534.766 223.865 537.98H53.7031C53.7031 534.766 54.9799 531.684 57.2525 529.411C59.5251 527.138 62.6075 525.862 65.8214 525.862H65.8214Z" fill="#535461"/>
<path d="M87.773 442.548H189.796C196.622 442.548 203.169 445.26 207.996 450.087C212.822 454.913 215.534 461.46 215.534 468.286V528.639H62.0352V468.286C62.0352 461.46 64.7468 454.913 69.5736 450.087C74.4004 445.26 80.9469 442.548 87.773 442.548Z" fill="#535461"/>
<path d="M138.657 498.469C143.677 498.469 147.746 494.4 147.746 489.38C147.746 484.361 143.677 480.292 138.657 480.292C133.638 480.292 129.568 484.361 129.568 489.38C129.568 494.4 133.638 498.469 138.657 498.469Z" fill="white"/>
<path opacity="0.1" d="M108.488 332.344C108.488 332.344 143.227 297.624 180.693 331.711" stroke="black" stroke-miterlimit="10"/>
<path d="M189.471 330.132H185.982V349.903H189.471V330.132Z" fill="#3C64B1"/>
<path d="M181.331 342.925C184.518 342.925 187.575 344.191 189.829 346.445C192.083 348.699 193.349 351.756 193.349 354.943V355.718C193.349 358.906 192.083 361.962 189.829 364.216C187.575 366.47 184.518 367.736 181.331 367.736V342.925Z" fill="#B4C9FA"/>
<path d="M181.719 341.762H181.719C180.22 341.762 179.005 342.977 179.005 344.476V366.185C179.005 367.684 180.22 368.899 181.719 368.899H181.719C183.217 368.899 184.432 367.684 184.432 366.185V344.476C184.432 342.977 183.217 341.762 181.719 341.762Z" fill="#3C64B1"/>
<path d="M99.3528 350.291H102.842V330.52H99.3528V350.291Z" fill="#3C64B1"/>
<path d="M107.494 368.124C104.307 368.124 101.25 366.858 98.9964 364.604C96.7426 362.35 95.4765 359.293 95.4765 356.106V355.331C95.4765 352.143 96.7426 349.087 98.9964 346.833C101.25 344.579 104.307 343.313 107.494 343.313V368.124Z" fill="#B4C9FA"/>
<path d="M107.107 369.287H107.107C108.605 369.287 109.82 368.072 109.82 366.573V344.864C109.82 343.365 108.605 342.15 107.107 342.15H107.107C105.608 342.15 104.393 343.365 104.393 344.864V366.573C104.393 368.072 105.608 369.287 107.107 369.287Z" fill="#3C64B1"/>
<path d="M185.569 309C180.845 299.177 170.556 287.301 148.377 286.353L148.379 286.326L148.112 286.339L148.095 286.338L148.095 286.34L140.238 286.714L140.238 286.752C118.205 287.766 107.965 299.596 103.256 309.388C100.124 316.021 98.4625 323.252 98.3848 330.587L101.098 330.52L103.811 330.458C103.929 323.92 105.435 317.482 108.229 311.57C114.211 299.286 125.215 292.751 140.938 292.149L140.937 292.144L147.887 291.759L147.887 291.761C163.609 292.364 174.614 298.898 180.596 311.183C183.389 317.095 184.895 323.533 185.014 330.07L187.727 330.132L190.44 330.199C190.362 322.864 188.701 315.633 185.569 309Z" fill="#B4C9FA"/>
<path d="M425.915 169.629C425.915 174.201 423.92 177.884 421.442 177.884C418.963 177.884 416.969 174.201 416.969 169.629C416.969 168.432 416.969 167.297 416.969 166.284C417.18 163.399 418.057 161.405 421.351 161.405C424.645 161.405 425.794 164.872 425.824 169.23L425.915 169.629Z" fill="url(#paint1_linear)"/>
<path d="M435.466 169.629V170.058C435.466 174.416 433.38 177.884 430.993 177.884C428.605 177.884 426.52 174.201 426.52 169.629C426.52 165.057 427.275 161.405 430.993 161.405C434.71 161.405 435.466 165.087 435.466 169.629Z" fill="url(#paint2_linear)"/>
<path style="mix-blend-mode:multiply" opacity="0.5" d="M425.915 169.23C423.232 167.534 420.203 166.485 417.06 166.161C417.271 163.277 418.148 161.282 421.442 161.282C424.736 161.282 425.885 164.872 425.915 169.23Z" fill="url(#paint3_radial)"/>
<path style="mix-blend-mode:multiply" opacity="0.5" d="M435.465 169.629V170.058C434.071 169.336 432.541 168.924 430.978 168.85C429.414 168.776 427.853 169.041 426.398 169.629C426.398 165.087 427.154 161.405 430.871 161.405C434.589 161.405 435.465 165.087 435.465 169.629Z" fill="url(#paint4_radial)"/>
<path d="M521.118 169.629C521.118 174.201 519.002 178.006 516.645 178.006C514.288 178.006 512.383 174.723 512.172 170.519V169.752C512.172 165.21 512.655 161.527 516.645 161.527C519.667 161.527 520.816 164.259 521.058 167.88C521.118 168.371 521.118 168.984 521.118 169.629Z" fill="url(#paint5_linear)"/>
<path d="M511.598 169.629V170.028C511.598 174.385 509.513 177.884 507.095 177.884C504.677 177.884 502.833 174.569 502.652 170.365C502.637 170.12 502.637 169.874 502.652 169.629C502.652 165.087 503.74 161.405 507.125 161.405C510.51 161.405 511.598 165.087 511.598 169.629Z" fill="url(#paint6_linear)"/>
<path style="mix-blend-mode:multiply" opacity="0.5" d="M511.598 169.629V170.028C510.139 169.475 508.587 169.22 507.031 169.278C505.475 169.336 503.946 169.705 502.531 170.365C502.516 170.12 502.516 169.874 502.531 169.629C502.531 165.087 503.619 161.405 507.004 161.405C510.389 161.405 511.598 165.087 511.598 169.629Z" fill="url(#paint7_radial)"/>
<path style="mix-blend-mode:multiply" opacity="0.5" d="M521.057 167.757C519.478 167.375 517.828 167.417 516.27 167.88C514.712 168.343 513.299 169.21 512.172 170.396V169.629C512.172 165.087 512.655 161.405 516.645 161.405C519.697 161.405 520.816 164.136 521.057 167.757Z" fill="url(#paint8_radial)"/>
<path d="M543.634 133.388C542.473 140.546 540.133 147.455 536.713 153.825C530.306 164.78 506.913 168.493 490.018 169.537C485.696 169.782 481.828 169.874 478.684 169.874C463.21 169.874 433.35 169.66 420.837 165.026C408.325 160.392 399.681 142.962 398.079 137.254C397.686 135.904 397.172 134.185 396.628 131.823C393.839 119.497 392.509 106.877 392.669 94.231C392.669 71.093 399.379 42.37 416.243 23.2214C420.957 17.9302 426.453 13.4163 432.534 9.84183L433.712 9.22809C444.642 3.17376 456.895 0.00793759 469.345 0.0219991C480.477 -0.240552 491.541 1.84946 501.835 6.15939C503.901 7.07653 505.918 8.10078 507.88 9.22809L508.998 9.9032C534.718 25.7377 541.911 57.0691 544.601 80.0229C546.916 97.7598 546.59 115.749 543.634 133.388Z" fill="url(#paint9_radial)"/>
<path d="M509.936 119.486C499.116 127.035 471.31 131.086 446.467 127.281C435.284 125.593 427.88 122.217 423.104 117.86C420.512 115.436 418.447 112.489 417.041 109.207C415.636 105.925 414.922 102.382 414.944 98.8033C414.37 86.1296 418.299 56.1791 429.119 40.6515C439.939 25.1239 457.77 21.5028 469.346 21.5028C471.008 21.5028 472.58 21.5028 474.121 21.7176C504.737 24.5101 513.411 54.8289 519.456 78.0896C526.075 102.547 517.159 114.546 509.936 119.486Z" fill="#5F81E9"/>
<path style="mix-blend-mode:screen" opacity="0.3" d="M474.121 21.779C461.095 32.2739 422.742 72.0443 423.225 117.86C420.633 115.436 418.568 112.489 417.162 109.207C415.757 105.925 415.043 102.382 415.065 98.8033C414.491 86.1296 418.42 56.1791 429.24 40.6515C440.06 25.1239 457.77 21.5028 469.346 21.5028C471.008 21.5028 472.58 21.5028 474.121 21.779Z" fill="url(#paint10_radial)"/>
<path d="M543.635 133.388C542.473 140.546 540.134 147.455 536.714 153.825C528.704 167.573 494.189 169.874 478.685 169.874C463.18 169.874 433.35 169.66 420.838 165.026C408.325 160.392 399.681 142.962 398.08 137.254C397.747 136.119 397.324 134.584 396.84 132.743C396.84 132.436 396.84 132.129 396.629 131.822C409.776 137.745 432.897 142.624 470.132 142.624C485.926 142.835 501.717 141.985 517.401 140.077C526.399 139.04 535.221 136.79 543.635 133.388Z" fill="url(#paint11_linear)"/>
<path d="M508.968 10.0566C509.127 13.0857 508.524 16.1062 507.215 18.833C505.523 21.1346 503.135 19.9991 499.236 18.1272C497.423 17.268 495.186 16.194 492.436 15.0585C481.981 11.7822 470.885 11.2125 460.158 13.4014C457.135 14.23 453.478 15.6416 449.972 16.9918C445.933 18.9214 441.635 20.2346 437.218 20.8891C436.606 20.9138 435.997 20.7984 435.435 20.5515C432.624 19.232 432.262 13.8311 432.413 9.84175L433.712 9.22801C433.635 10.5669 433.635 11.9092 433.712 13.248C433.863 16.7156 434.679 18.9865 436.009 19.6309C438.095 20.6129 443.988 18.3114 449.67 16.1019C453.01 14.66 456.42 13.39 459.886 12.2967C470.831 10.0262 482.164 10.6069 492.829 13.9845C495.64 15.0585 497.876 16.1326 499.69 17.0532C503.77 19.0172 505.22 19.6002 506.339 18.1272C507.542 15.3715 508.061 12.3577 507.85 9.35076L508.968 10.0566Z" fill="#FC8A21"/>
<path style="mix-blend-mode:screen" opacity="0.5" d="M467.351 26.7196C433.471 46.2365 424.706 91.868 422.681 109.053C421.03 105.815 420.141 102.234 420.082 98.5885C419.568 86.3137 423.528 57.7134 433.35 43.5974C443.173 29.4814 459.13 27.0572 467.351 26.7196Z" fill="url(#paint12_radial)"/>
<path style="mix-blend-mode:multiply" opacity="0.6" d="M543.635 133.387C542.473 140.546 540.133 147.455 536.713 153.825C530.306 164.78 506.913 168.493 490.019 169.537C508.545 153.211 521.481 135.781 519.547 78.1509C518.338 41.8175 509.15 18.9251 501.836 6.15929C503.901 7.07642 505.919 8.10067 507.88 9.22798L508.999 9.9031C534.719 25.7376 541.912 57.069 544.602 80.0228C546.916 97.7597 546.59 115.749 543.635 133.387Z" fill="url(#paint13_linear)"/>
<path d="M550.858 96.3178C550.592 100.883 548.969 105.259 546.204 108.869C545.244 110.058 543.965 110.938 542.521 111.401C541.077 111.864 539.532 111.891 538.074 111.477C535.985 111.016 534.136 109.793 532.875 108.04C531.783 105.955 531.273 103.606 531.401 101.248C531.529 98.8895 532.29 96.6116 533.601 94.6607C538.497 87.3572 537.227 81.1891 536.623 72.4433C535.958 64.1885 535.112 58.9717 538.467 57.0998C538.659 56.9793 538.861 56.8765 539.071 56.7929C539.423 56.6462 539.808 56.5972 540.185 56.6511C540.562 56.7051 540.918 56.8599 541.217 57.0998C546.506 60.7209 551.976 85.6387 550.858 96.3178Z" fill="url(#paint14_linear)"/>
<path d="M396.387 111.784C394.816 112.171 393.162 111.998 391.702 111.293C383.361 107.58 381.336 96.0416 384.267 80.1764C387.29 62.961 395.994 56.5781 398.11 57.376C402.552 59.432 395.813 76.1564 395.964 84.534C395.964 93.7401 400.981 99.8775 401.283 104.235C401.393 105.864 400.974 107.485 400.09 108.849C399.205 110.212 397.904 111.244 396.387 111.784Z" fill="url(#paint15_linear)"/>
<path style="mix-blend-mode:multiply" opacity="0.6" d="M396.387 111.784C399.953 107.426 397.807 101.289 395.087 94.4765C391.884 86.4979 393.546 82.2017 395.934 73.7628C397.868 66.9503 398.956 61.6721 398.231 57.4373C402.673 59.4933 395.934 76.2177 396.085 84.5953C396.085 93.8014 401.102 99.9388 401.404 104.296C401.493 105.93 401.05 107.549 400.143 108.902C399.237 110.255 397.917 111.268 396.387 111.784Z" fill="url(#paint16_linear)"/>
<path style="mix-blend-mode:multiply" opacity="0.5" d="M550.858 96.3178C550.592 100.883 548.969 105.259 546.203 108.869C545.244 110.058 543.964 110.938 542.521 111.401C541.077 111.864 539.532 111.891 538.073 111.477C535.985 111.016 534.135 109.793 532.875 108.04C537.801 111.293 544.964 109.482 547.261 97.9135C549.709 84.9636 545.992 67.2265 541.217 56.9771C546.506 60.7209 551.976 85.6387 550.858 96.3178Z" fill="url(#paint17_linear)"/>
<path style="mix-blend-mode:screen" opacity="0.7" d="M417.815 36.5702C415.155 41.4495 411.982 44.825 410.773 44.1499C409.564 43.4748 410.773 38.9638 413.402 34.0846C416.032 29.2054 419.266 25.8298 420.475 26.5049C421.684 27.18 420.505 31.691 417.815 36.5702Z" fill="url(#paint18_linear)"/>
<path style="mix-blend-mode:screen" opacity="0.7" d="M454.99 6.15943C455.443 7.44828 452.119 9.84187 447.585 11.4683C443.052 13.0947 439.002 13.3709 438.518 12.082C438.035 10.7932 441.359 8.39958 445.923 6.77317C450.487 5.14676 454.537 4.90127 454.99 6.15943Z" fill="url(#paint19_linear)"/>
<path style="mix-blend-mode:screen" opacity="0.7" d="M540.461 67.5334C540.733 70.6021 540.461 73.0877 539.584 73.1798C538.708 73.2718 537.952 70.8476 537.65 67.8096C537.348 64.7715 537.65 62.2552 538.526 62.1632C539.403 62.0711 540.158 64.4647 540.461 67.5334Z" fill="url(#paint20_linear)"/>
<path style="mix-blend-mode:screen" opacity="0.7" d="M534.84 102.271C534.84 104.45 534.658 106.26 534.084 106.291C533.51 106.322 532.935 104.603 532.784 102.394C532.633 100.184 532.996 98.4045 533.57 98.3738C534.144 98.3431 534.719 100.092 534.84 102.271Z" fill="url(#paint21_linear)"/>
<path style="mix-blend-mode:multiply" opacity="0.5" d="M507.185 115.282C500.173 120.161 484.215 123.476 467.229 123.598C489.655 100.522 494.884 57.1611 496.123 37.6749C497.852 39.5112 499.439 41.4811 500.868 43.5668C508.001 54.3072 511.899 68.8529 514.74 79.4706C520.694 101.903 512.564 111.538 507.185 115.282Z" fill="url(#paint22_radial)"/>
<path style="mix-blend-mode:screen" opacity="0.7" d="M424.555 135.505C424.404 136.456 420.898 136.64 416.697 135.996C412.496 135.351 409.232 134.001 409.383 132.927C409.534 131.853 413.04 131.792 417.241 132.467C421.442 133.142 424.706 134.584 424.555 135.505Z" fill="url(#paint23_linear)"/>
<g style="mix-blend-mode:screen" opacity="0.6">
<path d="M517.401 140.077C500.869 145.816 477.204 145.54 446.467 144.558C415.73 143.576 402.825 137.131 396.84 132.743C396.84 132.436 396.84 132.129 396.629 131.822C409.776 137.745 432.897 142.624 470.132 142.624C485.926 142.835 501.717 141.985 517.401 140.077Z" fill="#FE5E6A"/>
</g>
<path d="M446.732 65.7539C445.986 65.0005 444.976 64.5775 443.923 64.5775C442.869 64.5775 441.859 65.0005 441.113 65.7539L431.64 75.3592C430.955 76.1257 430.588 77.1293 430.614 78.1625C430.639 79.1956 431.056 80.1793 431.777 80.91C432.499 81.6408 433.47 82.0628 434.491 82.0887C435.511 82.1147 436.502 81.7426 437.259 81.0495L441.113 77.1345C441.859 76.3812 442.869 75.9581 443.923 75.9581C444.976 75.9581 445.986 76.3812 446.732 77.1345L450.598 81.0495C451.355 81.7426 452.346 82.1147 453.366 82.0887C454.386 82.0628 455.357 81.6408 456.079 80.91C456.801 80.1793 457.217 79.1956 457.243 78.1625C457.269 77.1293 456.901 76.1257 456.217 75.3592L446.732 65.7539ZM506.202 75.3592L496.718 65.7539C495.972 65.0005 494.961 64.5775 493.908 64.5775C492.855 64.5775 491.844 65.0005 491.099 65.7539L481.625 75.3592C480.941 76.1257 480.573 77.1293 480.599 78.1625C480.625 79.1956 481.041 80.1793 481.763 80.91C482.485 81.6408 483.456 82.0628 484.476 82.0887C485.496 82.1147 486.487 81.7426 487.244 81.0495L491.099 77.1345C491.844 76.3812 492.855 75.9581 493.908 75.9581C494.961 75.9581 495.972 76.3812 496.718 77.1345L500.583 81.0495C501.34 81.7426 502.331 82.1147 503.351 82.0887C504.372 82.0628 505.343 81.6408 506.064 80.91C506.786 80.1793 507.203 79.1956 507.228 78.1625C507.254 77.1293 506.887 76.1257 506.202 75.3592Z" fill="#FC8A21"/>
<path d="M326.72 332.4C328.04 332.4 329.21 332.73 330.23 333.39C331.25 334.03 332.04 334.95 332.6 336.15C333.16 337.33 333.44 338.7 333.44 340.26C333.44 341.82 333.15 343.21 332.57 344.43C332.01 345.63 331.22 346.57 330.2 347.25C329.18 347.91 328.02 348.24 326.72 348.24C325.66 348.24 324.7 348.02 323.84 347.58C323 347.12 322.36 346.5 321.92 345.72V348H317.42V325.92H321.95V334.92C322.39 334.14 323.03 333.53 323.87 333.09C324.73 332.63 325.68 332.4 326.72 332.4ZM325.43 344.79C326.55 344.79 327.41 344.4 328.01 343.62C328.61 342.84 328.91 341.72 328.91 340.26C328.91 338.86 328.61 337.78 328.01 337.02C327.41 336.26 326.55 335.88 325.43 335.88C324.31 335.88 323.44 336.27 322.82 337.05C322.22 337.81 321.92 338.9 321.92 340.32C321.92 341.76 322.22 342.87 322.82 343.65C323.44 344.41 324.31 344.79 325.43 344.79ZM341.566 330.45H334.876V326.64H352.996V330.45H346.306V348H341.566V330.45ZM364.574 332.4C368.174 332.4 369.974 334.53 369.974 338.79V348H365.444V339C365.444 337.94 365.244 337.17 364.844 336.69C364.464 336.19 363.854 335.94 363.014 335.94C362.014 335.94 361.214 336.26 360.614 336.9C360.014 337.54 359.714 338.4 359.714 339.48V348H355.184V325.92H359.714V334.86C360.254 334.06 360.944 333.45 361.784 333.03C362.624 332.61 363.554 332.4 364.574 332.4ZM387.232 340.77H377.212C377.292 342.19 377.662 343.23 378.322 343.89C378.982 344.53 379.962 344.85 381.262 344.85C382.042 344.85 382.822 344.72 383.602 344.46C384.382 344.2 385.102 343.82 385.762 343.32L386.962 346.38C386.242 346.96 385.342 347.42 384.262 347.76C383.202 348.08 382.132 348.24 381.052 348.24C378.492 348.24 376.482 347.54 375.022 346.14C373.562 344.72 372.832 342.79 372.832 340.35C372.832 338.81 373.142 337.44 373.762 336.24C374.402 335.02 375.292 334.08 376.432 333.42C377.572 332.74 378.862 332.4 380.302 332.4C382.442 332.4 384.132 333.1 385.372 334.5C386.612 335.88 387.232 337.75 387.232 340.11V340.77ZM380.422 335.58C379.562 335.58 378.862 335.83 378.322 336.33C377.802 336.83 377.462 337.56 377.302 338.52H383.332C383.092 336.56 382.122 335.58 380.422 335.58ZM398.926 332.43C399.566 332.43 400.106 332.53 400.546 332.73L400.516 336.87C399.776 336.53 399.036 336.36 398.296 336.36C397.096 336.36 396.176 336.69 395.536 337.35C394.916 337.99 394.606 338.89 394.606 340.05V348H390.076V337.14C390.076 335.52 389.996 334.07 389.836 332.79H394.096L394.396 335.4C394.776 334.44 395.366 333.71 396.166 333.21C396.986 332.69 397.906 332.43 398.926 332.43ZM415.738 340.77H405.718C405.798 342.19 406.168 343.23 406.828 343.89C407.488 344.53 408.468 344.85 409.768 344.85C410.548 344.85 411.328 344.72 412.108 344.46C412.888 344.2 413.608 343.82 414.268 343.32L415.468 346.38C414.748 346.96 413.848 347.42 412.768 347.76C411.708 348.08 410.638 348.24 409.558 348.24C406.998 348.24 404.988 347.54 403.528 346.14C402.068 344.72 401.338 342.79 401.338 340.35C401.338 338.81 401.648 337.44 402.268 336.24C402.908 335.02 403.798 334.08 404.938 333.42C406.078 332.74 407.368 332.4 408.808 332.4C410.948 332.4 412.638 333.1 413.878 334.5C415.118 335.88 415.738 337.75 415.738 340.11V340.77ZM408.928 335.58C408.068 335.58 407.368 335.83 406.828 336.33C406.308 336.83 405.968 337.56 405.808 338.52H411.838C411.598 336.56 410.628 335.58 408.928 335.58ZM423.112 343.17V348H418.222V343.17H423.112ZM441.351 332.79V348H436.881V345.75C436.421 346.53 435.771 347.14 434.931 347.58C434.091 348.02 433.141 348.24 432.081 348.24C430.761 348.24 429.591 347.92 428.571 347.28C427.571 346.64 426.781 345.73 426.201 344.55C425.641 343.35 425.361 341.97 425.361 340.41C425.361 338.85 425.641 337.46 426.201 336.24C426.781 335.02 427.581 334.08 428.601 333.42C429.621 332.74 430.781 332.4 432.081 332.4C433.141 332.4 434.091 332.63 434.931 333.09C435.771 333.55 436.421 334.17 436.881 334.95V332.79H441.351ZM433.401 344.79C434.521 344.79 435.381 344.41 435.981 343.65C436.581 342.89 436.881 341.79 436.881 340.35C436.881 338.91 436.581 337.81 435.981 337.05C435.381 336.27 434.521 335.88 433.401 335.88C432.281 335.88 431.411 336.28 430.791 337.08C430.171 337.88 429.861 338.99 429.861 340.41C429.861 341.83 430.161 342.92 430.761 343.68C431.381 344.42 432.261 344.79 433.401 344.79ZM445.008 332.79H449.538V348H445.008V332.79ZM449.688 325.65V329.91H444.858V325.65H449.688Z" fill="#3C64B1"/>
<path d="M304.938 257.453C307.729 259.764 309.719 262.897 310.625 266.406C315.119 267.26 319.23 269.507 322.375 272.828L323.141 269.75L326.734 271.906L331.156 267.484L329 263.891L333.062 262.875V256.625L329 255.609L331.156 252.016L326.734 247.594L323.141 249.75L322.125 245.688H315.875L314.859 249.75L311.266 247.594L306.844 252.016L309 255.609L304.938 256.625V257.453ZM319 255.062C319.927 255.062 320.833 255.337 321.604 255.852C322.375 256.368 322.976 257.1 323.331 257.956C323.685 258.813 323.778 259.755 323.597 260.664C323.417 261.574 322.97 262.409 322.315 263.065C321.659 263.72 320.824 264.167 319.914 264.347C319.005 264.528 318.063 264.435 317.206 264.081C316.35 263.726 315.618 263.125 315.102 262.354C314.587 261.583 314.312 260.677 314.312 259.75C314.312 258.507 314.806 257.315 315.685 256.435C316.565 255.556 317.757 255.062 319 255.062Z" fill="#FC8A21"/>
<path d="M277.594 288.594L272.844 293.344C272.581 293.605 272.419 293.951 272.388 294.32C272.356 294.689 272.457 295.058 272.672 295.359L275.547 299.391C275.711 299.619 275.81 299.889 275.832 300.17C275.854 300.451 275.799 300.733 275.672 300.984C275.359 301.641 275.094 302.297 274.844 302.984C274.757 303.251 274.599 303.49 274.387 303.674C274.175 303.859 273.917 303.982 273.641 304.031L268.75 304.844C268.383 304.903 268.049 305.092 267.809 305.375C267.568 305.659 267.436 306.019 267.438 306.391V313.109C267.436 313.481 267.568 313.841 267.809 314.125C268.049 314.408 268.383 314.597 268.75 314.656L273.641 315.469C273.917 315.518 274.175 315.641 274.387 315.826C274.599 316.01 274.757 316.249 274.844 316.516C275.094 317.203 275.359 317.859 275.672 318.516C275.799 318.767 275.854 319.049 275.832 319.33C275.81 319.611 275.711 319.88 275.547 320.109L272.672 324.141C272.457 324.442 272.356 324.811 272.388 325.18C272.419 325.549 272.581 325.895 272.844 326.156L277.594 330.906C277.855 331.169 278.201 331.331 278.57 331.362C278.939 331.394 279.308 331.293 279.609 331.078L283.641 328.203C283.87 328.039 284.139 327.94 284.42 327.918C284.701 327.896 284.983 327.951 285.234 328.078C285.891 328.391 286.547 328.656 287.234 328.906C287.501 328.993 287.74 329.151 287.924 329.363C288.109 329.575 288.232 329.833 288.281 330.109L289.094 335C289.153 335.367 289.342 335.701 289.625 335.941C289.909 336.182 290.269 336.314 290.641 336.312H297.359C297.731 336.314 298.091 336.182 298.375 335.941C298.658 335.701 298.847 335.367 298.906 335L299.719 330.109C299.768 329.833 299.891 329.575 300.076 329.363C300.26 329.151 300.499 328.993 300.766 328.906C301.453 328.656 302.109 328.391 302.766 328.078C303.017 327.951 303.299 327.896 303.58 327.918C303.861 327.94 304.131 328.039 304.359 328.203L308.391 331.078C308.692 331.293 309.061 331.394 309.43 331.362C309.799 331.331 310.145 331.169 310.406 330.906L315.156 326.156C315.419 325.895 315.581 325.549 315.612 325.18C315.644 324.811 315.543 324.442 315.328 324.141L312.453 320.109C312.289 319.88 312.19 319.611 312.168 319.33C312.146 319.049 312.201 318.767 312.328 318.516C312.641 317.859 312.906 317.203 313.156 316.516C313.243 316.249 313.401 316.01 313.613 315.826C313.825 315.641 314.083 315.518 314.359 315.469L319.25 314.656C319.617 314.597 319.951 314.408 320.191 314.125C320.432 313.841 320.564 313.481 320.563 313.109V306.391C320.564 306.019 320.432 305.659 320.191 305.375C319.951 305.092 319.617 304.903 319.25 304.844L314.359 304.031C314.083 303.982 313.825 303.859 313.613 303.674C313.401 303.49 313.243 303.251 313.156 302.984C312.906 302.297 312.641 301.641 312.328 300.984C312.201 300.733 312.146 300.451 312.168 300.17C312.19 299.889 312.289 299.619 312.453 299.391L315.328 295.359C315.543 295.058 315.644 294.689 315.612 294.32C315.581 293.951 315.419 293.605 315.156 293.344L310.406 288.594C310.145 288.331 309.799 288.169 309.43 288.138C309.061 288.106 308.692 288.207 308.391 288.422L304.359 291.297C304.131 291.461 303.861 291.56 303.58 291.582C303.299 291.604 303.017 291.549 302.766 291.422C302.109 291.109 301.453 290.844 300.766 290.594C300.499 290.507 300.26 290.349 300.076 290.137C299.891 289.925 299.768 289.667 299.719 289.391L298.906 284.5C298.847 284.133 298.658 283.799 298.375 283.559C298.091 283.318 297.731 283.186 297.359 283.187H290.641C290.269 283.186 289.909 283.318 289.625 283.559C289.342 283.799 289.153 284.133 289.094 284.5L288.281 289.391C288.232 289.667 288.109 289.925 287.924 290.137C287.74 290.349 287.501 290.507 287.234 290.594C286.547 290.844 285.891 291.109 285.234 291.422C284.983 291.549 284.701 291.604 284.42 291.582C284.139 291.56 283.87 291.461 283.641 291.297L279.609 288.422C279.308 288.207 278.939 288.106 278.57 288.138C278.201 288.169 277.855 288.331 277.594 288.594ZM294 297.25C296.472 297.25 298.889 297.983 300.945 299.357C303 300.73 304.602 302.682 305.549 304.966C306.495 307.251 306.742 309.764 306.26 312.189C305.778 314.613 304.587 316.841 302.839 318.589C301.091 320.337 298.863 321.527 296.439 322.01C294.014 322.492 291.501 322.245 289.216 321.298C286.932 320.352 284.98 318.75 283.607 316.695C282.233 314.639 281.5 312.222 281.5 309.75C281.5 306.435 282.817 303.255 285.161 300.911C287.505 298.567 290.685 297.25 294 297.25Z" fill="#FC8A21"/>
<path d="M250.594 275.297L255.016 279.719L258.609 277.562L259.625 281.625H260.609C261.773 278.054 263.903 274.874 266.763 272.439C269.623 270.004 273.101 268.408 276.812 267.828V264.438L272.75 263.422L274.906 259.828L270.484 255.406L266.891 257.563L265.875 253.5H259.625L258.609 257.563L255.016 255.406L250.594 259.828L252.75 263.422L248.688 264.438V270.688L252.75 271.703L250.594 275.297ZM262.75 262.875C263.677 262.875 264.583 263.15 265.354 263.665C266.125 264.18 266.726 264.912 267.081 265.769C267.435 266.625 267.528 267.568 267.347 268.477C267.167 269.386 266.72 270.222 266.065 270.877C265.409 271.533 264.574 271.979 263.664 272.16C262.755 272.341 261.813 272.248 260.956 271.893C260.1 271.538 259.368 270.938 258.852 270.167C258.337 269.396 258.062 268.49 258.062 267.562C258.062 266.319 258.556 265.127 259.435 264.248C260.315 263.369 261.507 262.875 262.75 262.875Z" fill="#FC8A21"/>
<path d="M329.892 286.405C329.569 281.226 327.526 276.304 324.087 272.419L324.148 272.177L325.931 273.245C326.23 273.424 326.58 273.499 326.925 273.456C327.271 273.414 327.593 273.257 327.839 273.011L332.261 268.589C332.507 268.343 332.664 268.021 332.707 267.676C332.75 267.33 332.676 266.98 332.497 266.681L331.425 264.895L333.441 264.391C333.779 264.306 334.079 264.111 334.294 263.837C334.508 263.562 334.625 263.224 334.625 262.875V256.625C334.625 256.276 334.508 255.938 334.294 255.663C334.079 255.389 333.779 255.194 333.441 255.109L331.425 254.605L332.497 252.819C332.676 252.52 332.75 252.17 332.707 251.824C332.664 251.479 332.507 251.157 332.261 250.911L327.839 246.489C327.593 246.243 327.271 246.086 326.925 246.044C326.58 246.001 326.23 246.076 325.931 246.255L324.145 247.325L323.641 245.308C323.556 244.97 323.361 244.67 323.086 244.456C322.812 244.241 322.473 244.125 322.125 244.125H315.875C315.527 244.125 315.188 244.241 314.914 244.456C314.639 244.67 314.444 244.97 314.359 245.308L313.855 247.325L312.069 246.255C311.77 246.076 311.42 246.001 311.074 246.044C310.729 246.086 310.407 246.243 310.161 246.489L305.739 250.911C305.493 251.157 305.336 251.479 305.293 251.824C305.25 252.17 305.324 252.52 305.503 252.819L306.575 254.605L304.559 255.109C304.523 255.119 304.494 255.141 304.459 255.153C302.209 253.629 299.653 252.614 296.97 252.18C294.288 251.745 291.542 251.9 288.926 252.635C286.309 253.371 283.885 254.668 281.821 256.436C279.757 258.205 278.104 260.402 276.977 262.875L275.175 262.423L276.247 260.637C276.426 260.339 276.5 259.989 276.457 259.643C276.414 259.297 276.257 258.976 276.011 258.73L271.589 254.308C271.343 254.062 271.021 253.905 270.675 253.863C270.33 253.82 269.98 253.894 269.681 254.073L267.895 255.144L267.391 253.12C267.306 252.782 267.111 252.483 266.836 252.268C266.562 252.054 266.223 251.938 265.875 251.938H259.625C259.277 251.938 258.938 252.054 258.664 252.268C258.389 252.483 258.194 252.782 258.109 253.12L257.605 255.138L255.819 254.067C255.52 253.888 255.17 253.814 254.824 253.856C254.479 253.899 254.157 254.055 253.911 254.302L249.489 258.723C249.243 258.97 249.086 259.291 249.043 259.637C249 259.982 249.074 260.332 249.253 260.631L250.325 262.417L248.309 262.922C247.971 263.006 247.671 263.201 247.456 263.476C247.242 263.75 247.125 264.089 247.125 264.438V270.688C247.125 271.036 247.242 271.375 247.456 271.649C247.671 271.924 247.971 272.119 248.309 272.203L250.325 272.708L249.253 274.494C249.074 274.793 249 275.143 249.043 275.488C249.086 275.834 249.243 276.155 249.489 276.402L253.911 280.823C254.157 281.07 254.479 281.226 254.824 281.269C255.17 281.311 255.52 281.237 255.819 281.058L257.605 279.987L258.109 282.005C258.197 282.347 258.397 282.651 258.678 282.866C258.392 284.027 258.202 285.21 258.111 286.403C254.948 286.786 252.051 288.362 250.011 290.81C247.971 293.257 246.943 296.391 247.136 299.571C247.33 302.751 248.73 305.737 251.051 307.92C253.372 310.102 256.439 311.315 259.625 311.312H265.875V313.114C265.873 313.854 266.135 314.571 266.613 315.136C267.092 315.701 267.757 316.076 268.487 316.195L273.375 317.036C273.634 317.774 273.937 318.497 274.283 319.198L271.402 323.233C270.97 323.834 270.766 324.57 270.827 325.307C270.888 326.045 271.209 326.737 271.734 327.259L276.5 332.016C277.022 332.541 277.713 332.863 278.451 332.924C279.189 332.985 279.924 332.781 280.525 332.348L284.573 329.486C285.279 329.825 286.005 330.12 286.747 330.372L287.561 335.267C287.683 335.995 288.059 336.656 288.622 337.133C289.184 337.611 289.898 337.873 290.636 337.875H297.364C298.104 337.875 298.82 337.613 299.384 337.135C299.949 336.657 300.325 335.994 300.447 335.264L301.284 330.375C302.024 330.116 302.747 329.813 303.45 329.467L307.483 332.35C308.085 332.78 308.82 332.982 309.557 332.92C310.294 332.859 310.985 332.539 311.508 332.016L316.266 327.259C316.79 326.737 317.112 326.045 317.173 325.307C317.234 324.57 317.03 323.834 316.598 323.233L313.736 319.186C314.075 318.479 314.37 317.753 314.622 317.011L319.512 316.195C320.243 316.076 320.908 315.701 321.386 315.136C321.865 314.571 322.127 313.854 322.125 313.114V311.312H328.375C331.559 311.313 334.623 310.098 336.942 307.917C339.261 305.735 340.66 302.751 340.854 299.572C341.047 296.394 340.021 293.262 337.984 290.815C335.947 288.368 333.053 286.791 329.892 286.405ZM311.508 249.561L314.055 251.091C314.264 251.216 314.5 251.291 314.743 251.309C314.986 251.326 315.23 251.287 315.456 251.194C315.681 251.1 315.882 250.955 316.041 250.771C316.2 250.586 316.314 250.366 316.373 250.13L317.094 247.25H320.906L321.627 250.13C321.686 250.366 321.8 250.586 321.959 250.771C322.118 250.955 322.319 251.1 322.544 251.194C322.769 251.287 323.014 251.326 323.257 251.309C323.5 251.291 323.736 251.216 323.945 251.091L326.492 249.561L329.189 252.258L327.661 254.805C327.535 255.014 327.46 255.25 327.442 255.493C327.424 255.737 327.463 255.981 327.557 256.207C327.65 256.433 327.795 256.633 327.98 256.793C328.165 256.952 328.385 257.066 328.622 257.125L331.5 257.845V261.655L328.622 262.375C328.385 262.434 328.165 262.548 327.98 262.707C327.795 262.867 327.65 263.067 327.557 263.293C327.463 263.519 327.424 263.763 327.442 264.007C327.46 264.25 327.535 264.486 327.661 264.695L329.189 267.242L326.5 269.939L323.953 268.409C323.744 268.284 323.508 268.209 323.264 268.191C323.02 268.173 322.776 268.212 322.55 268.306C322.325 268.399 322.124 268.545 321.965 268.73C321.805 268.915 321.692 269.135 321.633 269.372L321.506 269.881C318.718 267.545 315.419 265.898 311.877 265.072C310.997 262.27 309.467 259.716 307.411 257.619L309.386 257.125C309.623 257.066 309.843 256.952 310.027 256.793C310.212 256.633 310.357 256.433 310.451 256.207C310.544 255.981 310.584 255.737 310.565 255.493C310.547 255.25 310.473 255.014 310.347 254.805L308.819 252.258L311.508 249.561ZM257.805 276.222L255.258 277.752L252.561 275.062L254.089 272.516C254.215 272.306 254.29 272.07 254.308 271.827C254.326 271.583 254.286 271.339 254.193 271.113C254.1 270.888 253.955 270.687 253.77 270.528C253.585 270.368 253.365 270.254 253.128 270.195L250.25 269.467V265.658L253.128 264.938C253.365 264.878 253.585 264.764 253.77 264.605C253.955 264.446 254.1 264.245 254.193 264.019C254.286 263.794 254.326 263.549 254.308 263.306C254.29 263.062 254.215 262.827 254.089 262.617L252.561 260.07L255.258 257.373L257.805 258.903C258.014 259.029 258.25 259.103 258.493 259.121C258.736 259.139 258.98 259.1 259.206 259.006C259.431 258.913 259.632 258.768 259.791 258.583C259.95 258.398 260.064 258.179 260.123 257.942L260.844 255.062H264.656L265.377 257.942C265.436 258.179 265.55 258.398 265.709 258.583C265.868 258.768 266.069 258.913 266.294 259.006C266.519 259.1 266.764 259.139 267.007 259.121C267.25 259.103 267.486 259.029 267.695 258.903L270.242 257.373L272.939 260.07L271.411 262.617C271.285 262.827 271.21 263.062 271.192 263.306C271.174 263.549 271.213 263.794 271.307 264.019C271.4 264.245 271.545 264.446 271.73 264.605C271.915 264.764 272.135 264.878 272.372 264.938L275.25 265.658V266.544C272.97 267.048 270.786 267.915 268.781 269.113C268.92 268.607 268.994 268.086 269 267.562C269 266.326 268.633 265.118 267.947 264.09C267.26 263.062 266.284 262.261 265.142 261.788C264 261.315 262.743 261.191 261.531 261.433C260.318 261.674 259.205 262.269 258.331 263.143C257.456 264.017 256.861 265.131 256.62 266.343C256.379 267.556 256.503 268.812 256.976 269.954C257.449 271.096 258.25 272.072 259.278 272.759C260.305 273.446 261.514 273.812 262.75 273.812C262.93 273.812 263.1 273.775 263.277 273.759C262.132 275.097 261.154 276.569 260.364 278.142L260.123 277.183C260.064 276.946 259.95 276.727 259.791 276.542C259.632 276.357 259.431 276.212 259.206 276.119C258.98 276.025 258.736 275.986 258.493 276.004C258.25 276.022 258.014 276.096 257.805 276.222ZM262.75 270.688C262.132 270.688 261.528 270.504 261.014 270.161C260.5 269.817 260.099 269.329 259.863 268.758C259.626 268.187 259.564 267.559 259.685 266.953C259.806 266.347 260.103 265.79 260.54 265.353C260.977 264.916 261.534 264.618 262.14 264.498C262.746 264.377 263.375 264.439 263.946 264.675C264.517 264.912 265.005 265.312 265.348 265.826C265.692 266.34 265.875 266.944 265.875 267.562C265.875 268.391 265.546 269.186 264.96 269.772C264.374 270.358 263.579 270.688 262.75 270.688ZM319 313.114L314.109 313.93C313.556 314.025 313.038 314.268 312.61 314.632C312.182 314.996 311.859 315.469 311.677 316C311.457 316.628 311.203 317.243 310.916 317.842C310.671 318.346 310.566 318.907 310.611 319.466C310.657 320.025 310.852 320.561 311.175 321.019L314.056 325.055L309.298 329.811L305.264 326.928C304.806 326.606 304.27 326.413 303.712 326.367C303.153 326.322 302.593 326.427 302.089 326.67C301.49 326.955 300.876 327.207 300.25 327.427C299.719 327.61 299.247 327.932 298.884 328.36C298.52 328.788 298.278 329.306 298.183 329.859L297.364 334.75H290.636L289.82 329.859C289.725 329.306 289.482 328.788 289.118 328.36C288.754 327.932 288.281 327.61 287.75 327.427C287.123 327.206 286.509 326.952 285.909 326.666C285.479 326.46 285.008 326.353 284.531 326.353C283.886 326.353 283.257 326.553 282.731 326.927L278.698 329.808L273.941 325.05L276.823 321.016C277.146 320.557 277.34 320.021 277.385 319.462C277.431 318.904 277.326 318.343 277.081 317.839C276.796 317.24 276.543 316.626 276.323 316C276.14 315.469 275.818 314.997 275.39 314.633C274.962 314.269 274.444 314.027 273.891 313.931L269 313.114V306.386L273.891 305.57C274.444 305.475 274.962 305.232 275.39 304.868C275.818 304.504 276.14 304.031 276.323 303.5C276.543 302.872 276.797 302.257 277.084 301.658C277.329 301.153 277.434 300.592 277.388 300.033C277.343 299.474 277.148 298.938 276.825 298.48L273.944 294.445L278.702 289.689L282.736 292.572C283.194 292.894 283.73 293.088 284.288 293.133C284.847 293.179 285.407 293.074 285.911 292.83C286.51 292.545 287.124 292.293 287.75 292.073C288.281 291.89 288.752 291.568 289.116 291.14C289.48 290.712 289.722 290.194 289.817 289.641L290.636 284.75H297.364L298.18 289.641C298.275 290.194 298.518 290.712 298.882 291.14C299.246 291.568 299.719 291.89 300.25 292.073C300.877 292.294 301.491 292.548 302.091 292.834C302.595 293.079 303.156 293.184 303.715 293.138C304.274 293.092 304.81 292.898 305.269 292.575L309.302 289.694L314.059 294.452L311.177 298.486C310.854 298.944 310.66 299.48 310.614 300.039C310.569 300.598 310.674 301.158 310.919 301.663C311.204 302.261 311.457 302.874 311.677 303.5C311.86 304.031 312.182 304.503 312.61 304.867C313.038 305.231 313.556 305.473 314.109 305.569L319 306.384V313.114ZM328.375 308.188H322.125V306.386C322.127 305.646 321.865 304.929 321.386 304.364C320.908 303.799 320.243 303.424 319.512 303.305L314.625 302.464C314.366 301.725 314.063 301.003 313.717 300.3L316.598 296.267C317.03 295.666 317.234 294.93 317.173 294.193C317.112 293.455 316.79 292.763 316.266 292.241L311.508 287.484C310.986 286.959 310.294 286.637 309.557 286.576C308.819 286.515 308.084 286.719 307.483 287.152L303.434 290.014C302.728 289.675 302.002 289.38 301.261 289.128L300.447 284.233C300.324 283.504 299.948 282.842 299.383 282.364C298.819 281.887 298.103 281.625 297.364 281.625H290.636C289.896 281.625 289.18 281.887 288.616 282.365C288.051 282.843 287.675 283.506 287.553 284.236L286.716 289.125C285.976 289.384 285.253 289.687 284.55 290.033L280.517 287.15C279.916 286.718 279.181 286.515 278.443 286.576C277.705 286.637 277.014 286.959 276.492 287.484L271.734 292.241C271.209 292.763 270.888 293.455 270.827 294.193C270.766 294.93 270.97 295.666 271.402 296.267L274.264 300.314C273.925 301.021 273.629 301.747 273.378 302.489L268.487 303.305C267.757 303.424 267.092 303.799 266.613 304.364C266.135 304.929 265.873 305.646 265.875 306.386V308.188H259.625C257.139 308.188 254.754 307.2 252.996 305.442C251.238 303.683 250.25 301.299 250.25 298.812C250.25 296.326 251.238 293.942 252.996 292.183C254.754 290.425 257.139 289.438 259.625 289.438C260.039 289.438 260.437 289.273 260.73 288.98C261.023 288.687 261.187 288.289 261.187 287.875C261.184 285.916 261.491 283.969 262.095 282.106C263.183 278.815 265.155 275.886 267.795 273.64C270.436 271.394 273.642 269.917 277.066 269.37L277.331 269.323C277.653 269.271 277.949 269.119 278.18 268.889C278.411 268.659 278.564 268.363 278.619 268.042C279.223 264.522 281.016 261.316 283.698 258.959C286.381 256.602 289.791 255.236 293.359 255.09C296.928 254.943 300.438 256.025 303.305 258.155C306.171 260.285 308.221 263.334 309.111 266.792C309.185 267.079 309.339 267.339 309.555 267.542C309.771 267.745 310.04 267.882 310.331 267.938C314.969 268.823 319.153 271.299 322.162 274.939C325.17 278.578 326.815 283.153 326.812 287.875C326.812 288.289 326.977 288.687 327.27 288.98C327.563 289.273 327.961 289.438 328.375 289.438C330.861 289.438 333.246 290.425 335.004 292.183C336.762 293.942 337.75 296.326 337.75 298.812C337.75 301.299 336.762 303.683 335.004 305.442C333.246 307.2 330.861 308.188 328.375 308.188Z" fill="#1A6FB0"/>
<path d="M319 266C320.236 266 321.445 265.633 322.472 264.947C323.5 264.26 324.301 263.284 324.774 262.142C325.247 261 325.371 259.743 325.13 258.531C324.889 257.318 324.294 256.205 323.419 255.331C322.545 254.456 321.432 253.861 320.219 253.62C319.007 253.379 317.75 253.503 316.608 253.976C315.466 254.449 314.49 255.25 313.803 256.278C313.117 257.305 312.75 258.514 312.75 259.75C312.75 261.408 313.408 262.997 314.581 264.169C315.753 265.341 317.342 266 319 266ZM319 256.625C319.618 256.625 320.222 256.808 320.736 257.152C321.25 257.495 321.651 257.983 321.887 258.554C322.124 259.125 322.186 259.753 322.065 260.36C321.944 260.966 321.647 261.523 321.21 261.96C320.773 262.397 320.216 262.694 319.61 262.815C319.003 262.936 318.375 262.874 317.804 262.637C317.233 262.401 316.745 262 316.402 261.486C316.058 260.972 315.875 260.368 315.875 259.75C315.875 258.921 316.204 258.126 316.79 257.54C317.376 256.954 318.171 256.625 319 256.625Z" fill="#1A6FB0"/>
<path d="M294 295.688C291.219 295.688 288.5 296.512 286.187 298.057C283.875 299.603 282.072 301.799 281.008 304.369C279.944 306.938 279.665 309.766 280.208 312.493C280.75 315.221 282.09 317.727 284.056 319.694C286.023 321.66 288.529 323 291.257 323.542C293.984 324.085 296.812 323.806 299.381 322.742C301.951 321.678 304.147 319.875 305.693 317.563C307.238 315.25 308.062 312.531 308.062 309.75C308.058 306.022 306.575 302.447 303.939 299.811C301.303 297.175 297.728 295.692 294 295.688ZM294 320.688C291.837 320.688 289.722 320.046 287.923 318.844C286.125 317.642 284.723 315.934 283.895 313.936C283.067 311.937 282.851 309.738 283.273 307.616C283.695 305.495 284.736 303.546 286.266 302.016C287.796 300.486 289.745 299.445 291.866 299.023C293.988 298.601 296.187 298.817 298.186 299.645C300.184 300.473 301.892 301.875 303.094 303.673C304.296 305.472 304.937 307.587 304.937 309.75C304.934 312.65 303.781 315.43 301.73 317.48C299.68 319.531 296.9 320.684 294 320.688Z" fill="#1A6FB0"/>
<defs>
<linearGradient id="paint0_linear" x1="88552.7" y1="179534" x2="88552.7" y2="77765.9" gradientUnits="userSpaceOnUse">
<stop stop-color="#808080" stop-opacity="0.25"/>
<stop offset="0.53514" stop-color="#808080" stop-opacity="0.12"/>
<stop offset="1" stop-color="#808080" stop-opacity="0.1"/>
</linearGradient>
<linearGradient id="paint1_linear" x1="421.684" y1="162.479" x2="421.123" y2="177.423" gradientUnits="userSpaceOnUse">
<stop stop-color="#31439E"/>
<stop offset="1" stop-color="#3126D6"/>
</linearGradient>
<linearGradient id="paint2_linear" x1="569.299" y1="1035.78" x2="563.853" y2="1115.77" gradientUnits="userSpaceOnUse">
<stop stop-color="#31439E"/>
<stop offset="1" stop-color="#3126D6"/>
</linearGradient>
<radialGradient id="paint3_radial" cx="0" cy="0" r="1" gradientUnits="userSpaceOnUse" gradientTransform="translate(421.502 165.333) scale(4.1708 4.2348)">
<stop stop-color="#3126D6"/>
<stop offset="1" stop-color="#1D14C8"/>
</radialGradient>
<radialGradient id="paint4_radial" cx="0" cy="0" r="1" gradientUnits="userSpaceOnUse" gradientTransform="translate(570.382 628.707) scale(13.1471 12.5479)">
<stop stop-color="#3126D6"/>
<stop offset="1" stop-color="#1D14C8"/>
</radialGradient>
<linearGradient id="paint5_linear" x1="908.125" y1="1053.53" x2="902.379" y2="1133.66" gradientUnits="userSpaceOnUse">
<stop stop-color="#31439E"/>
<stop offset="1" stop-color="#3126D6"/>
</linearGradient>
<linearGradient id="paint6_linear" x1="870.878" y1="1051.43" x2="865.439" y2="1131.59" gradientUnits="userSpaceOnUse">
<stop stop-color="#31439E"/>
<stop offset="1" stop-color="#3126D6"/>
</linearGradient>
<radialGradient id="paint7_radial" cx="0" cy="0" r="1" gradientUnits="userSpaceOnUse" gradientTransform="translate(875.272 645.726) scale(13.345 13.1721)">
<stop stop-color="#3126D6"/>
<stop offset="1" stop-color="#1D14C8"/>
</radialGradient>
<radialGradient id="paint8_radial" cx="0" cy="0" r="1" gradientUnits="userSpaceOnUse" gradientTransform="translate(905.005 647.474) scale(13.0619 13.2172)">
<stop stop-color="#3126D6"/>
<stop offset="1" stop-color="#1D14C8"/>
</radialGradient>
<radialGradient id="paint9_radial" cx="0" cy="0" r="1" gradientUnits="userSpaceOnUse" gradientTransform="translate(469.345 84.9635) scale(80.2427 81.4739)">
<stop stop-color="#F2F2F5"/>
<stop offset="0.98" stop-color="#D7E2F5"/>
</radialGradient>
<radialGradient id="paint10_radial" cx="0" cy="0" r="1" gradientUnits="userSpaceOnUse" gradientTransform="translate(1619.09 2209.77) scale(772.574 1259.39)">
<stop stop-color="#3126D6"/>
<stop offset="1" stop-color="#1D14C8"/>
</radialGradient>
<linearGradient id="paint11_linear" x1="399.379" y1="143.606" x2="534.683" y2="154.086" gradientUnits="userSpaceOnUse">
<stop stop-color="#FC8A21"/>
</linearGradient>
<radialGradient id="paint12_radial" cx="0" cy="0" r="1" gradientUnits="userSpaceOnUse" gradientTransform="translate(1370.09 1847.93) scale(519.498 904.018)">
<stop stop-color="#3126D6"/>
<stop offset="1" stop-color="#1D14C8"/>
</radialGradient>
<linearGradient id="paint13_linear" x1="490.019" y1="87.9094" x2="546.052" y2="87.9094" gradientUnits="userSpaceOnUse">
<stop offset="0.01" stop-color="#E7EBF5"/>
<stop offset="1" stop-color="#D7E2F5"/>
</linearGradient>
<linearGradient id="paint14_linear" x1="527.979" y1="55.4734" x2="546.855" y2="106.444" gradientUnits="userSpaceOnUse">
<stop stop-color="#F2F2F5"/>
<stop offset="0.48" stop-color="#ECEEF5"/>
<stop offset="0.98" stop-color="#D7E2F5"/>
</linearGradient>
<linearGradient id="paint15_linear" x1="410.45" y1="1236.66" x2="871.016" y2="1740.84" gradientUnits="userSpaceOnUse">
<stop stop-color="#F2F2F5"/>
<stop offset="0.48" stop-color="#ECEEF5"/>
<stop offset="0.98" stop-color="#D7E2F5"/>
</linearGradient>
<linearGradient id="paint16_linear" x1="405.466" y1="1055.78" x2="749.998" y2="1196.72" gradientUnits="userSpaceOnUse">
<stop offset="0.01" stop-color="#E7EBF5"/>
<stop offset="1" stop-color="#D7E2F5"/>
</linearGradient>
<linearGradient id="paint17_linear" x1="1445.34" y1="1982.91" x2="1922.89" y2="1553.39" gradientUnits="userSpaceOnUse">
<stop offset="0.01" stop-color="#E7EBF5"/>
<stop offset="1" stop-color="#D7E2F5"/>
</linearGradient>
<linearGradient id="paint18_linear" x1="422.469" y1="23.0986" x2="409.296" y2="45.8492" gradientUnits="userSpaceOnUse">
<stop offset="0.03" stop-color="#EEF5FF"/>
<stop offset="1" stop-color="#EEF5FF"/>
</linearGradient>
<linearGradient id="paint19_linear" x1="856.606" y1="16.359" x2="783.257" y2="75.1288" gradientUnits="userSpaceOnUse">
<stop offset="0.03" stop-color="#EEF5FF"/>
<stop offset="1" stop-color="#EEF5FF"/>
</linearGradient>
<linearGradient id="paint20_linear" x1="542.226" y1="66.1276" x2="537.322" y2="68.4537" gradientUnits="userSpaceOnUse">
<stop offset="0.03" stop-color="#EEF5FF"/>
<stop offset="0.89" stop-color="#EEF5FF"/>
<stop offset="1" stop-color="#EEF5FF"/>
</linearGradient>
<linearGradient id="paint21_linear" x1="536.141" y1="101.291" x2="532.53" y2="102.841" gradientUnits="userSpaceOnUse">
<stop stop-color="#EEF5FF"/>
<stop offset="0.89" stop-color="#EEF5FF"/>
<stop offset="1" stop-color="#EEF5FF"/>
</linearGradient>
<radialGradient id="paint22_radial" cx="0" cy="0" r="1" gradientUnits="userSpaceOnUse" gradientTransform="translate(2256.26 2294.89) scale(569.394 986.402)">
<stop stop-color="#374AB8"/>
</radialGradient>
<linearGradient id="paint23_linear" x1="184.34" y1="322.972" x2="248.549" y2="349.719" gradientUnits="userSpaceOnUse">
<stop offset="0.03" stop-color="#EEF5FF"/>
<stop offset="1" stop-color="#EEF5FF"/>
</linearGradient>
</defs>
</svg>
