<svg width="300" height="274" viewBox="0 0 300 274" fill="none" xmlns="http://www.w3.org/2000/svg">
<g opacity="0.8">
<path d="M47.5658 156.016L0 101.981L142.317 0L284.634 101.981L236.307 156.016H47.5658Z" fill="#5F81E9"/>
<path d="M47.5658 156.016L0 101.981L142.317 0L284.634 101.981L236.307 156.016H47.5658Z" fill="#514ABF"/>
<path d="M277.784 108.831H0V230.218H277.784V108.831Z" fill="#5F81E9"/>
<path d="M277.784 108.831H0V230.218H277.784V108.831Z" fill="url(#paint0_linear)"/>
<path d="M284.634 273.598H0V101.981L142.317 187.98L284.634 101.981V273.598Z" fill="#5F81E9"/>
<path d="M248.324 44.4523L218.137 21.3057L138.174 125.59L93.7623 91.5356L70.6152 121.722L130.116 167.279L145.375 178.714L248.324 44.4523Z" fill="#FF5501"/>
<path d="M1.20004 63.5031L0.0683594 64.0556L0.198499 63.8243L0.099182 63.8562L0.238455 63.7531L15.4698 36.6475L23.2557 43.2861L29.9351 49.4701L28.0173 50.4065L30.1733 54.2095L1.20004 63.5031Z" fill="url(#paint1_linear)"/>
<path d="M22.4847 43.9951L28.5898 49.6558L0.917969 63.413L15.644 44.5389L22.4847 43.9951Z" fill="#5F81E9"/>
<path opacity="0.2" d="M22.4847 43.9951L28.5898 49.6558L0.917969 63.413L15.644 44.5389L22.4847 43.9951Z" fill="black"/>
<path d="M15.3635 37.9233L0.917969 63.4133L22.4847 43.9954L15.3635 37.9233Z" fill="#5F81E9"/>
<path d="M28.7675 54.0384L0.947266 63.2281L24.2031 45.8682L28.7675 54.0384Z" fill="#5F81E9"/>
<path d="M261.405 14.7379L255.311 25.3047L300 32.5815L271.217 12.5381L261.405 14.7379Z" fill="#5F81E9"/>
<path opacity="0.2" d="M261.405 14.7379L255.311 25.3047L300 32.5815L271.217 12.5381L261.405 14.7379Z" fill="black"/>
<path d="M268.746 3.15576L300 32.5815L261.406 14.7378L268.746 3.15576Z" fill="#5F81E9"/>
<path d="M256.959 31.5157L299.878 32.3357L259.811 18.104L256.959 31.5157Z" fill="#5F81E9"/>
</g>
<defs>
<linearGradient id="paint0_linear" x1="138.892" y1="230.218" x2="138.892" y2="108.831" gradientUnits="userSpaceOnUse">
<stop stop-opacity="0.12"/>
<stop offset="0.55135" stop-opacity="0.09"/>
<stop offset="1" stop-opacity="0.02"/>
</linearGradient>
<linearGradient id="paint1_linear" x1="22.6483" y1="63.0381" x2="5.46352" y2="48.3859" gradientUnits="userSpaceOnUse">
<stop stop-color="#808080" stop-opacity="0.25"/>
<stop offset="0.53514" stop-color="#808080" stop-opacity="0.12"/>
<stop offset="1" stop-color="#808080" stop-opacity="0.1"/>
</linearGradient>
</defs>
</svg>
