<svg width="40" height="40" viewBox="0 0 40 40" fill="none" xmlns="http://www.w3.org/2000/svg">
<g clip-path="url(#clip0)">
<path d="M21.8748 8.12529C16.3609 8.12529 11.8749 12.6112 11.8749 18.1252C11.8749 18.928 11.9706 19.7087 12.1501 20.4572L0.823587 31.7837C0.292498 32.315 0 33.0212 0 33.7723V37.1876C0 38.7384 1.26163 40.0001 2.81248 40.0001H6.22776C6.97909 40.0001 7.68541 39.7075 8.21642 39.1763L19.5428 27.8499C20.2913 28.0294 21.0721 28.1252 21.8748 28.1252C27.3888 28.1252 31.8748 23.6392 31.8748 18.1252C31.8748 12.6112 27.3888 8.12529 21.8748 8.12529ZM6.44854 37.4087C6.38964 37.4676 6.3112 37.5001 6.22776 37.5001H2.81248C2.64014 37.5001 2.49998 37.3599 2.49998 37.1876V33.7723C2.49998 33.6889 2.53248 33.6103 2.59146 33.5514L13.1451 22.9977C14.0496 24.6117 15.3883 25.9505 17.0024 26.8549L6.44854 37.4087ZM21.8748 25.6252C17.7393 25.6252 14.3749 22.2607 14.3749 18.1252C14.3749 13.9897 17.7393 10.6253 21.8748 10.6253C26.0103 10.6253 29.3748 13.9897 29.3748 18.1252C29.3748 22.2607 26.0103 25.6252 21.8748 25.6252Z" fill="#3C64B1"/>
<path d="M38.75 11.7685C38.2493 11.7685 37.7767 11.4656 37.5845 10.9708C36.0636 7.05481 32.9453 3.93648 29.0292 2.41555C28.3857 2.16563 28.0666 1.44134 28.3166 0.797751C28.5665 0.154163 29.2908 -0.164663 29.9344 0.0851008C34.5028 1.85946 38.1406 5.49717 39.9149 10.0656C40.1649 10.7091 39.8458 11.4334 39.2023 11.6834C39.0536 11.7412 38.9005 11.7685 38.75 11.7685Z" fill="#3C64B1"/>
<path d="M33.9975 13.3521C33.5068 13.3521 33.0414 13.0614 32.8421 12.5798C31.8332 10.1427 29.8568 8.16633 27.4197 7.15751C26.7818 6.89345 26.4788 6.16227 26.7428 5.52446C27.0068 4.88657 27.7383 4.58368 28.3758 4.84759C31.4214 6.10837 33.8913 8.57813 35.1519 11.6237C35.416 12.2616 35.1129 12.9927 34.475 13.2567C34.3187 13.3215 34.1567 13.3521 33.9975 13.3521Z" fill="#3C64B1"/>
<path d="M23.75 18.7502C22.3715 18.7502 21.25 17.6287 21.25 16.2502C21.25 14.8717 22.3715 13.7502 23.75 13.7502C25.1285 13.7502 26.25 14.8717 26.25 16.2502C26.25 17.6287 25.1285 18.7502 23.75 18.7502ZM23.75 16.2502C23.75 16.2513 23.7501 16.2518 23.7501 16.2518L23.75 16.2502Z" fill="#3C64B1"/>
</g>
<defs>
<clipPath id="clip0">
<rect width="40" height="40" fill="white"/>
</clipPath>
</defs>
</svg>
