<svg width="32" height="40" viewBox="0 0 32 40" fill="none" xmlns="http://www.w3.org/2000/svg">
<g clip-path="url(#clip0)">
<path fill-rule="evenodd" clip-rule="evenodd" d="M4.49137 18.75L4.19643 18.785L3.9251 18.8785L3.68915 19.0187L3.50039 19.2173L3.33523 19.4393L3.25265 19.7079L3.21725 20V28.75L3.26444 29.5794L3.38242 30.4206L3.57117 31.2033L3.83072 31.9626L4.17284 32.6869L4.58575 33.3995L5.03405 34.0421L5.56493 34.6495L6.143 35.2103L6.75646 35.7243L7.41711 36.1682L8.12496 36.5654L8.86819 36.8808L9.65861 37.1495L10.4726 37.3481L11.3102 37.465L12.1715 37.5H19.8397L20.7009 37.465L21.5386 37.3481L22.3408 37.1495L23.1312 36.8808L23.8744 36.5654L24.5823 36.1682L25.2547 35.7243L25.88 35.2103L26.4581 34.6495L26.9653 34.0421L27.4372 33.3995L27.8265 32.6869L28.1687 31.9626L28.44 31.2033L28.6406 30.4206L28.7585 29.5794L28.7939 28.75V20L28.7703 19.7079L28.6642 19.4393L28.5226 19.2173L28.3102 19.0187L28.0743 18.8785L27.8148 18.785L27.508 18.75H4.49137ZM16.0056 6.25L15.3567 6.28505L14.7433 6.40187L14.1534 6.5771L13.5989 6.83412L13.0798 7.13785L12.5962 7.51168L12.1832 7.92056L11.8057 8.38785L11.4872 8.89019L11.2277 9.45094L11.0389 10.0234L10.9209 10.6192L10.8855 11.25V16.25H21.1138V11.25L21.0785 10.6192L20.9605 10.0234L20.7717 9.45094L20.5122 8.89019L20.2055 8.38785L19.8397 7.92056L19.4032 7.51168L18.9313 7.13785L18.4123 6.83412L17.8578 6.5771L17.2679 6.40187L16.6427 6.28505L16.0056 6.25ZM16.0056 2.5L15.1326 2.53505L14.3068 2.65187L13.4928 2.85047L12.7023 3.10747L11.9591 3.43458L11.2513 3.83178L10.5906 4.2757L9.96534 4.78972L9.39907 5.33878L8.86819 5.95795L8.41989 6.61215L8.00698 7.3014L7.67666 8.0257L7.40531 8.79673L7.21656 9.59112L7.09859 10.4089L7.0514 11.25V16.25H9.59963V11.25L9.64682 10.5724L9.76479 9.90654L9.92995 9.2757L10.1777 8.66823L10.4844 8.08412L10.8501 7.55841L11.2513 7.06776L11.7232 6.61215L12.2304 6.21495L12.7849 5.85281L13.363 5.56075L13.9882 5.31542L14.6253 5.15187L15.3095 5.03505L16.0056 5L16.7134 5.03505L17.3741 5.15187L18.0347 5.31542L18.6482 5.56075L19.2381 5.85281L19.7807 6.21495L20.288 6.61215L20.7481 7.06776L21.1728 7.55841L21.5268 8.08412L21.8335 8.66823L22.0694 9.2757L22.2582 9.90654L22.3644 10.5724L22.3998 11.25V16.25H24.948V11.25L24.9126 10.4089L24.7946 9.59112L24.5941 8.79673L24.3345 8.0257L23.9924 7.3014L23.5913 6.61215L23.1312 5.95795L22.6121 5.33878L22.0458 4.78972L21.4206 4.2757L20.7481 3.83178L20.0403 3.43458L19.2971 3.10747L18.5184 2.85047L17.7044 2.65187L16.8668 2.53505L16.0056 2.5ZM16.0056 0L16.9612 0.0350466L17.8696 0.140186L18.778 0.315419L19.6392 0.572427L20.4886 0.87617L21.3026 1.25L22.0694 1.68224L22.8009 2.1729L23.4969 2.71028L24.1458 3.29439L24.7356 3.92523L25.2901 4.60281L25.7856 5.31542L26.2339 6.07477L26.6114 6.85748L26.9299 7.6986L27.1895 8.53972L27.3664 9.41589L27.4726 10.3271L27.508 11.25V16.25L28.0389 16.2734L28.5344 16.3785L29.0063 16.5421L29.4546 16.764L29.8557 17.0327L30.2214 17.3481L30.5517 17.7103L30.8231 18.1075L31.0472 18.5397L31.2124 18.9953L31.3186 19.4977L31.3422 20V28.75L31.3068 29.6729L31.2006 30.5724L31.0236 31.4486L30.7523 32.3131L30.4456 33.1308L30.068 33.9136L29.6315 34.6729L29.1361 35.3855L28.5816 36.0631L27.9799 36.7056L27.3311 37.2897L26.635 37.8271L25.9036 38.3178L25.1367 38.75L24.3227 39.1238L23.4851 39.4276L22.6121 39.6729L21.7037 39.8481L20.7953 39.965L19.8397 40H12.1715L11.2159 39.965L10.2957 39.8481L9.39907 39.6729L8.53786 39.4276L7.67666 39.1238L6.87444 38.75L6.09581 38.3178L5.36437 37.8271L4.66833 37.2897L4.01947 36.7056L3.42961 36.0631L2.88693 35.3855L2.37964 34.6729L1.94314 33.9136L1.56562 33.1308L1.24709 32.3131L0.987553 31.4486L0.798795 30.5724L0.692619 29.6729L0.657227 28.75V20L0.680821 19.4977L0.786998 18.9953L0.963958 18.5397L1.17631 18.1075L1.45945 17.7103L1.77798 17.3481L2.14369 17.0327L2.5566 16.764L2.9931 16.5421L3.465 16.3785L3.97228 16.2734L4.49137 16.25V11.25L4.52676 10.3271L4.63294 9.41589L4.82169 8.53972L5.08124 7.6986L5.38797 6.85748L5.77728 6.07477L6.21378 5.31542L6.70927 4.60281L7.26375 3.92523L7.86541 3.29439L8.50247 2.71028L9.19851 2.1729L9.94175 1.68224L10.7204 1.25L11.5226 0.87617L12.3602 0.572427L13.245 0.315419L14.1416 0.140186L15.0618 0.0350466L16.0056 0Z" fill="#3C64B1"/>
<path fill-rule="evenodd" clip-rule="evenodd" d="M15.9995 24.1096L16.4414 24.1318L16.858 24.2317L17.2494 24.3648L17.6156 24.5645L17.9312 24.8086L18.2089 25.086L18.4362 25.3856L18.6003 25.7296L18.7013 26.1068L18.7392 26.484L18.714 26.7503L18.6635 27.0499L18.6003 27.3939L18.4993 27.76L18.3857 28.1373L18.2594 28.5256L18.1206 28.914L17.9817 29.3023L17.8302 29.6684L17.7039 29.9569L17.565 30.2232L17.4262 30.4673L17.2494 30.6781L17.0727 30.8668L16.858 31.0221L16.6308 31.133L16.3278 31.2107L15.9995 31.2329L15.6839 31.2107L15.4061 31.133L15.1662 31.0221L14.9642 30.8668L14.7622 30.667L14.5981 30.4562L14.4466 30.2121L14.2951 29.9458L14.1814 29.6463L14.0173 29.2912L13.8658 28.9029L13.7269 28.5145L13.6007 28.1151L13.487 27.7489L13.386 27.3828L13.3229 27.0499L13.285 26.7503L13.2598 26.484L13.2976 26.1068L13.4113 25.7296L13.5628 25.3856L13.7774 25.086L14.0678 24.8086L14.3834 24.5645L14.7369 24.3648L15.141 24.2317L15.5576 24.1318L15.9995 24.1096Z" fill="#3C64B1"/>
</g>
<defs>
<clipPath id="clip0">
<rect width="30.6849" height="40" fill="white" transform="translate(0.657227)"/>
</clipPath>
</defs>
</svg>
