<svg width="28" height="40" viewBox="0 0 28 40" fill="none" xmlns="http://www.w3.org/2000/svg">
<path fill-rule="evenodd" clip-rule="evenodd" d="M12.8999 11.5068L13.1475 11.5342L13.3859 11.6256L13.5877 11.7443L13.7528 11.9269L13.8903 12.1187L13.9637 12.347L14.0004 12.6027L13.9637 12.8493L13.8903 13.0776L13.7528 13.2785L13.5877 13.452L13.3859 13.5799L13.1475 13.6621L12.8999 13.6986L12.6431 13.6621L12.423 13.5799L12.2213 13.452L12.0379 13.2785L11.9186 13.0776L11.8269 12.8493L11.8086 12.6027L11.8269 12.347L11.9186 12.1187L12.0379 11.9269L12.2213 11.7443L12.423 11.6256L12.6431 11.5342L12.8999 11.5068Z" fill="#3C64B1"/>
<path fill-rule="evenodd" clip-rule="evenodd" d="M12.8999 26.3013L13.1475 26.3469L13.3859 26.4497L13.5877 26.6095L13.7528 26.8264L13.8903 27.0775L13.9637 27.3629L14.0004 27.6711L13.9637 27.9908L13.8903 28.2647L13.7528 28.5159L13.5877 28.7328L13.3859 28.8926L13.1475 28.9953L12.8999 29.041L12.6431 28.9953L12.423 28.8926L12.2213 28.7328L12.0379 28.5159L11.9186 28.2647L11.8269 27.9908L11.8086 27.6711L11.8269 27.3629L11.9186 27.0775L12.0379 26.8264L12.2213 26.6095L12.423 26.4497L12.6431 26.3469L12.8999 26.3013Z" fill="#3C64B1"/>
<path fill-rule="evenodd" clip-rule="evenodd" d="M5.50756 18.6301L5.81578 18.6532L6.10116 18.7688L6.35231 18.9191L6.5692 19.1272L6.72902 19.3815L6.83176 19.6821L6.87742 19.9942L6.83176 20.3179L6.72902 20.5953L6.5692 20.8728L6.35231 21.0808L6.10116 21.2311L5.81578 21.3467L5.50756 21.3699L5.19934 21.3467L4.91395 21.2311L4.66281 21.0808L4.44591 20.8728L4.2861 20.5953L4.18336 20.3179L4.1377 19.9942L4.18336 19.6821L4.2861 19.3815L4.44591 19.1272L4.66281 18.9191L4.91395 18.7688L5.19934 18.6532L5.50756 18.6301Z" fill="#3C64B1"/>
<path fill-rule="evenodd" clip-rule="evenodd" d="M20.3015 18.6301L20.6123 18.6532L20.9116 18.7688L21.1649 18.9191L21.3721 19.1272L21.5217 19.3815L21.6368 19.6821L21.6714 19.9942L21.6368 20.3179L21.5217 20.5953L21.3721 20.8728L21.1649 21.0808L20.9116 21.2311L20.6123 21.3467L20.3015 21.3699L19.9792 21.3467L19.7029 21.2311L19.4381 21.0808L19.2194 20.8728L19.0698 20.5953L18.9547 20.3179L18.9316 19.9942L18.9547 19.6821L19.0698 19.3815L19.2194 19.1272L19.4381 18.9191L19.7029 18.7688L19.9792 18.6532L20.3015 18.6301Z" fill="#3C64B1"/>
<path fill-rule="evenodd" clip-rule="evenodd" d="M7.7047 24.1096L8.0142 24.1326L8.30079 24.2362L8.55298 24.3974L8.77078 24.6161L8.93127 24.8694L9.03444 25.1572L9.06883 25.468L9.03444 25.7903L8.93127 26.0781L8.77078 26.3313L8.55298 26.5385L8.30079 26.7112L8.0142 26.8033L7.7047 26.8493L7.38373 26.8033L7.09714 26.7112L6.84495 26.5385L6.63861 26.3313L6.47813 26.0781L6.37495 25.7903L6.3291 25.468L6.37495 25.1572L6.47813 24.8694L6.63861 24.6161L6.84495 24.3974L7.09714 24.2362L7.38373 24.1326L7.7047 24.1096Z" fill="#3C64B1"/>
<path fill-rule="evenodd" clip-rule="evenodd" d="M7.7047 13.6987L8.0142 13.7264L8.30079 13.8092L8.55298 13.9382L8.77078 14.1039L8.93127 14.3157L9.03444 14.546L9.06883 14.8038L9.03444 15.0525L8.93127 15.2827L8.77078 15.4853L8.55298 15.6603L8.30079 15.78L8.0142 15.8721L7.7047 15.8905L7.38373 15.8721L7.09714 15.78L6.84495 15.6603L6.63861 15.4853L6.47813 15.2827L6.37495 15.0525L6.3291 14.8038L6.37495 14.546L6.47813 14.3157L6.63861 14.1039L6.84495 13.9382L7.09714 13.8092L7.38373 13.7264L7.7047 13.6987Z" fill="#3C64B1"/>
<path fill-rule="evenodd" clip-rule="evenodd" d="M18.1044 24.1096L18.4139 24.1326L18.7119 24.2362L18.9641 24.3974L19.1705 24.6161L19.3424 24.8694L19.4341 25.1572L19.48 25.468L19.4341 25.7903L19.3424 26.0781L19.1705 26.3313L18.9641 26.5385L18.7119 26.7112L18.4139 26.8033L18.1044 26.8493L17.7834 26.8033L17.5083 26.7112L17.2561 26.5385L17.0383 26.3313L16.8778 26.0781L16.7632 25.7903L16.7402 25.468L16.7632 25.1572L16.8778 24.8694L17.0383 24.6161L17.2561 24.3974L17.5083 24.2362L17.7834 24.1326L18.1044 24.1096Z" fill="#3C64B1"/>
<path fill-rule="evenodd" clip-rule="evenodd" d="M6.53505 30.7676L7.77753 37.4954H17.7383L18.9912 30.7676L18.2917 31.1449L17.5608 31.4907L16.809 31.7841L16.0364 32.0356L15.2429 32.2243L14.4285 32.3815L13.6036 32.4758L12.7579 32.4967L11.9017 32.4758L11.0769 32.3815L10.2625 32.2243L9.46898 32.0356L8.70679 31.7841L7.95503 31.4907L7.2346 31.1449L6.53505 30.7676ZM12.7579 9.99738L11.86 10.0288L10.962 10.1441L10.1059 10.3537L9.28104 10.6261L8.48752 10.951L7.72533 11.3597L7.01534 11.8208L6.33667 12.3448L5.72065 12.9211L5.1464 13.5604L4.62434 14.2311L4.16494 14.9542L3.75774 15.7087L3.42363 16.5156L3.15216 17.3435L2.95378 18.2028L2.83893 19.0831L2.79716 19.9948L2.83893 20.917L2.95378 21.7972L3.15216 22.6565L3.42363 23.4844L3.75774 24.2808L4.16494 25.0458L4.62434 25.7584L5.1464 26.4396L5.72065 27.0684L6.33667 27.6343L7.01534 28.1582L7.72533 28.6193L8.48752 29.028L9.28104 29.3634L10.1059 29.6358L10.962 29.8349L11.86 29.9502L12.7579 29.9921L13.6663 29.9502L14.5433 29.8349L15.3995 29.6358L16.2243 29.3634L17.0283 29.028L17.78 28.6193L18.49 28.1582L19.1687 27.6343L19.7952 27.0684L20.3799 26.4396L20.8915 25.7584L21.3613 25.0458L21.7476 24.2808L22.0922 23.4844L22.3637 22.6565L22.5516 21.7972L22.6873 20.917L22.7186 19.9948L22.6873 19.0831L22.5516 18.2028L22.3637 17.3435L22.0922 16.5156L21.7476 15.7087L21.3613 14.9542L20.8915 14.2311L20.3799 13.5604L19.7952 12.9211L19.1687 12.3448L18.49 11.8208L17.78 11.3597L17.0283 10.951L16.2243 10.6261L15.3995 10.3537L14.5433 10.1441L13.6663 10.0288L12.7579 9.99738ZM7.90283 2.50459L6.66034 9.23238L7.35989 8.84464L8.08032 8.5093L8.83208 8.2054L9.60472 7.96437L10.3982 7.75478L11.2022 7.61855L12.0375 7.52424L12.8832 7.50328L13.8542 7.54519L14.7939 7.66047L15.7127 7.8491L16.6106 8.1006L17.4773 8.42546L18.3125 8.79225L19.1165 9.23238L17.8636 2.50459H7.90283ZM7.90283 0H17.8636L18.2603 0.0209589L18.6362 0.115271L18.9912 0.261984L19.3044 0.461096L19.5968 0.702121L19.8578 0.985069L20.0562 1.29945L20.2128 1.65575L20.3172 2.04349L22.1131 11.8103L22.6873 12.5124L23.2094 13.267L23.6897 14.0529L24.0969 14.8808L24.4519 15.7401L24.7442 16.6309L24.9635 17.5426L25.0888 17.5111L25.2141 17.5007L25.6108 17.5216L25.9971 17.6264L26.3521 17.7731L26.6862 17.9722L26.9786 18.2342L27.2292 18.5276L27.4171 18.842L27.5737 19.1983L27.6781 19.5965L27.699 19.9948L27.6781 20.4035L27.5737 20.7912L27.4171 21.1475L27.2292 21.4724L26.9786 21.7658L26.6862 22.0173L26.3521 22.2164L25.9971 22.3736L25.6108 22.4574L25.2141 22.4993L25.0888 22.4784L24.9635 22.4469L24.7755 23.2748L24.5145 24.0817L24.2117 24.8782L23.8567 25.6327L23.4495 26.3558L22.9901 27.0474L22.4994 27.7181L21.9669 28.3573L20.1815 37.9565L20.0875 38.3442L19.9309 38.7006L19.7325 39.0149L19.4715 39.2979L19.1791 39.5389L18.8659 39.738L18.5005 39.8847L18.135 39.979L17.7383 40H7.77753L7.38078 39.979L7.0049 39.8847L6.66034 39.738L6.32623 39.5389L6.04432 39.2979L5.79374 39.0149L5.58492 38.7006L5.41786 38.3442L5.32389 37.9565L3.55936 28.3469L2.9851 27.6657L2.45261 26.9321L1.98276 26.1671L1.55468 25.3707L1.1788 24.5428L0.876014 23.6835L0.635871 22.8032L0.458373 21.902L0.343522 20.9484L0.301758 19.9948L0.343522 19.0202L0.458373 18.0456L0.646312 17.1129L0.896896 16.2117L1.22057 15.3314L1.59645 14.4826L2.04541 13.6757L2.55702 12.9002L3.09995 12.1666L3.71597 11.475L5.44919 2.04349L5.56404 1.65575L5.72065 1.29945L5.91903 0.985069L6.16962 0.702121L6.46197 0.461096L6.78564 0.261984L7.14063 0.115271L7.51651 0.0209589L7.90283 0Z" fill="#3C64B1"/>
<path fill-rule="evenodd" clip-rule="evenodd" d="M19.0649 13.6987L19.2138 13.7305L19.3415 13.8259L19.4373 13.953L19.4798 14.112L19.4479 14.2497L19.3841 14.398L16.3092 18.2125L13.9578 21.0203L13.7663 21.1792L13.5429 21.2852L13.3088 21.3488L13.0641 21.37L12.8194 21.3488L12.5853 21.2746L12.3619 21.158L12.1703 20.9991L12.0107 20.8084L11.8937 20.5965L11.8299 20.3634L11.8086 20.1197L11.8299 19.876L11.8937 19.6323L12.0214 19.4098L12.181 19.2191L18.7776 13.8047L18.9053 13.7199L19.0649 13.6987Z" fill="#3C64B1"/>
</svg>
