<svg width="42" height="42" viewBox="0 0 42 42" fill="none" xmlns="http://www.w3.org/2000/svg">
<path d="M32.807 23.574C32.3284 23.574 31.9406 23.9619 31.9406 24.4404V27.7883C31.9406 33.704 27.1274 38.5172 21.2117 38.5172C15.296 38.5172 10.4829 33.704 10.4829 27.7883V15.6062C10.4829 15.1278 10.0951 14.7398 9.61644 14.7398C9.13793 14.7398 8.75 15.1277 8.75 15.6062V27.7883C8.75 34.66 14.3401 40.2501 21.2117 40.2501C28.0834 40.2501 33.6735 34.66 33.6735 27.7883V24.4404C33.6735 23.9619 33.2856 23.574 32.807 23.574Z" fill="#3C64B1" stroke="#3C64B1" stroke-width="0.5"/>
<path d="M21.2117 0.75C14.3401 0.75 8.75 6.34009 8.75 13.2117V16.1405C8.75 16.619 9.13793 17.0069 9.61644 17.0069C10.0951 17.0069 10.4829 16.619 10.4829 16.1405V13.2117C10.4829 7.58797 14.8331 2.96083 20.345 2.5181V6.47897C19.2821 6.8405 18.5149 7.84795 18.5149 9.03252V12.589C18.5149 13.7736 19.2821 14.7811 20.345 15.1426V19.3203C20.345 19.7988 20.7328 20.1867 21.2114 20.1867C21.69 20.1867 22.0778 19.7988 22.0778 19.3203V15.1426C23.1407 14.7811 23.9079 13.7736 23.9079 12.589V9.03252C23.9079 7.84795 23.1407 6.8405 22.0778 6.47897V2.518C27.59 2.96041 31.9406 7.58764 31.9406 13.2116V24.9745C31.9406 25.453 32.3284 25.841 32.807 25.841C33.2856 25.841 33.6735 25.453 33.6735 24.9745V13.2117C33.6735 6.34009 28.0834 0.75 21.2117 0.75ZM22.175 9.03252V12.589C22.175 13.1202 21.7425 13.5527 21.2114 13.5527C20.6803 13.5527 20.2478 13.1202 20.2478 12.589V9.03252C20.2478 8.50139 20.6803 8.06888 21.2114 8.06888C21.7425 8.06888 22.175 8.50139 22.175 9.03252Z" fill="#3C64B1" stroke="#3C64B1" stroke-width="0.5"/>
</svg>
