<svg width="40" height="40" viewBox="0 0 40 40" fill="none" xmlns="http://www.w3.org/2000/svg">
<path d="M31.297 0H8.70312C3.90422 0 0 3.90422 0 8.70312C0 13.502 3.90422 17.4062 8.70312 17.4062H31.297C36.0958 17.4062 40 13.502 40 8.70312C40 3.90422 36.0958 0 31.297 0ZM8.70312 15.0624C5.19656 15.0624 2.34375 12.2097 2.34375 8.70312C2.34375 5.19656 5.19656 2.34375 8.70312 2.34375C12.2097 2.34375 15.0625 5.19656 15.0625 8.70312C15.0625 12.2097 12.2097 15.0624 8.70312 15.0624ZM31.297 15.0624H14.638C16.3402 13.4728 17.4062 11.2103 17.4062 8.70312C17.4062 6.19586 16.3402 3.93328 14.6379 2.34375H31.297C34.8034 2.34375 37.6562 5.19656 37.6562 8.70312C37.6562 12.2097 34.8034 15.0624 31.297 15.0624Z" fill="#3C64B1"/>
<path d="M31.297 22.5938H8.70312C3.90422 22.5938 0 26.498 0 31.297C0 36.0958 3.90422 40 8.70312 40H31.297C36.0958 40 40 36.0958 40 31.297C40 26.498 36.0958 22.5938 31.297 22.5938ZM8.70312 37.6563C5.19656 37.6563 2.34375 34.8034 2.34375 31.297C2.34375 27.7904 5.19656 24.9376 8.70312 24.9376H25.3621C23.6599 26.5272 22.5938 28.7898 22.5938 31.297C22.5938 33.8041 23.6598 36.0667 25.3621 37.6563H8.70312ZM31.297 37.6563C27.7904 37.6563 24.9376 34.8034 24.9376 31.297C24.9376 27.7904 27.7904 24.9376 31.297 24.9376C34.8035 24.9376 37.6562 27.7904 37.6562 31.297C37.6562 34.8034 34.8034 37.6563 31.297 37.6563Z" fill="#3C64B1"/>
</svg>
