<svg width="42" height="42" viewBox="0 0 42 42" fill="none" xmlns="http://www.w3.org/2000/svg">
<path d="M35.0881 13.363C34.7688 10.0072 31.9236 7.3733 28.4724 7.3733C27.7962 7.3733 27.1347 7.47321 26.5038 7.66787C26.3784 3.41841 22.8688 0 18.5728 0C14.1978 0 10.6385 3.54539 10.6385 7.9033V8.45595H9.9322C4.45679 8.45595 0.00224415 12.8929 0.00224415 18.3469C0.00224415 22.0379 2.07189 25.3879 5.27638 27.0842L0.625255 35.1086C-0.208418 36.547 -0.208418 38.2645 0.625255 39.7029C1.45893 41.1412 2.95218 42 4.61961 42H25.7657C27.4332 42 28.9263 41.1412 29.7601 39.7029C30.5938 38.2645 30.5938 36.5471 29.7601 35.1086L25.7776 28.2379H34.5226C38.6457 28.2379 42 24.8966 42 20.7898C41.9999 16.8724 38.9479 13.6518 35.0881 13.363ZM27.6171 38.4705C27.2307 39.1372 26.5385 39.5352 25.7658 39.5352H4.61961C3.84679 39.5352 3.15469 39.1372 2.76828 38.4705C2.38187 37.8039 2.38187 37.0077 2.76828 36.3411L13.3413 18.0999C13.7277 17.4332 14.4199 17.0352 15.1928 17.0352C15.9656 17.0352 16.6578 17.4332 17.0442 18.0999L27.6171 36.3411C28.0035 37.0077 28.0035 37.8039 27.6171 38.4705ZM34.5226 25.7731H24.349L19.1871 16.8674C18.3533 15.4291 16.8601 14.5703 15.1926 14.5703C13.5252 14.5704 12.032 15.4291 11.1983 16.8674L6.51474 24.9478C4.06454 23.6876 2.47683 21.1482 2.47683 18.3469C2.47683 14.252 5.82132 10.9207 9.93228 10.9207H13.1131V7.9033C13.1131 4.90448 15.5624 2.46479 18.5729 2.46479C21.5835 2.46479 24.0328 4.90448 24.0328 7.9033V12.0895L26.0035 10.6446C26.7233 10.1169 27.577 9.83801 28.4724 9.83801C30.7723 9.83801 32.6434 11.7018 32.6434 13.9926C32.6434 14.1384 32.635 14.29 32.6186 14.443L32.4721 15.8066H34.5226C37.2812 15.8066 39.5255 18.0421 39.5255 20.7898C39.5254 23.5376 37.2812 25.7731 34.5226 25.7731Z" fill="#3C64B1"/>
<path d="M13.6641 35.1072C13.6641 34.2941 14.3044 33.6882 15.2006 33.6882C16.0969 33.6882 16.7371 34.2941 16.7371 35.1072C16.7371 35.9043 16.0969 36.558 15.2006 36.558C14.3044 36.558 13.6641 35.9043 13.6641 35.1072ZM13.7122 25.2705H16.6891L16.193 32.5564H14.2083L13.7122 25.2705Z" fill="#3C64B1"/>
</svg>
