<svg width="40" height="36" viewBox="0 0 40 36" fill="none" xmlns="http://www.w3.org/2000/svg">
<path fill-rule="evenodd" clip-rule="evenodd" d="M28.3349 0H29.169L29.9908 0.0460346L30.8004 0.165719L31.5977 0.349847L32.4072 0.58001L33.18 0.865412L33.9405 1.23367L34.6642 1.63876L35.3756 2.09909L36.0626 2.63306L36.7127 3.22228L37.3014 3.84832L37.8412 4.5204L38.3195 5.22009L38.7366 5.94741L39.1046 6.68393L39.399 7.45727L39.6443 8.23062L39.816 9.02239L39.9387 9.82335L40 10.6335V11.4253L39.9387 12.2355L39.816 13.0364L39.6443 13.8282L39.399 14.6015L39.1046 15.3657L38.7366 16.1114L38.3195 16.8387L37.8412 17.5384L37.3014 18.2105L36.7127 18.8365L22.9991 32.2965L22.7783 32.4622L22.5207 32.5819L22.2508 32.6463H21.9687L21.6989 32.5819L21.4535 32.4622L21.2205 32.2965L21.0488 32.0663L20.9261 31.8269L20.8648 31.5599V31.2929L20.9261 31.026L21.0488 30.7682L21.2205 30.5564L34.7623 17.2714L35.2653 16.7282L35.7314 16.1482L36.1239 15.5498L36.4673 14.9238L36.7495 14.2701L36.9825 13.6072L37.142 12.9259L37.2646 12.2355L37.3137 11.545V10.8637L37.2646 10.164L37.142 9.48271L36.9825 8.79222L36.7495 8.12935L36.4673 7.48489L36.1239 6.85885L35.7314 6.26043L35.2653 5.68042L34.7623 5.13723L34.1981 4.62167L33.6216 4.17976L33.0083 3.79308L32.3704 3.45244L31.6958 3.17625L31.0212 2.95529L30.3343 2.78958L29.6351 2.6791L28.9359 2.62386H28.2245L27.513 2.6791L26.8139 2.78958L26.127 2.95529L25.4523 3.17625L24.7899 3.45244L24.1521 3.79308L23.5388 4.17976L22.95 4.62167L22.398 5.13723L4.32996 22.6388L3.90064 23.1084L3.52039 23.6055L3.21374 24.1303L2.95615 24.6735L2.75989 25.2351L2.6127 25.8059L2.52683 26.3859L2.5023 26.9751L2.52683 27.5735L2.6127 28.1535L2.75989 28.7335L2.95615 29.2859L3.21374 29.8291L3.52039 30.3447L3.90064 30.8418L4.32996 31.3114L4.79608 31.7349L5.31125 32.1031L5.8387 32.4161L6.39068 32.6647L6.96719 32.858L7.55597 32.9962L8.14474 33.079L8.74578 33.1158L9.34682 33.079L9.93561 32.9962L10.5244 32.858L11.0886 32.6647L11.6529 32.4161L12.1926 32.1031L12.6955 31.7349L13.1616 31.3114L31.4014 13.6256L31.7081 13.285L31.9657 12.9167L32.1865 12.5117L32.3459 12.1066L32.444 11.6831L32.5054 11.2504V10.8084L32.444 10.3757L32.3459 9.95224L32.1865 9.54716L31.9657 9.14207L31.7081 8.77381L31.4014 8.42396L31.0457 8.12014L30.6654 7.86236L30.2729 7.65982L29.8436 7.50331L29.4143 7.40204L28.9727 7.35601H28.5189L28.0895 7.40204L27.6602 7.50331L27.2309 7.65982L26.8384 7.86236L26.4581 8.12014L26.1024 8.42396L12.4011 21.8747L12.168 22.0588L11.9227 22.1693L11.6406 22.2337H11.3585L11.1009 22.1693L10.8433 22.0588L10.6225 21.8747L10.4385 21.6629L10.3159 21.4051L10.2668 21.1382V20.8804L10.3159 20.6134L10.4385 20.3648L10.6225 20.1346L24.3238 6.69314L24.8022 6.26963L25.3051 5.91058L25.8448 5.58836L26.3968 5.33978L26.9733 5.14644L27.5498 4.99914L28.1509 4.91628L28.7396 4.88866L29.353 4.91628L29.9417 4.99914L30.5305 5.14644L31.0948 5.33978L31.6467 5.58836L32.1987 5.91058L32.7016 6.26963L33.1677 6.69314L33.5971 7.15346L33.965 7.65061L34.284 8.17538L34.5415 8.71857L34.7378 9.28017L34.885 9.86018L34.9709 10.4402L34.9954 11.0294L34.9709 11.6094L34.885 12.1986L34.7378 12.7694L34.5415 13.3402L34.284 13.8834L33.965 14.399L33.5971 14.8961L33.1677 15.3657L14.9279 33.0514L14.376 33.5485L13.7872 33.9997L13.1739 34.3863L12.536 34.7178L11.8737 35.0032L11.1868 35.2149L10.4998 35.3898L9.80068 35.4911L9.1015 35.5556H8.39006L7.67863 35.4911L6.97945 35.3898L6.29255 35.2149L5.61791 35.0032L4.95554 34.7178L4.31769 34.3863L3.70439 33.9997L3.11561 33.5485L2.56363 33.0514L2.04845 32.5082L1.58234 31.9282L1.18982 31.3298L0.858632 30.6945L0.57651 30.0501L0.343453 29.378L0.171726 28.7059L0.0613309 28.0154L0 27.3249V26.6437L0.0613309 25.9347L0.171726 25.2535L0.343453 24.5722L0.57651 23.9093L0.858632 23.2649L1.18982 22.6388L1.58234 22.0404L2.04845 21.4604L2.56363 20.908L20.7912 3.22228L21.4413 2.63306L22.1282 2.09909L22.8274 1.63876L23.5633 1.23367L24.3238 0.865412L25.0966 0.58001L25.9062 0.349847L26.7035 0.165719L27.513 0.0460346L28.3349 0Z" fill="#3C64B1"/>
</svg>
