<svg width="42" height="42" viewBox="0 0 42 42" fill="none" xmlns="http://www.w3.org/2000/svg">
<g clip-path="url(#clip0)">
<path d="M38.1089 33.9894L38.2042 33.8427L38.1089 33.9894C38.5701 34.2888 39.1864 34.1578 39.4857 33.6967C41.5431 30.5283 42.4689 26.7023 42.0932 22.9227C41.7121 19.0894 39.9997 15.4759 37.2711 12.7473C34.9749 10.4512 32.1719 8.96294 29.219 8.28186V6.47088C30.4412 6.10528 31.335 4.97117 31.335 3.6309C31.335 1.99631 30.0055 0.666797 28.3709 0.666797H22.4645C20.8299 0.666797 19.5004 1.99631 19.5004 3.6309C19.5004 4.9711 20.3942 6.1052 21.6163 6.47087V8.2879C18.6726 8.97163 15.8789 10.4577 13.5892 12.7474C13.1022 13.2344 12.6514 13.7443 12.237 14.2737H6.41224C5.86262 14.2737 5.41691 14.7193 5.41691 15.269C5.41691 15.8187 5.86261 16.2643 6.41224 16.2643H10.8989C10.3832 17.1651 9.95819 18.1039 9.62339 19.0674H0.820325C0.270703 19.0674 -0.175 19.513 -0.175 20.0627C-0.175 20.6124 0.270703 21.058 0.820325 21.058H9.06689C8.86895 21.9824 8.74974 22.9203 8.70918 23.8611H5.25008C4.70046 23.8611 4.25476 24.3067 4.25476 24.8564C4.25476 25.4061 4.70046 25.8517 5.25008 25.8517H8.74065C8.81133 26.7946 8.9613 27.7326 9.19062 28.6548H4.10163C3.552 28.6548 3.1063 29.1004 3.1063 29.6501C3.1063 30.1999 3.55201 30.6455 4.10163 30.6455H9.81909C10.6339 32.7545 11.8906 34.7307 13.5892 36.4294C16.3204 39.1606 19.9376 40.8734 23.7749 41.2525C24.3226 41.3065 24.8707 41.3333 25.4179 41.3333C28.6525 41.3333 31.8461 40.3973 34.5565 38.6323C35.0172 38.3323 35.1475 37.7157 34.8475 37.255C34.5475 36.7944 33.9309 36.6641 33.4702 36.9641C27.6697 40.7413 19.8997 39.9247 14.9968 35.0218C9.24397 29.2689 9.24397 19.908 14.9968 14.1551C20.7496 8.40229 30.1105 8.40229 35.8634 14.1551C40.7598 19.0515 41.581 26.8149 37.8162 32.6126C37.5169 33.0736 37.6479 33.6901 38.1089 33.9894ZM21.4911 3.63099C21.4911 3.09434 21.9279 2.65753 22.4645 2.65753H28.3709C28.9075 2.65753 29.3443 3.09434 29.3443 3.63099C29.3443 4.16763 28.9075 4.60444 28.3709 4.60444H28.2237H22.6116H22.4645C21.9279 4.60444 21.4911 4.16755 21.4911 3.63099ZM27.2284 7.94664C26.025 7.81774 24.8101 7.81863 23.6069 7.9493V6.59509H27.2284V7.94664Z" fill="#3C64B1" stroke="#3C64B1" stroke-width="0.35"/>
<path d="M37.2711 35.0215L37.2708 35.0212C37.0849 34.8363 36.8298 34.7299 36.5674 34.7299C36.3043 34.7299 36.0491 34.8362 35.8639 35.0214C35.6773 35.2071 35.5721 35.4634 35.5721 35.7252C35.5721 35.9869 35.6772 36.2432 35.8637 36.4289C36.0494 36.6154 36.3049 36.7205 36.5674 36.7205C36.8295 36.7205 37.0848 36.6152 37.2711 36.4289C37.4564 36.2436 37.5627 35.9874 37.5627 35.7252C37.5627 35.463 37.4565 35.2069 37.2711 35.0215Z" fill="#3C64B1" stroke="#3C64B1" stroke-width="0.35"/>
<path d="M25.4297 11.6877C18.3162 11.6877 12.5291 17.4747 12.5291 24.5883C12.5291 31.7019 18.3162 37.4889 25.4297 37.4889C32.5433 37.4889 38.3304 31.7019 38.3304 24.5883C38.3304 17.4747 32.5433 11.6877 25.4297 11.6877ZM25.4297 35.4983C19.4141 35.4983 14.5198 30.6039 14.5198 24.5883C14.5198 18.5727 19.4141 13.6783 25.4297 13.6783C31.4454 13.6783 36.3397 18.5727 36.3397 24.5883C36.3397 30.6039 31.4454 35.4983 25.4297 35.4983Z" fill="#3C64B1" stroke="#3C64B1" stroke-width="0.35"/>
<path d="M30.4951 18.1153L30.4951 18.1153L26.5186 22.0917C26.1849 21.9456 25.8166 21.8641 25.4298 21.8641C25.0429 21.8641 24.6746 21.9456 24.341 22.0917L22.6091 20.3599L22.6091 20.3598C22.2204 19.9712 21.5903 19.9712 21.2015 20.3598L21.2015 20.3599C20.8128 20.7485 20.8128 21.3788 21.2015 21.7675L22.9333 23.4993C22.7871 23.833 22.7057 24.2013 22.7057 24.5881C22.7057 26.0903 23.9275 27.3122 25.4298 27.3122C26.9321 27.3122 28.1539 26.0903 28.1539 24.5881C28.1539 24.2013 28.0724 23.833 27.9263 23.4993L31.7835 19.6421L31.9027 19.5229C32.2914 19.1342 32.2914 18.504 31.9027 18.1153C31.514 17.7266 30.8839 17.7266 30.4951 18.1153ZM25.4298 25.3216C25.0255 25.3216 24.6964 24.9924 24.6964 24.5882C24.6964 24.184 25.0255 23.8548 25.4298 23.8548C25.834 23.8548 26.1632 24.184 26.1632 24.5882C26.1632 24.9924 25.834 25.3216 25.4298 25.3216Z" fill="#3C64B1" stroke="#3C64B1" stroke-width="0.35"/>
<path d="M34.2014 23.603H33.4414C32.8918 23.603 32.4461 24.0485 32.4461 24.5983C32.4461 25.148 32.8918 25.5936 33.4414 25.5936H34.2014C34.751 25.5936 35.1967 25.148 35.1967 24.5983C35.1967 24.0485 34.751 23.603 34.2014 23.603Z" fill="#3C64B1" stroke="#3C64B1" stroke-width="0.35"/>
<path d="M17.4191 23.5829H16.6592C16.1096 23.5829 15.6639 24.0285 15.6639 24.5782C15.6639 25.128 16.1096 25.5736 16.6592 25.5736H17.4191C17.9687 25.5736 18.4144 25.128 18.4144 24.5782C18.4144 24.0285 17.9687 23.5829 17.4191 23.5829Z" fill="#3C64B1" stroke="#3C64B1" stroke-width="0.35"/>
<path d="M25.4404 17.5728C25.99 17.5728 26.4357 17.1272 26.4357 16.5774V15.8175C26.4357 15.2678 25.99 14.8222 25.4404 14.8222C24.8908 14.8222 24.4451 15.2678 24.4451 15.8175V16.5774C24.4451 17.1272 24.8908 17.5728 25.4404 17.5728Z" fill="#3C64B1" stroke="#3C64B1" stroke-width="0.35"/>
<path d="M25.4199 31.6038C24.8703 31.6038 24.4246 32.0494 24.4246 32.5991V33.3591C24.4246 33.9088 24.8703 34.3544 25.4199 34.3544C25.9695 34.3544 26.4152 33.9088 26.4152 33.3591V32.5991C26.4152 32.0494 25.9695 31.6038 25.4199 31.6038Z" fill="#3C64B1" stroke="#3C64B1" stroke-width="0.35"/>
<path d="M0.116608 28.9462C0.30196 28.7608 0.558094 28.6546 0.820312 28.6546C1.08249 28.6546 1.33862 28.7608 1.5239 28.9462C1.52391 28.9462 1.52392 28.9462 1.52394 28.9462C1.52395 28.9462 1.52396 28.9462 1.52397 28.9462C1.70939 29.1316 1.81562 29.3877 1.81562 29.6499C1.81562 29.9121 1.70927 30.1683 1.52397 30.3536L0.116608 28.9462ZM0.116608 28.9462C-0.0687443 29.1315 -0.175 29.3877 -0.175 29.6499M0.116608 28.9462L-0.175 29.6499M-0.175 29.6499C-0.175 29.913 -0.0687877 30.1683 0.116641 30.3536M-0.175 29.6499L0.116641 30.3536M0.116641 30.3536C0.302042 30.5389 0.558068 30.6452 0.820312 30.6452M0.116641 30.3536L0.820312 30.6452M0.820312 30.6452C1.08251 30.6452 1.33865 30.539 1.52394 30.3536L0.820312 30.6452Z" fill="#3C64B1" stroke="#3C64B1" stroke-width="0.35"/>
</g>
<defs>
<clipPath id="clip0">
<rect width="42" height="42" fill="white"/>
</clipPath>
</defs>
</svg>
