<svg width="42" height="42" viewBox="0 0 42 42" fill="none" xmlns="http://www.w3.org/2000/svg">
<g clip-path="url(#clip0)">
<path d="M37.7072 6.80075L21.6291 0.125293C21.2263 -0.0418862 20.7736 -0.0419683 20.3709 0.125293L4.29278 6.80075C3.68041 7.05505 3.28125 7.65289 3.28125 8.31595V16.4309C3.28125 27.6046 10.0348 37.6557 20.38 41.8782C20.7774 42.0404 21.2226 42.0404 21.62 41.8782C31.965 37.6557 38.7188 27.6047 38.7188 16.4309V8.31595C38.7188 7.65289 38.3197 7.05505 37.7072 6.80075ZM35.4375 16.4309C35.4375 25.9297 29.8594 34.674 21 38.5772C12.3774 34.7782 6.5625 26.1871 6.5625 16.4309V9.41123L21 3.41688L35.4375 9.41123V16.4309ZM19.1866 21.9609L26.2384 14.9093C26.879 14.2686 27.9178 14.2685 28.5585 14.9093C29.1993 15.55 29.1992 16.5888 28.5584 17.2295L20.3467 25.4412C19.7059 26.082 18.6671 26.0818 18.0265 25.4412L13.4415 20.8561C12.8007 20.2154 12.8007 19.1766 13.4415 18.536C14.0822 17.8953 15.121 17.8952 15.7616 18.536L19.1866 21.9609Z" fill="#3C64B1"/>
</g>
<defs>
<clipPath id="clip0">
<rect width="42" height="42" fill="white"/>
</clipPath>
</defs>
</svg>
