<svg width="42" height="42" viewBox="0 0 42 42" fill="none" xmlns="http://www.w3.org/2000/svg">
<g clip-path="url(#clip0)">
<path d="M1.76432 34.2279C1.29665 34.2279 0.828986 34.0444 0.483139 33.6756C-0.187473 32.9679 -0.155727 31.8509 0.551964 31.1803L14.1051 18.3507C14.4668 18.0084 14.9574 17.8336 15.4498 17.8724C15.9457 17.9095 16.4028 18.1548 16.708 18.5448L22.0234 25.3496L38.9823 8.29176C39.6705 7.60351 40.7858 7.59646 41.4776 8.28471C42.1694 8.97115 42.1729 10.0883 41.4846 10.78L23.1139 29.2567C22.7574 29.6167 22.2562 29.7932 21.7568 29.7737C21.2504 29.7437 20.7827 29.4984 20.4703 29.0979L15.1179 22.2455L2.97486 33.7426C2.63607 34.0673 2.20015 34.2279 1.76432 34.2279Z" fill="#3C64B1"/>
<path d="M40.235 25.4218C39.2591 25.4218 38.4702 24.633 38.4702 23.6571V11.304H26.1173C25.1414 11.304 24.3525 10.5134 24.3525 9.53929C24.3525 8.56516 25.1414 7.77454 26.1173 7.77454H40.2351C41.2109 7.77454 41.9998 8.56516 41.9998 9.53929V23.6571C41.9997 24.6312 41.2091 25.4218 40.235 25.4218Z" fill="#3C64B1"/>
</g>
<defs>
<clipPath id="clip0">
<rect width="42" height="42" fill="white"/>
</clipPath>
</defs>
</svg>
