<svg width="634" height="578" viewBox="0 0 634 578" fill="none" xmlns="http://www.w3.org/2000/svg">
<g opacity="0.7">
<path opacity="0.7" d="M470.929 240.577C470.994 220.993 466.303 201.685 457.258 184.312C452.964 176.153 449.047 171.081 445.999 167.971C444.85 166.752 443.349 165.923 441.705 165.599C440.062 165.275 438.358 165.472 436.831 166.162C435.612 166.592 434.51 167.303 433.615 168.236C429.537 172.456 425.854 178.034 422.638 183.974C413.122 201.753 408.183 221.62 408.267 241.783V253.888H400.498V113.225C400.498 83.7417 393.896 54.6526 380.964 28.8268C374.836 16.6012 369.247 9.00536 364.945 4.33535C363.903 3.14817 362.619 2.19699 361.179 1.54535C359.74 0.89372 358.178 0.556641 356.597 0.556641C355.017 0.556641 353.455 0.89372 352.016 1.54535C350.576 2.19699 349.292 3.14817 348.25 4.33535C342.428 10.6612 337.176 19.0206 332.584 27.9105C318.985 54.2667 312.077 84.1757 312.077 114.535V253.888H305.362V241.204C305.446 221.041 300.507 201.175 290.992 183.395C287.775 177.464 284.092 171.885 280.014 167.657C278.841 166.422 277.305 165.591 275.628 165.285C273.951 164.978 272.221 165.213 270.686 165.953L270.967 166.106C269.983 166.541 269.092 167.163 268.346 167.939C265.33 171.049 261.413 176.121 257.087 184.28C248.042 201.653 243.351 220.96 243.416 240.545V450.848H267.381L264.767 468.138V519.83H284.357V468.138L281.743 450.848H305.362V259.329H312.077V449.988H331.217L328.467 468.13V519.83H348.065V468.138L345.315 449.996H371.105L368.355 468.138V519.83H387.953V468.138L385.203 449.996H400.482V259.329H408.251V451.138H414.547V450.848H435.368L432.754 468.138V519.83H452.352V468.138L449.739 450.848H470.929V240.577Z" fill="url(#paint0_linear)"/>
</g>
<path d="M288.258 458.058H269.705L273.018 435.544H284.944L288.258 458.058Z" fill="#535461"/>
<g opacity="0.1">
<path opacity="0.1" d="M272.093 444.482H285.869L284.944 438.189H273.018L272.093 444.482Z" fill="black"/>
</g>
<path d="M447.295 458.058H428.742L432.055 435.544H443.982L447.295 458.058Z" fill="#535461"/>
<g opacity="0.1">
<path opacity="0.1" d="M431.13 444.482H444.906L443.981 438.189H432.055L431.13 444.482Z" fill="black"/>
</g>
<path d="M348.564 458.058H330.003L333.316 435.544H345.25L348.564 458.058Z" fill="#535461"/>
<g opacity="0.1">
<path opacity="0.1" d="M332.392 444.482H346.175L345.251 438.189H333.316L332.392 444.482Z" fill="black"/>
</g>
<path d="M386.328 458.058H367.775L371.089 435.544H383.015L386.328 458.058Z" fill="#535461"/>
<g opacity="0.1">
<path opacity="0.1" d="M370.164 444.482H383.948L383.015 438.189H371.089L370.164 444.482Z" fill="black"/>
</g>
<path d="M420.788 249.427H288.258V254.724H420.788V249.427Z" fill="#535461"/>
<path opacity="0.1" d="M441.279 165.728C440.578 164.956 439.724 164.338 438.77 163.915C437.817 163.493 436.785 163.274 435.742 163.274C434.699 163.274 433.667 163.493 432.713 163.915C431.76 164.338 430.905 164.956 430.205 165.728C426.345 169.836 422.863 175.269 419.815 181.049C410.796 198.428 406.129 217.735 406.216 237.314V441.227H464.866V236.47C464.939 217.428 460.5 198.64 451.91 181.643C447.841 173.702 444.134 168.759 441.279 165.728Z" fill="#3C64B1"/>
<path opacity="0.1" d="M273.098 165.728C273.798 164.956 274.653 164.338 275.606 163.915C276.56 163.493 277.592 163.274 278.635 163.274C279.678 163.274 280.71 163.493 281.663 163.915C282.617 164.338 283.471 164.956 284.172 165.728C288.032 169.836 291.514 175.269 294.562 181.049C303.581 198.428 308.247 217.735 308.161 237.314V441.227H249.495V236.47C249.421 217.428 253.861 198.64 262.451 181.643C266.512 173.702 270.219 168.759 273.098 165.728Z" fill="#3C64B1"/>
<path d="M249.825 240.818L263.738 240.883V258.036H249.825V240.818Z" fill="#535461"/>
<path d="M294.225 240.818L308.137 240.883V258.036H294.225V240.818Z" fill="#535461"/>
<path d="M406.208 240.818L420.129 240.883V258.036H406.208V240.818Z" fill="#535461"/>
<path d="M450.607 240.818L464.528 240.883V258.036H450.607V240.818Z" fill="#535461"/>
<g opacity="0.1">
<path opacity="0.1" d="M294.538 180.783C291.498 175.004 288.008 169.57 284.148 165.463C283.057 164.259 281.602 163.444 280.005 163.144C278.408 162.844 276.756 163.074 275.302 163.799C276.14 164.217 276.897 164.78 277.537 165.463C281.398 169.57 284.88 175.004 287.928 180.783C296.947 198.163 301.613 217.47 301.526 237.049V440.946H308.153V237.073C308.239 217.485 303.567 198.169 294.538 180.783Z" fill="black"/>
</g>
<g opacity="0.1">
<path opacity="0.1" d="M425.09 181.346C428.13 175.567 431.62 170.133 435.48 166.026C436.203 165.248 437.076 164.625 438.046 164.193C436.612 163.565 435.018 163.405 433.488 163.734C431.958 164.063 430.57 164.864 429.521 166.026C425.661 170.133 422.179 175.567 419.131 181.346C410.112 198.726 405.446 218.033 405.532 237.611V441.508H411.5V237.643C411.405 218.055 416.069 198.736 425.09 181.346Z" fill="black"/>
</g>
<path d="M288.258 458.058H269.705V508.392H288.258V458.058Z" fill="url(#paint1_linear)"/>
<path d="M348.556 458.058H330.003V508.392H348.556V458.058Z" fill="url(#paint2_linear)"/>
<path d="M386.328 458.058H367.775V508.392H386.328V458.058Z" fill="url(#paint3_linear)"/>
<path d="M447.295 458.058H428.742V508.392H447.295V458.058Z" fill="url(#paint4_linear)"/>
<path d="M364.535 5.8546C363.566 4.70319 362.356 3.77755 360.991 3.14253C359.627 2.50751 358.139 2.17847 356.634 2.17847C355.128 2.17847 353.641 2.50751 352.276 3.14253C350.911 3.77755 349.702 4.70319 348.733 5.8546C343.224 12.0116 338.278 20.154 333.903 28.8189C321.036 54.4919 314.49 83.6293 314.49 113.177V440.391H398.198V111.858C398.198 83.147 391.95 54.7893 379.702 29.703C373.904 17.7989 368.612 10.404 364.535 5.8546Z" fill="#B4BBFA" fill-opacity="0.4"/>
<path d="M368.757 42.2019H342.774C337.888 42.2019 333.928 46.1605 333.928 51.0436V53.3665C333.928 58.2497 337.888 62.2082 342.774 62.2082H368.757C373.643 62.2082 377.603 58.2497 377.603 53.3665V51.0436C377.603 46.1605 373.643 42.2019 368.757 42.2019Z" fill="#3C64B1"/>
<g opacity="0.7">
<path opacity="0.7" d="M551.348 502.894C548.602 486.34 539.715 471.429 526.459 461.132C513.203 450.836 496.552 445.91 479.825 447.337C463.098 448.763 447.522 456.438 436.204 468.83C424.885 481.223 418.654 497.424 418.753 514.203C418.753 514.533 418.753 514.854 418.753 515.184C416.285 515.557 413.841 516.081 411.435 516.751C408.355 504.489 401.536 493.487 391.923 485.27C382.31 477.053 370.379 472.026 357.781 470.886C345.183 469.746 332.543 472.549 321.61 478.907C310.676 485.266 301.992 494.864 296.758 506.374C291.363 504.294 285.697 503 279.934 502.532C279.015 497.316 277.474 492.229 275.342 487.381C274.342 472.081 267.607 457.721 256.482 447.166C245.357 436.61 230.659 430.635 215.321 430.432C199.983 430.229 185.132 435.813 173.731 446.071C162.33 456.329 155.218 470.506 153.813 485.773C150.655 492.456 148.638 499.62 147.846 506.969C133.886 512.774 122.58 523.552 116.118 537.215C109.656 550.877 108.5 566.451 112.872 580.918H601.482C604.029 572.48 604.715 563.59 603.494 554.861C602.273 546.133 599.173 537.772 594.408 530.356C589.643 522.94 583.326 516.645 575.892 511.904C568.458 507.163 560.085 504.089 551.348 502.894Z" fill="url(#paint5_linear)"/>
</g>
<path d="M220.118 550.478C252.465 550.478 278.687 524.269 278.687 491.938C278.687 459.607 252.465 433.398 220.118 433.398C187.771 433.398 161.549 459.607 161.549 491.938C161.549 524.269 187.771 550.478 220.118 550.478Z" fill="url(#paint6_linear)"/>
<path d="M219.829 577.992C255.249 577.992 283.963 549.292 283.963 513.89C283.963 478.487 255.249 449.787 219.829 449.787C184.408 449.787 155.694 478.487 155.694 513.89C155.694 549.292 184.408 577.992 219.829 577.992Z" fill="url(#paint7_linear)"/>
<path d="M480.467 577.992C515.888 577.992 544.601 549.292 544.601 513.89C544.601 478.487 515.888 449.787 480.467 449.787C445.047 449.787 416.333 478.487 416.333 513.89C416.333 549.292 445.047 577.992 480.467 577.992Z" fill="url(#paint8_linear)"/>
<path d="M477.242 577.992C509.589 577.992 535.811 551.783 535.811 519.452C535.811 487.121 509.589 460.912 477.242 460.912C444.895 460.912 418.673 487.121 418.673 519.452C418.673 551.783 444.895 577.992 477.242 577.992Z" fill="url(#paint9_linear)"/>
<path d="M411.058 530.576C411.067 539.833 408.876 548.961 404.665 557.206C400.454 565.451 394.343 572.578 386.836 578H318.134C310.002 572.125 303.516 564.262 299.297 555.164C295.077 546.066 293.266 536.037 294.036 526.039C294.807 516.04 298.133 506.407 303.696 498.061C309.26 489.716 316.874 482.939 325.809 478.378C334.745 473.817 344.703 471.626 354.728 472.015C364.754 472.404 374.512 475.359 383.067 480.598C391.622 485.837 398.688 493.184 403.588 501.935C408.487 510.686 411.057 520.548 411.05 530.576H411.058Z" fill="url(#paint10_linear)"/>
<path d="M483.691 572.727C483.691 574.479 483.614 576.213 483.458 577.928C483.464 577.951 483.464 577.976 483.458 578H366.786C366.625 576.264 366.545 574.503 366.545 572.735C366.535 558.727 371.556 545.18 380.694 534.56C389.833 523.939 402.482 516.949 416.34 514.862C419.237 514.427 422.161 514.207 425.09 514.203C426.586 514.203 428.074 514.259 429.545 514.364C440.043 515.166 450.131 518.78 458.748 524.825C467.366 530.87 474.196 539.123 478.52 548.718C478.762 549.248 478.995 549.787 479.212 550.325C482.17 557.424 483.692 565.037 483.691 572.727Z" fill="url(#paint11_linear)"/>
<path d="M594.389 561.016C594.395 566.767 593.55 572.488 591.88 577.992H479.776C477.065 568.99 476.55 559.471 478.272 550.229C478.368 549.723 478.465 549.208 478.577 548.71C481.4 535.622 488.623 523.895 499.045 515.484C509.466 507.073 522.457 502.485 535.852 502.484C537.693 502.484 539.503 502.564 541.296 502.741C542.1 502.805 542.905 502.902 543.709 503.006C557.746 504.915 570.616 511.844 579.934 522.51C589.253 533.176 594.388 546.856 594.389 561.016Z" fill="url(#paint12_linear)"/>
<path d="M234.601 578C234.794 577.389 234.963 576.778 235.132 576.159C237.798 566.192 237.784 555.698 235.09 545.739C232.396 535.779 227.118 526.708 219.79 519.441C212.462 512.175 203.344 506.972 193.359 504.359C183.373 501.745 172.874 501.814 162.924 504.558C160.594 505.197 158.308 505.986 156.08 506.921C142.667 512.498 131.803 522.855 125.595 535.983C119.388 549.112 118.278 564.076 122.481 577.976H234.601V578Z" fill="url(#paint13_linear)"/>
<g opacity="0.7">
<path opacity="0.7" d="M572.129 457.6C578.062 457.6 582.873 452.793 582.873 446.862C582.873 440.931 578.062 436.123 572.129 436.123C566.195 436.123 561.385 440.931 561.385 446.862C561.385 452.793 566.195 457.6 572.129 457.6Z" fill="url(#paint14_linear)"/>
</g>
<path d="M572.129 456.813C577.627 456.813 582.085 452.357 582.085 446.862C582.085 441.366 577.627 436.911 572.129 436.911C566.63 436.911 562.173 441.366 562.173 446.862C562.173 452.357 566.63 456.813 572.129 456.813Z" fill="url(#paint15_linear)"/>
<g opacity="0.7">
<path opacity="0.7" d="M621.329 562.189C627.801 562.189 633.046 556.946 633.046 550.478C633.046 544.01 627.801 538.767 621.329 538.767C614.858 538.767 609.612 544.01 609.612 550.478C609.612 556.946 614.858 562.189 621.329 562.189Z" fill="url(#paint16_linear)"/>
</g>
<path d="M621.329 561.602C627.476 561.602 632.459 556.622 632.459 550.478C632.459 544.334 627.476 539.354 621.329 539.354C615.182 539.354 610.199 544.334 610.199 550.478C610.199 556.622 615.182 561.602 621.329 561.602Z" fill="url(#paint17_linear)"/>
<g opacity="0.7">
<path opacity="0.7" d="M119.964 496.608C127.075 496.608 132.839 490.847 132.839 483.74C132.839 476.632 127.075 470.871 119.964 470.871C112.853 470.871 107.089 476.632 107.089 483.74C107.089 490.847 112.853 496.608 119.964 496.608Z" fill="url(#paint18_linear)"/>
</g>
<path d="M119.965 496.029C126.756 496.029 132.261 490.527 132.261 483.739C132.261 476.952 126.756 471.449 119.965 471.449C113.174 471.449 107.669 476.952 107.669 483.739C107.669 490.527 113.174 496.029 119.965 496.029Z" fill="url(#paint19_linear)"/>
<path opacity="0.2" d="M535.097 41.9832C535.097 50.4668 531.865 58.632 526.057 64.8182C520.248 71.0043 512.3 74.7467 503.83 75.2842C503.13 75.3325 502.422 75.3566 501.715 75.3566C496.596 75.3535 491.546 74.174 486.957 71.9091C482.367 69.6442 478.359 66.3546 475.245 62.2946C472.13 58.2347 469.991 53.5132 468.993 48.4951C467.995 43.477 468.165 38.2968 469.49 33.3549C470.815 28.4131 473.259 23.842 476.634 19.995C480.009 16.148 484.223 13.1282 488.952 11.1691C493.68 9.20996 498.796 8.36398 503.904 8.69654C509.012 9.02911 513.975 10.5313 518.41 13.087C522.277 15.3319 525.659 18.3239 528.358 21.8885C532.74 27.6709 535.107 34.7289 535.097 41.9832Z" fill="#3C64B1"/>
<path opacity="0.05" d="M556.608 12.1884C557.576 12.1884 558.361 11.4038 558.361 10.4361C558.361 9.46835 557.576 8.68384 556.608 8.68384C555.639 8.68384 554.854 9.46835 554.854 10.4361C554.854 11.4038 555.639 12.1884 556.608 12.1884Z" fill="#F55F44"/>
<path opacity="0.25" d="M582.084 243.141C584.349 243.141 586.185 241.306 586.185 239.042C586.185 236.778 584.349 234.943 582.084 234.943C579.819 234.943 577.982 236.778 577.982 239.042C577.982 241.306 579.819 243.141 582.084 243.141Z" fill="#535461"/>
<path opacity="0.25" d="M35.2342 350.849C37.4993 350.849 39.3356 349.014 39.3356 346.75C39.3356 344.486 37.4993 342.65 35.2342 342.65C32.9691 342.65 31.1328 344.486 31.1328 346.75C31.1328 349.014 32.9691 350.849 35.2342 350.849Z" fill="#535461"/>
<path opacity="0.25" d="M233.002 179.915C235.267 179.915 237.103 178.08 237.103 175.816C237.103 173.552 235.267 171.717 233.002 171.717C230.737 171.717 228.9 173.552 228.9 175.816C228.9 178.08 230.737 179.915 233.002 179.915Z" fill="#535461"/>
<path opacity="0.25" d="M219.531 85.6628C221.796 85.6628 223.632 83.8274 223.632 81.5634C223.632 79.2994 221.796 77.4641 219.531 77.4641C217.266 77.4641 215.43 79.2994 215.43 81.5634C215.43 83.8274 217.266 85.6628 219.531 85.6628Z" fill="#535461"/>
<path opacity="0.25" d="M103.559 272.407C105.825 272.407 107.661 270.572 107.661 268.308C107.661 266.044 105.825 264.208 103.559 264.208C101.294 264.208 99.458 266.044 99.458 268.308C99.458 270.572 101.294 272.407 103.559 272.407Z" fill="#535461"/>
<path opacity="0.25" d="M484.568 76.4273H480.917V72.7781H479.429V76.4273H475.778V77.9143H479.429V81.5635H480.917V77.9143H484.568V76.4273Z" fill="#535461"/>
<path opacity="0.25" d="M510.335 373.813H506.692V370.172H505.204V373.813H501.553V375.308H505.204V378.95H506.692V375.308H510.335V373.813Z" fill="#535461"/>
<path opacity="0.25" d="M136.659 123.843H133.008V120.202H131.52V123.843H127.869V125.33H131.52V128.979H133.008V125.33H136.659V123.843Z" fill="#535461"/>
<path opacity="0.25" d="M9.59742 171.266H5.94639V167.625H4.45864V171.266H0.807617V172.753H4.45864V176.403H5.94639V172.753H9.59742V171.266Z" fill="#535461"/>
<path opacity="0.25" d="M187.026 320.546H183.375V316.897H181.887V320.546H178.244V322.033H181.887V325.682H183.375V322.033H187.026V320.546Z" fill="#535461"/>
<path d="M621.329 561.602C627.476 561.602 632.459 556.622 632.459 550.478C632.459 544.334 627.476 539.354 621.329 539.354C615.182 539.354 610.199 544.334 610.199 550.478C610.199 556.622 615.182 561.602 621.329 561.602Z" fill="url(#paint20_linear)"/>
<g opacity="0.4">
<path opacity="0.4" d="M217.102 241.935C215.743 240.139 214.04 238.63 212.092 237.499C209.857 236.199 207.353 235.431 204.774 235.255C202.195 235.079 199.61 235.499 197.22 236.484C194.829 237.468 192.698 238.99 190.991 240.931C189.285 242.871 188.049 245.179 187.379 247.675C186.709 250.171 186.624 252.787 187.13 255.321C187.636 257.855 188.719 260.239 190.296 262.286C191.872 264.334 193.9 265.991 196.221 267.129C198.542 268.267 201.095 268.854 203.68 268.846C204.034 268.846 204.396 268.846 204.741 268.846C207.772 268.653 210.693 267.643 213.196 265.924C215.698 264.205 217.689 261.841 218.956 259.083C220.223 256.325 220.72 253.275 220.394 250.257C220.067 247.24 218.93 244.367 217.102 241.943V241.935Z" fill="url(#paint21_linear)"/>
</g>
<path opacity="0.2" d="M219.572 252.063C219.572 256.104 218.031 259.993 215.265 262.939C212.498 265.885 208.712 267.667 204.678 267.922C204.348 267.922 204.011 267.922 203.673 267.922C201.235 267.92 198.831 267.357 196.646 266.278C194.461 265.199 192.553 263.632 191.07 261.698C189.587 259.764 188.569 257.516 188.095 255.126C187.62 252.737 187.701 250.27 188.332 247.917C188.963 245.564 190.127 243.387 191.734 241.555C193.341 239.724 195.347 238.285 197.599 237.352C199.85 236.419 202.286 236.016 204.719 236.173C207.151 236.331 209.514 237.046 211.626 238.262C213.467 239.331 215.077 240.754 216.363 242.45C218.459 245.216 219.586 248.594 219.572 252.063Z" fill="#3C64B1"/>
<path opacity="0.1" d="M199.757 241.984C198.921 242.335 198.114 242.752 197.344 243.23C196.839 243.505 196.405 243.893 196.073 244.363C195.92 244.603 195.839 244.882 195.839 245.167C195.839 245.452 195.92 245.73 196.073 245.971C196.307 246.2 196.588 246.376 196.896 246.487C197.204 246.598 197.532 246.641 197.859 246.614C198.442 246.733 199.046 246.697 199.61 246.509C200.175 246.322 200.68 245.989 201.076 245.545L202.443 244.307C202.917 243.873 203.44 243.286 203.247 242.699C203.139 242.477 202.976 242.287 202.773 242.146C202.57 242.005 202.335 241.919 202.089 241.895C200.914 241.666 199.696 241.881 198.671 242.498" fill="#F55F44"/>
<path opacity="0.1" d="M194.046 259.169C194.508 259.169 194.883 258.794 194.883 258.333C194.883 257.871 194.508 257.497 194.046 257.497C193.584 257.497 193.21 257.871 193.21 258.333C193.21 258.794 193.584 259.169 194.046 259.169Z" fill="#F55F44"/>
<path opacity="0.1" d="M211.063 256.106C212.76 256.106 214.135 254.732 214.135 253.036C214.135 251.34 212.76 249.965 211.063 249.965C209.367 249.965 207.991 251.34 207.991 253.036C207.991 254.732 209.367 256.106 211.063 256.106Z" fill="#F55F44"/>
<path opacity="0.1" d="M216.363 242.522C216.353 243.323 216.113 244.104 215.672 244.772C215.23 245.44 214.606 245.968 213.873 246.292C213.141 246.615 212.331 246.722 211.539 246.599C210.747 246.476 210.008 246.128 209.408 245.597C208.809 245.066 208.374 244.374 208.157 243.603C207.94 242.833 207.948 242.016 208.182 241.25C208.416 240.484 208.864 239.801 209.475 239.283C210.086 238.765 210.833 238.433 211.627 238.326C213.468 239.398 215.078 240.824 216.363 242.522Z" fill="#F55F44"/>
<path opacity="0.1" d="M216.676 261.218C215.309 263.164 213.522 264.778 211.446 265.94C209.37 267.102 207.06 267.782 204.686 267.93C204.686 267.713 204.686 267.488 204.686 267.263C204.681 265.862 205.068 264.487 205.802 263.293C206.537 262.099 207.59 261.134 208.844 260.506C210.097 259.878 211.501 259.612 212.898 259.738C214.294 259.864 215.628 260.376 216.748 261.218H216.676Z" fill="#F55F44"/>
<g opacity="0.1">
<path opacity="0.1" d="M397.749 124.365H314.917V127.58H397.749V124.365Z" fill="black"/>
</g>
<defs>
<linearGradient id="paint0_linear" x1="357.176" y1="519.83" x2="357.176" y2="0.581648" gradientUnits="userSpaceOnUse">
<stop stop-color="#808080" stop-opacity="0.25"/>
<stop offset="0.54" stop-color="#808080" stop-opacity="0.12"/>
<stop offset="1" stop-color="#808080" stop-opacity="0.1"/>
</linearGradient>
<linearGradient id="paint1_linear" x1="278.977" y1="458.058" x2="278.977" y2="508.4" gradientUnits="userSpaceOnUse">
<stop stop-color="#E0E0E0"/>
<stop offset="0.31" stop-color="#FCCC63"/>
<stop offset="0.77" stop-color="#F55F44"/>
</linearGradient>
<linearGradient id="paint2_linear" x1="8138.66" y1="31523.8" x2="8138.66" y2="34676.1" gradientUnits="userSpaceOnUse">
<stop stop-color="#E0E0E0"/>
<stop offset="0.31" stop-color="#FCCC63"/>
<stop offset="0.77" stop-color="#F55F44"/>
</linearGradient>
<linearGradient id="paint3_linear" x1="9047.83" y1="31523.8" x2="9047.83" y2="34676.1" gradientUnits="userSpaceOnUse">
<stop stop-color="#E0E0E0"/>
<stop offset="0.31" stop-color="#FCCC63"/>
<stop offset="0.77" stop-color="#F55F44"/>
</linearGradient>
<linearGradient id="paint4_linear" x1="10515.3" y1="31523.8" x2="10515.3" y2="34676.1" gradientUnits="userSpaceOnUse">
<stop stop-color="#E0E0E0"/>
<stop offset="0.31" stop-color="#FCCC63"/>
<stop offset="0.77" stop-color="#F55F44"/>
</linearGradient>
<linearGradient id="paint5_linear" x1="286796" y1="126098" x2="286796" y2="97917" gradientUnits="userSpaceOnUse">
<stop stop-color="#808080" stop-opacity="0.25"/>
<stop offset="0.54" stop-color="#808080" stop-opacity="0.12"/>
<stop offset="1" stop-color="#808080" stop-opacity="0.1"/>
</linearGradient>
<linearGradient id="paint6_linear" x1="220.118" y1="433.398" x2="220.118" y2="550.478" gradientUnits="userSpaceOnUse">
<stop stop-color="#F2F2F2"/>
<stop offset="0.31" stop-color="#E6E6E6"/>
<stop offset="0.77" stop-color="#CCCCCC"/>
</linearGradient>
<linearGradient id="paint7_linear" x1="35089.6" y1="78258.3" x2="35089.6" y2="98706.9" gradientUnits="userSpaceOnUse">
<stop stop-color="#F2F2F2"/>
<stop offset="0.31" stop-color="#E6E6E6"/>
<stop offset="0.77" stop-color="#CCCCCC"/>
</linearGradient>
<linearGradient id="paint8_linear" x1="76922" y1="78258.3" x2="76922" y2="98706.9" gradientUnits="userSpaceOnUse">
<stop stop-color="#F2F2F2"/>
<stop offset="0.31" stop-color="#E6E6E6"/>
<stop offset="0.77" stop-color="#CCCCCC"/>
</linearGradient>
<linearGradient id="paint9_linear" x1="69816.2" y1="73138.3" x2="69816.2" y2="90192.2" gradientUnits="userSpaceOnUse">
<stop stop-color="#F2F2F2"/>
<stop offset="0.31" stop-color="#E6E6E6"/>
<stop offset="0.77" stop-color="#CCCCCC"/>
</linearGradient>
<linearGradient id="paint10_linear" x1="67648" y1="74643.1" x2="67648" y2="88620.9" gradientUnits="userSpaceOnUse">
<stop stop-color="#F2F2F2"/>
<stop offset="0.31" stop-color="#E6E6E6"/>
<stop offset="0.77" stop-color="#CCCCCC"/>
</linearGradient>
<linearGradient id="paint11_linear" x1="78272.5" y1="48488.1" x2="78272.5" y2="53552.9" gradientUnits="userSpaceOnUse">
<stop stop-color="#F2F2F2"/>
<stop offset="0.31" stop-color="#E6E6E6"/>
<stop offset="0.77" stop-color="#CCCCCC"/>
</linearGradient>
<linearGradient id="paint12_linear" x1="94483.2" y1="56182.8" x2="94483.2" y2="63277.6" gradientUnits="userSpaceOnUse">
<stop stop-color="#F2F2F2"/>
<stop offset="0.31" stop-color="#E6E6E6"/>
<stop offset="0.77" stop-color="#CCCCCC"/>
</linearGradient>
<linearGradient id="paint13_linear" x1="42106.8" y1="56215.3" x2="42106.8" y2="63314.2" gradientUnits="userSpaceOnUse">
<stop stop-color="#F2F2F2"/>
<stop offset="0.31" stop-color="#E6E6E6"/>
<stop offset="0.77" stop-color="#CCCCCC"/>
</linearGradient>
<linearGradient id="paint14_linear" x1="15827.1" y1="13679.7" x2="15827.1" y2="13105.8" gradientUnits="userSpaceOnUse">
<stop stop-color="#808080" stop-opacity="0.25"/>
<stop offset="0.54" stop-color="#808080" stop-opacity="0.12"/>
<stop offset="1" stop-color="#808080" stop-opacity="0.1"/>
</linearGradient>
<linearGradient id="paint15_linear" x1="14708.1" y1="12196.7" x2="14708.1" y2="12689.5" gradientUnits="userSpaceOnUse">
<stop stop-color="#F2F2F2"/>
<stop offset="0.31" stop-color="#E6E6E6"/>
<stop offset="0.77" stop-color="#CCCCCC"/>
</linearGradient>
<linearGradient id="paint16_linear" x1="18691.6" y1="18029.5" x2="18691.6" y2="17347.2" gradientUnits="userSpaceOnUse">
<stop stop-color="#808080" stop-opacity="0.25"/>
<stop offset="0.54" stop-color="#808080" stop-opacity="0.12"/>
<stop offset="1" stop-color="#808080" stop-opacity="0.1"/>
</linearGradient>
<linearGradient id="paint17_linear" x1="621.329" y1="539.354" x2="621.329" y2="561.602" gradientUnits="userSpaceOnUse">
<stop stop-color="#F2F2F2"/>
<stop offset="0.31" stop-color="#E0E0E0"/>
<stop offset="0.77" stop-color="#B3B3B3"/>
</linearGradient>
<linearGradient id="paint18_linear" x1="3922.49" y1="17590.3" x2="3922.49" y2="16766.2" gradientUnits="userSpaceOnUse">
<stop stop-color="#808080" stop-opacity="0.25"/>
<stop offset="0.54" stop-color="#808080" stop-opacity="0.12"/>
<stop offset="1" stop-color="#808080" stop-opacity="0.1"/>
</linearGradient>
<linearGradient id="paint19_linear" x1="3751.49" y1="16051.7" x2="3751.49" y2="16803.6" gradientUnits="userSpaceOnUse">
<stop stop-color="#F2F2F2"/>
<stop offset="0.31" stop-color="#E6E6E6"/>
<stop offset="0.77" stop-color="#CCCCCC"/>
</linearGradient>
<linearGradient id="paint20_linear" x1="17786.2" y1="16521.6" x2="17786.2" y2="17137.5" gradientUnits="userSpaceOnUse">
<stop stop-color="#F2F2F2"/>
<stop offset="0.31" stop-color="#E6E6E6"/>
<stop offset="0.77" stop-color="#CCCCCC"/>
</linearGradient>
<linearGradient id="paint21_linear" x1="13313.4" y1="15261" x2="13313.4" y2="13853.9" gradientUnits="userSpaceOnUse">
<stop stop-color="#808080" stop-opacity="0.25"/>
<stop offset="0.54" stop-color="#808080" stop-opacity="0.12"/>
<stop offset="1" stop-color="#808080" stop-opacity="0.1"/>
</linearGradient>
</defs>
</svg>
