<svg width="431" height="604" viewBox="0 0 431 604" fill="none" xmlns="http://www.w3.org/2000/svg">
<path d="M147.198 530L142.698 517.184H144.21L148.134 528.74H147.558L151.572 517.184L152.706 517.202L156.648 528.74H156.09L160.05 517.184H161.508L157.026 530H155.766L151.914 518.948H152.31L148.44 530H147.198ZM169.925 528.92C169.529 529.292 169.019 529.586 168.395 529.802C167.783 530.018 167.153 530.126 166.505 530.126C165.569 530.126 164.759 529.94 164.075 529.568C163.403 529.196 162.881 528.662 162.509 527.966C162.149 527.258 161.969 526.418 161.969 525.446C161.969 524.51 162.149 523.688 162.509 522.98C162.869 522.272 163.367 521.72 164.003 521.324C164.651 520.928 165.395 520.73 166.235 520.73C167.039 520.73 167.729 520.91 168.305 521.27C168.881 521.618 169.319 522.122 169.619 522.782C169.931 523.442 170.087 524.234 170.087 525.158V525.428H163.247V524.474H169.259L168.791 525.14C168.815 524.084 168.605 523.274 168.161 522.71C167.729 522.146 167.093 521.864 166.253 521.864C165.377 521.864 164.687 522.176 164.183 522.8C163.691 523.412 163.445 524.264 163.445 525.356C163.445 526.532 163.703 527.42 164.219 528.02C164.747 528.62 165.515 528.92 166.523 528.92C167.051 528.92 167.555 528.836 168.035 528.668C168.527 528.488 168.995 528.218 169.439 527.858L169.925 528.92ZM180.468 530.126C179.664 530.126 178.956 529.94 178.344 529.568C177.744 529.184 177.276 528.644 176.94 527.948C176.616 527.24 176.454 526.412 176.454 525.464C176.454 524.516 176.622 523.688 176.958 522.98C177.294 522.272 177.762 521.72 178.362 521.324C178.974 520.928 179.676 520.73 180.468 520.73C181.296 520.73 181.998 520.934 182.574 521.342C183.15 521.75 183.54 522.332 183.744 523.088L183.528 523.232V520.946H184.968V530H183.528V527.66L183.744 527.768C183.54 528.524 183.15 529.106 182.574 529.514C181.998 529.922 181.296 530.126 180.468 530.126ZM180.756 528.92C181.644 528.92 182.328 528.62 182.808 528.02C183.288 527.408 183.528 526.544 183.528 525.428C183.528 524.312 183.282 523.454 182.79 522.854C182.31 522.254 181.632 521.954 180.756 521.954C179.868 521.954 179.172 522.266 178.668 522.89C178.176 523.502 177.93 524.36 177.93 525.464C177.93 526.568 178.176 527.42 178.668 528.02C179.172 528.62 179.868 528.92 180.756 528.92ZM187.787 530V523.484C187.787 523.064 187.775 522.644 187.751 522.224C187.739 521.792 187.703 521.366 187.643 520.946H189.029L189.227 523.178L189.029 523.124C189.197 522.332 189.557 521.738 190.109 521.342C190.673 520.934 191.303 520.73 191.999 520.73C192.155 520.73 192.299 520.742 192.431 520.766C192.575 520.778 192.707 520.802 192.827 520.838L192.791 522.17C192.515 522.074 192.197 522.026 191.837 522.026C191.213 522.026 190.709 522.164 190.325 522.44C189.953 522.716 189.677 523.07 189.497 523.502C189.329 523.922 189.245 524.366 189.245 524.834V530H187.787ZM201.549 528.92C201.153 529.292 200.643 529.586 200.019 529.802C199.407 530.018 198.777 530.126 198.129 530.126C197.193 530.126 196.383 529.94 195.699 529.568C195.027 529.196 194.505 528.662 194.133 527.966C193.773 527.258 193.593 526.418 193.593 525.446C193.593 524.51 193.773 523.688 194.133 522.98C194.493 522.272 194.991 521.72 195.627 521.324C196.275 520.928 197.019 520.73 197.859 520.73C198.663 520.73 199.353 520.91 199.929 521.27C200.505 521.618 200.943 522.122 201.243 522.782C201.555 523.442 201.711 524.234 201.711 525.158V525.428H194.871V524.474H200.883L200.415 525.14C200.439 524.084 200.229 523.274 199.785 522.71C199.353 522.146 198.717 521.864 197.877 521.864C197.001 521.864 196.311 522.176 195.807 522.8C195.315 523.412 195.069 524.264 195.069 525.356C195.069 526.532 195.327 527.42 195.843 528.02C196.371 528.62 197.139 528.92 198.147 528.92C198.675 528.92 199.179 528.836 199.659 528.668C200.151 528.488 200.619 528.218 201.063 527.858L201.549 528.92ZM208.617 530V516.752H210.075V530H208.617ZM216.65 530.126C215.786 530.126 215.03 529.934 214.382 529.55C213.746 529.166 213.248 528.626 212.888 527.93C212.54 527.222 212.366 526.388 212.366 525.428C212.366 524.48 212.54 523.652 212.888 522.944C213.248 522.236 213.746 521.69 214.382 521.306C215.03 520.922 215.786 520.73 216.65 520.73C217.514 520.73 218.264 520.922 218.9 521.306C219.548 521.69 220.046 522.236 220.394 522.944C220.754 523.652 220.934 524.48 220.934 525.428C220.934 526.388 220.754 527.222 220.394 527.93C220.046 528.626 219.548 529.166 218.9 529.55C218.264 529.934 217.514 530.126 216.65 530.126ZM216.65 528.92C217.538 528.92 218.222 528.626 218.702 528.038C219.194 527.438 219.44 526.568 219.44 525.428C219.44 524.312 219.194 523.454 218.702 522.854C218.21 522.254 217.526 521.954 216.65 521.954C215.774 521.954 215.084 522.254 214.58 522.854C214.088 523.454 213.842 524.312 213.842 525.428C213.842 526.568 214.082 527.438 214.562 528.038C215.054 528.626 215.75 528.92 216.65 528.92ZM227.005 530.126C226.117 530.126 225.349 529.934 224.701 529.55C224.053 529.166 223.549 528.626 223.189 527.93C222.841 527.234 222.667 526.412 222.667 525.464C222.667 524.528 222.847 523.706 223.207 522.998C223.567 522.278 224.077 521.72 224.737 521.324C225.397 520.928 226.177 520.73 227.077 520.73C227.689 520.73 228.277 520.838 228.841 521.054C229.417 521.258 229.891 521.546 230.263 521.918L229.777 522.998C229.333 522.65 228.895 522.392 228.463 522.224C228.043 522.044 227.605 521.954 227.149 521.954C226.237 521.954 225.511 522.26 224.971 522.872C224.443 523.484 224.179 524.348 224.179 525.464C224.179 526.568 224.443 527.42 224.971 528.02C225.499 528.62 226.225 528.92 227.149 528.92C227.593 528.92 228.031 528.836 228.463 528.668C228.895 528.488 229.333 528.224 229.777 527.876L230.263 528.956C229.879 529.316 229.393 529.604 228.805 529.82C228.229 530.024 227.629 530.126 227.005 530.126ZM235.593 530.126C234.789 530.126 234.081 529.94 233.469 529.568C232.869 529.184 232.401 528.644 232.065 527.948C231.741 527.24 231.579 526.412 231.579 525.464C231.579 524.516 231.747 523.688 232.083 522.98C232.419 522.272 232.887 521.72 233.487 521.324C234.099 520.928 234.801 520.73 235.593 520.73C236.421 520.73 237.123 520.934 237.699 521.342C238.275 521.75 238.665 522.332 238.869 523.088L238.653 523.232V520.946H240.093V530H238.653V527.66L238.869 527.768C238.665 528.524 238.275 529.106 237.699 529.514C237.123 529.922 236.421 530.126 235.593 530.126ZM235.881 528.92C236.769 528.92 237.453 528.62 237.933 528.02C238.413 527.408 238.653 526.544 238.653 525.428C238.653 524.312 238.407 523.454 237.915 522.854C237.435 522.254 236.757 521.954 235.881 521.954C234.993 521.954 234.297 522.266 233.793 522.89C233.301 523.502 233.055 524.36 233.055 525.464C233.055 526.568 233.301 527.42 233.793 528.02C234.297 528.62 234.993 528.92 235.881 528.92ZM241.634 522.098V520.946H247.448V522.098H241.634ZM247.412 528.704V529.946C247.208 530.006 247.004 530.048 246.8 530.072C246.608 530.108 246.392 530.126 246.152 530.126C245.312 530.126 244.64 529.886 244.136 529.406C243.644 528.926 243.398 528.206 243.398 527.246V518.624L244.856 518.102V527.048C244.856 527.528 244.922 527.9 245.054 528.164C245.198 528.428 245.39 528.614 245.63 528.722C245.87 528.818 246.14 528.866 246.44 528.866C246.62 528.866 246.782 528.854 246.926 528.83C247.07 528.806 247.232 528.764 247.412 528.704ZM256.621 528.92C256.225 529.292 255.715 529.586 255.091 529.802C254.479 530.018 253.849 530.126 253.201 530.126C252.265 530.126 251.455 529.94 250.771 529.568C250.099 529.196 249.577 528.662 249.205 527.966C248.845 527.258 248.665 526.418 248.665 525.446C248.665 524.51 248.845 523.688 249.205 522.98C249.565 522.272 250.063 521.72 250.699 521.324C251.347 520.928 252.091 520.73 252.931 520.73C253.735 520.73 254.425 520.91 255.001 521.27C255.577 521.618 256.015 522.122 256.315 522.782C256.627 523.442 256.783 524.234 256.783 525.158V525.428H249.943V524.474H255.955L255.487 525.14C255.511 524.084 255.301 523.274 254.857 522.71C254.425 522.146 253.789 521.864 252.949 521.864C252.073 521.864 251.383 522.176 250.879 522.8C250.387 523.412 250.141 524.264 250.141 525.356C250.141 526.532 250.399 527.42 250.915 528.02C251.443 528.62 252.211 528.92 253.219 528.92C253.747 528.92 254.251 528.836 254.731 528.668C255.223 528.488 255.691 528.218 256.135 527.858L256.621 528.92ZM266.97 530H265.53V527.57L265.746 527.768C265.542 528.524 265.152 529.106 264.576 529.514C264 529.922 263.298 530.126 262.47 530.126C261.678 530.126 260.976 529.934 260.364 529.55C259.764 529.154 259.296 528.602 258.96 527.894C258.624 527.174 258.456 526.34 258.456 525.392C258.456 524.444 258.618 523.622 258.942 522.926C259.278 522.23 259.746 521.69 260.346 521.306C260.958 520.922 261.666 520.73 262.47 520.73C263.298 520.73 264 520.94 264.576 521.36C265.152 521.768 265.542 522.344 265.746 523.088L265.512 523.268V516.752H266.97V530ZM262.758 528.92C263.634 528.92 264.312 528.62 264.792 528.02C265.284 527.408 265.53 526.544 265.53 525.428C265.53 524.324 265.29 523.472 264.81 522.872C264.33 522.26 263.646 521.954 262.758 521.954C261.87 521.954 261.174 522.254 260.67 522.854C260.178 523.454 259.932 524.3 259.932 525.392C259.932 526.508 260.178 527.378 260.67 528.002C261.174 528.614 261.87 528.92 262.758 528.92ZM274.482 530V520.946H275.94V530H274.482ZM274.338 517.112H276.12V518.768H274.338V517.112ZM278.771 530V523.484C278.771 523.064 278.759 522.644 278.735 522.224C278.723 521.792 278.687 521.366 278.627 520.946H280.013L280.175 522.818L279.995 522.962C280.247 522.23 280.667 521.678 281.255 521.306C281.843 520.922 282.521 520.73 283.289 520.73C285.461 520.73 286.547 521.924 286.547 524.312V530H285.089V524.384C285.089 523.544 284.921 522.932 284.585 522.548C284.249 522.152 283.721 521.954 283.001 521.954C282.161 521.954 281.489 522.212 280.985 522.728C280.481 523.244 280.229 523.94 280.229 524.816V530H278.771Z" fill="black"/>
<path d="M59.744 603.08C56.336 603.08 52.976 602.72 49.664 602C46.4 601.232 43.784 600.176 41.816 598.832C41.192 598.4 40.88 598.016 40.88 597.68C40.88 597.344 40.976 597.056 41.168 596.816L43.544 593.072C43.832 592.64 44.096 592.424 44.336 592.424C44.576 592.424 44.888 592.544 45.272 592.784C47.048 593.84 49.112 594.704 51.464 595.376C53.816 596 56.192 596.312 58.592 596.312C61.856 596.312 64.304 595.784 65.936 594.728C67.616 593.624 68.456 591.872 68.456 589.472C68.456 588.032 68.144 586.88 67.52 586.016C66.896 585.152 65.984 584.408 64.784 583.784C63.584 583.16 61.64 582.32 58.952 581.264L57.296 580.616C54.176 579.368 51.584 578.168 49.52 577.016C47.504 575.864 45.824 574.352 44.48 572.48C43.136 570.608 42.464 568.328 42.464 565.64C42.464 561.272 44.12 557.912 47.432 555.56C50.792 553.16 55.184 551.96 60.608 551.96C63.92 551.96 66.776 552.272 69.176 552.896C71.624 553.52 73.736 554.48 75.512 555.776C76.088 556.208 76.376 556.616 76.376 557C76.376 557.288 76.28 557.552 76.088 557.792L73.784 561.536C73.496 561.968 73.256 562.184 73.064 562.184C72.872 562.184 72.56 562.04 72.128 561.752C69.056 559.784 65.24 558.8 60.68 558.8C57.656 558.8 55.376 559.352 53.84 560.456C52.304 561.56 51.536 563.312 51.536 565.712C51.536 567.2 51.848 568.4 52.472 569.312C53.144 570.176 54.104 570.92 55.352 571.544C56.6 572.168 58.616 573.008 61.4 574.064L63.2 574.784C66.704 576.176 69.44 577.472 71.408 578.672C73.376 579.824 74.888 581.288 75.944 583.064C77.048 584.792 77.6 587.024 77.6 589.76C77.6 593.888 76.04 597.152 72.92 599.552C69.848 601.904 65.456 603.08 59.744 603.08ZM97.3104 602C96.3504 602 95.6544 601.784 95.2224 601.352C94.8384 600.92 94.6464 600.272 94.6464 599.408V555.704C94.6464 554.792 94.8384 554.12 95.2224 553.688C95.6544 553.256 96.3504 553.04 97.3104 553.04H127.262C128.222 553.04 128.87 553.232 129.206 553.616C129.59 554 129.782 554.648 129.782 555.56V557.504C129.782 558.416 129.59 559.088 129.206 559.52C128.87 559.904 128.222 560.096 127.262 560.096H103.862V574.064H120.854C121.814 574.064 122.486 574.256 122.87 574.64C123.254 575.024 123.446 575.672 123.446 576.584V578.384C123.446 579.296 123.254 579.968 122.87 580.4C122.486 580.784 121.814 580.976 120.854 580.976H103.862V595.016H127.19C128.15 595.016 128.822 595.232 129.206 595.664C129.59 596.048 129.782 596.696 129.782 597.608V599.552C129.782 600.416 129.59 601.04 129.206 601.424C128.822 601.808 128.15 602 127.19 602H97.3104ZM145.915 602C145.099 602 144.691 601.64 144.691 600.92C144.691 600.632 144.763 600.32 144.907 599.984L163.915 554.912C164.203 554.192 164.515 553.712 164.851 553.472C165.187 553.184 165.667 553.04 166.291 553.04H170.251C170.923 553.04 171.403 553.184 171.691 553.472C172.027 553.712 172.339 554.192 172.627 554.912L191.635 599.984C191.779 600.32 191.851 600.632 191.851 600.92C191.851 601.64 191.443 602 190.627 602H184.363C183.739 602 183.283 601.928 182.995 601.784C182.755 601.592 182.515 601.232 182.275 600.704L178.171 590.624H158.299L154.267 600.704C154.027 601.232 153.763 601.592 153.475 601.784C153.235 601.928 152.803 602 152.179 602H145.915ZM175.867 583.928L168.235 565.064L160.603 583.928H175.867ZM214.912 602C213.952 602 213.256 601.784 212.824 601.352C212.392 600.92 212.176 600.272 212.176 599.408V560.096H199.576C198.616 560.096 197.944 559.904 197.56 559.52C197.224 559.136 197.056 558.488 197.056 557.576V555.632C197.056 554.72 197.224 554.072 197.56 553.688C197.944 553.256 198.616 553.04 199.576 553.04H233.992C234.952 553.04 235.624 553.256 236.008 553.688C236.392 554.072 236.584 554.72 236.584 555.632V557.576C236.584 558.488 236.392 559.136 236.008 559.52C235.624 559.904 234.952 560.096 233.992 560.096H221.392V599.408C221.392 600.272 221.176 600.92 220.744 601.352C220.36 601.784 219.664 602 218.656 602H214.912ZM269.701 602C268.741 602 268.045 601.784 267.613 601.352C267.181 600.92 266.965 600.272 266.965 599.408V560.096H254.365C253.405 560.096 252.733 559.904 252.349 559.52C252.013 559.136 251.845 558.488 251.845 557.576V555.632C251.845 554.72 252.013 554.072 252.349 553.688C252.733 553.256 253.405 553.04 254.365 553.04H288.781C289.741 553.04 290.413 553.256 290.797 553.688C291.181 554.072 291.373 554.72 291.373 555.632V557.576C291.373 558.488 291.181 559.136 290.797 559.52C290.413 559.904 289.741 560.096 288.781 560.096H276.181V599.408C276.181 600.272 275.965 600.92 275.533 601.352C275.149 601.784 274.453 602 273.445 602H269.701ZM309.646 602C308.686 602 307.99 601.784 307.558 601.352C307.174 600.92 306.982 600.272 306.982 599.408V555.704C306.982 554.792 307.174 554.12 307.558 553.688C307.99 553.256 308.686 553.04 309.646 553.04H313.462C314.422 553.04 315.118 553.256 315.55 553.688C315.982 554.12 316.198 554.792 316.198 555.704V595.016H338.23C339.19 595.016 339.862 595.232 340.246 595.664C340.63 596.048 340.822 596.696 340.822 597.608V599.552C340.822 600.416 340.63 601.04 340.246 601.424C339.862 601.808 339.19 602 338.23 602H309.646ZM358.037 602C357.077 602 356.381 601.784 355.949 601.352C355.565 600.92 355.373 600.272 355.373 599.408V555.704C355.373 554.792 355.565 554.12 355.949 553.688C356.381 553.256 357.077 553.04 358.037 553.04H387.989C388.949 553.04 389.597 553.232 389.933 553.616C390.317 554 390.509 554.648 390.509 555.56V557.504C390.509 558.416 390.317 559.088 389.933 559.52C389.597 559.904 388.949 560.096 387.989 560.096H364.589V574.064H381.581C382.541 574.064 383.213 574.256 383.597 574.64C383.981 575.024 384.173 575.672 384.173 576.584V578.384C384.173 579.296 383.981 579.968 383.597 580.4C383.213 580.784 382.541 580.976 381.581 580.976H364.589V595.016H387.917C388.877 595.016 389.549 595.232 389.933 595.664C390.317 596.048 390.509 596.696 390.509 597.608V599.552C390.509 600.416 390.317 601.04 389.933 601.424C389.549 601.808 388.877 602 387.917 602H358.037Z" fill="#5F81E9"/>
<mask id="path-3-inside-1" fill="white">
<path fill-rule="evenodd" clip-rule="evenodd" d="M406 0C406 9.94113 397.941 18 388 18C378.059 18 370 9.94113 370 0H363C363 9.94113 354.941 18 345 18C335.059 18 327 9.94113 327 0H320C320 9.94113 311.941 18 302 18C292.059 18 284 9.94113 284 0H277C277 9.94113 268.941 18 259 18C249.059 18 241 9.94113 241 0H234C234 9.94113 225.941 18 216 18C206.059 18 198 9.94113 198 0H191C191 9.94113 182.941 18 173 18C163.059 18 155 9.94113 155 0H148C148 9.94113 139.941 18 130 18C120.059 18 112 9.94113 112 0H105C105 9.94113 96.9411 18 87 18C77.0589 18 69 9.94113 69 0H62C62 9.94113 53.9411 18 44 18C34.0589 18 26 9.94113 26 0H0V15.0614C0.255142 15.0501 0.511671 15.044 0.769479 15.0434C10.7106 15.0194 18.7889 23.0589 18.8128 32.9999C18.8368 42.941 10.7974 51.0193 0.856306 51.0433C0.569268 51.044 0.283783 51.038 0 51.0254V58.0397C0.0453525 58.0392 0.0907454 58.0389 0.136178 58.0388C10.0773 58.0149 18.1556 66.0543 18.1795 75.9954C18.2035 85.9365 10.1641 94.0148 0.223005 94.0387C0.148565 94.0389 0.0742288 94.0386 0 94.0379V101.04C9.7119 101.28 17.5227 109.216 17.5462 118.991C17.5699 128.795 9.75107 136.787 0 137.028V144.041C9.68243 144.314 17.4592 152.237 17.4828 161.99C17.5064 171.773 9.7215 179.752 0 180.027V187.043C9.6536 187.348 17.3973 195.258 17.4207 204.991C17.4443 214.752 9.69257 222.718 0 223.025V230.045C9.62405 230.383 17.3338 238.279 17.3573 247.99C17.3808 257.731 9.66292 265.683 0 266.023V273.047C9.59491 273.417 17.2714 281.3 17.2948 290.99C17.3182 300.71 9.63367 308.649 0 309.02V316.05C9.56526 316.451 17.208 324.321 17.2313 333.99C17.2547 343.689 9.60393 351.614 0 352.018V359.053C9.53604 359.486 17.1455 367.342 17.1688 376.99C17.1921 386.668 9.5746 394.579 0 395.015V402.055C9.50653 402.52 17.0826 410.364 17.1058 419.99C17.1291 429.646 9.545 437.545 0 438.012V445.059C9.47722 445.555 17.0201 453.385 17.0433 462.99C17.0665 472.625 9.51559 480.51 0 481.009V500H27C27 490.059 35.0589 482 45 482C54.9411 482 63 490.059 63 500H70C70 490.059 78.0589 482 88 482C97.9411 482 106 490.059 106 500H113C113 490.059 121.059 482 131 482C140.941 482 149 490.059 149 500H156C156 490.059 164.059 482 174 482C183.941 482 192 490.059 192 500H199C199 490.059 207.059 482 217 482C226.941 482 235 490.059 235 500H242C242 490.059 250.059 482 260 482C269.941 482 278 490.059 278 500H285C285 490.059 293.059 482 303 482C312.941 482 321 490.059 321 500H328C328 490.059 336.059 482 346 482C355.941 482 364 490.059 364 500H371C371 490.059 379.059 482 389 482C398.941 482 407 490.059 407 500H431V480.927C421.731 480.215 414.42 472.48 414.397 463.023C414.375 453.538 421.693 445.748 431 445.033V437.922C421.76 437.18 414.483 429.458 414.46 420.023C414.437 410.559 421.723 402.783 431 402.038V394.917C421.79 394.145 414.546 386.437 414.523 377.023C414.5 367.581 421.753 359.818 431 359.044V351.911C421.82 351.11 414.608 343.416 414.585 334.023C414.563 324.602 421.783 316.853 431 316.049V308.906C421.85 308.075 414.671 300.394 414.649 291.024C414.626 281.624 421.813 273.889 431 273.055V265.9C421.88 265.04 414.734 257.373 414.711 248.024C414.689 238.645 421.843 230.924 431 230.061V222.894C421.91 222.004 414.797 214.351 414.775 205.024C414.752 195.667 421.873 187.96 431 187.067V179.888C421.94 178.97 414.859 171.33 414.837 162.024C414.814 152.688 421.903 144.995 431 144.073V136.881C421.971 135.934 414.923 128.308 414.9 119.024C414.878 109.71 421.934 102.031 431 101.08V93.8082C422.276 92.5793 415.556 85.0948 415.534 76.0285C415.512 66.9325 422.241 59.396 431 58.1621V50.712C422.587 49.2187 416.188 41.8787 416.167 33.0331C416.146 24.1575 422.552 16.7668 431 15.2674V0H406Z"/>
</mask>
<path fill-rule="evenodd" clip-rule="evenodd" d="M406 0C406 9.94113 397.941 18 388 18C378.059 18 370 9.94113 370 0H363C363 9.94113 354.941 18 345 18C335.059 18 327 9.94113 327 0H320C320 9.94113 311.941 18 302 18C292.059 18 284 9.94113 284 0H277C277 9.94113 268.941 18 259 18C249.059 18 241 9.94113 241 0H234C234 9.94113 225.941 18 216 18C206.059 18 198 9.94113 198 0H191C191 9.94113 182.941 18 173 18C163.059 18 155 9.94113 155 0H148C148 9.94113 139.941 18 130 18C120.059 18 112 9.94113 112 0H105C105 9.94113 96.9411 18 87 18C77.0589 18 69 9.94113 69 0H62C62 9.94113 53.9411 18 44 18C34.0589 18 26 9.94113 26 0H0V15.0614C0.255142 15.0501 0.511671 15.044 0.769479 15.0434C10.7106 15.0194 18.7889 23.0589 18.8128 32.9999C18.8368 42.941 10.7974 51.0193 0.856306 51.0433C0.569268 51.044 0.283783 51.038 0 51.0254V58.0397C0.0453525 58.0392 0.0907454 58.0389 0.136178 58.0388C10.0773 58.0149 18.1556 66.0543 18.1795 75.9954C18.2035 85.9365 10.1641 94.0148 0.223005 94.0387C0.148565 94.0389 0.0742288 94.0386 0 94.0379V101.04C9.7119 101.28 17.5227 109.216 17.5462 118.991C17.5699 128.795 9.75107 136.787 0 137.028V144.041C9.68243 144.314 17.4592 152.237 17.4828 161.99C17.5064 171.773 9.7215 179.752 0 180.027V187.043C9.6536 187.348 17.3973 195.258 17.4207 204.991C17.4443 214.752 9.69257 222.718 0 223.025V230.045C9.62405 230.383 17.3338 238.279 17.3573 247.99C17.3808 257.731 9.66292 265.683 0 266.023V273.047C9.59491 273.417 17.2714 281.3 17.2948 290.99C17.3182 300.71 9.63367 308.649 0 309.02V316.05C9.56526 316.451 17.208 324.321 17.2313 333.99C17.2547 343.689 9.60393 351.614 0 352.018V359.053C9.53604 359.486 17.1455 367.342 17.1688 376.99C17.1921 386.668 9.5746 394.579 0 395.015V402.055C9.50653 402.52 17.0826 410.364 17.1058 419.99C17.1291 429.646 9.545 437.545 0 438.012V445.059C9.47722 445.555 17.0201 453.385 17.0433 462.99C17.0665 472.625 9.51559 480.51 0 481.009V500H27C27 490.059 35.0589 482 45 482C54.9411 482 63 490.059 63 500H70C70 490.059 78.0589 482 88 482C97.9411 482 106 490.059 106 500H113C113 490.059 121.059 482 131 482C140.941 482 149 490.059 149 500H156C156 490.059 164.059 482 174 482C183.941 482 192 490.059 192 500H199C199 490.059 207.059 482 217 482C226.941 482 235 490.059 235 500H242C242 490.059 250.059 482 260 482C269.941 482 278 490.059 278 500H285C285 490.059 293.059 482 303 482C312.941 482 321 490.059 321 500H328C328 490.059 336.059 482 346 482C355.941 482 364 490.059 364 500H371C371 490.059 379.059 482 389 482C398.941 482 407 490.059 407 500H431V480.927C421.731 480.215 414.42 472.48 414.397 463.023C414.375 453.538 421.693 445.748 431 445.033V437.922C421.76 437.18 414.483 429.458 414.46 420.023C414.437 410.559 421.723 402.783 431 402.038V394.917C421.79 394.145 414.546 386.437 414.523 377.023C414.5 367.581 421.753 359.818 431 359.044V351.911C421.82 351.11 414.608 343.416 414.585 334.023C414.563 324.602 421.783 316.853 431 316.049V308.906C421.85 308.075 414.671 300.394 414.649 291.024C414.626 281.624 421.813 273.889 431 273.055V265.9C421.88 265.04 414.734 257.373 414.711 248.024C414.689 238.645 421.843 230.924 431 230.061V222.894C421.91 222.004 414.797 214.351 414.775 205.024C414.752 195.667 421.873 187.96 431 187.067V179.888C421.94 178.97 414.859 171.33 414.837 162.024C414.814 152.688 421.903 144.995 431 144.073V136.881C421.971 135.934 414.923 128.308 414.9 119.024C414.878 109.71 421.934 102.031 431 101.08V93.8082C422.276 92.5793 415.556 85.0948 415.534 76.0285C415.512 66.9325 422.241 59.396 431 58.1621V50.712C422.587 49.2187 416.188 41.8787 416.167 33.0331C416.146 24.1575 422.552 16.7668 431 15.2674V0H406Z" fill="white"/>
<path d="M406 0V-2H404V0H406ZM370 0H372V-2H370V0ZM363 0V-2H361V0H363ZM327 0H329V-2H327V0ZM320 0V-2H318V0H320ZM284 0H286V-2H284V0ZM277 0V-2H275V0H277ZM241 0H243V-2H241V0ZM234 0V-2H232V0H234ZM198 0H200V-2H198V0ZM191 0V-2H189V0H191ZM155 0H157V-2H155V0ZM148 0V-2H146V0H148ZM112 0H114V-2H112V0ZM105 0V-2H103V0H105ZM69 0H71V-2H69V0ZM62 0V-2H60V0H62ZM26 0H28V-2H26V0ZM0 0V-2H-2V0H0ZM0 15.0614H-2V17.1524L0.0888646 17.0594L0 15.0614ZM0.769479 15.0434L0.764655 13.0434L0.769479 15.0434ZM18.8128 32.9999L20.8128 32.9951L18.8128 32.9999ZM0.856306 51.0433L0.861117 53.0433H0.861129L0.856306 51.0433ZM0 51.0254L0.0887393 49.0273L-2 48.9346V51.0254H0ZM0 58.0397H-2V60.0594L0.0196813 60.0396L0 58.0397ZM0.136178 58.0388L0.131354 56.0388H0.131308L0.136178 58.0388ZM0.223005 94.0387L0.218182 92.0387H0.218085L0.223005 94.0387ZM0 94.0379L0.0195277 92.038L-2 92.0183V94.0379H0ZM0 101.04H-2V102.991L-0.049388 103.039L0 101.04ZM17.5462 118.991L15.5462 118.995L17.5462 118.991ZM0 137.028L-0.049543 135.029L-2 135.077V137.028H0ZM0 144.041H-2V145.986L-0.0563327 146.04L0 144.041ZM17.4828 161.99L15.4828 161.995L17.4828 161.99ZM0 180.027L-0.0564796 178.027L-2 178.082V180.027H0ZM0 187.043H-2V188.981L-0.0631211 189.042L0 187.043ZM17.4207 204.991L19.4207 204.986L17.4207 204.991ZM0 223.025L-0.0632637 221.026L-2 221.087V223.025H0ZM0 230.045H-2V231.976L-0.0700735 232.044L0 230.045ZM17.3573 247.99L19.3573 247.986L17.3573 247.99ZM0 266.023L-0.0702144 264.024L-2 264.092V266.023H0ZM0 273.047H-2V274.972L-0.0769263 275.046L0 273.047ZM17.2948 290.99L15.2948 290.995L17.2948 290.99ZM0 309.02L-0.0770597 307.022L-2 307.096V309.02H0ZM0 316.05H-2V317.968L-0.0838926 318.048L0 316.05ZM17.2313 333.99L15.2313 333.995L17.2313 333.99ZM0 352.018L-0.0840118 350.019L-2 350.1V352.018H0ZM0 359.053H-2V360.964L-0.0907484 361.051L0 359.053ZM17.1688 376.99L15.1688 376.995L17.1688 376.99ZM0 395.015L-0.0908666 393.017L-2 393.104V395.015H0ZM0 402.055H-2V403.96L-0.0976715 404.053L0 402.055ZM17.1058 419.99L19.1058 419.985L17.1058 419.99ZM0 438.012L-0.0977821 436.014L-2 436.107V438.012H0ZM0 445.059H-2V446.957L-0.104536 447.056L0 445.059ZM17.0433 462.99L19.0433 462.985L17.0433 462.99ZM0 481.009L-0.104639 479.011L-2 479.111V481.009H0ZM0 500H-2V502H0V500ZM27 500V502H29V500H27ZM63 500H61V502H63V500ZM70 500V502H72V500H70ZM106 500H104V502H106V500ZM113 500V502H115V500H113ZM149 500H147V502H149V500ZM156 500V502H158V500H156ZM192 500H190V502H192V500ZM199 500V502H201V500H199ZM235 500H233V502H235V500ZM242 500V502H244V500H242ZM278 500H276V502H278V500ZM285 500V502H287V500H285ZM321 500H319V502H321V500ZM328 500V502H330V500H328ZM364 500H362V502H364V500ZM371 500V502H373V500H371ZM407 500H405V502H407V500ZM431 500V502H433V500H431ZM431 480.927H433V479.074L431.153 478.932L431 480.927ZM414.397 463.023L416.397 463.019L414.397 463.023ZM431 445.033L431.153 447.028L433 446.886V445.033H431ZM431 437.922H433V436.076L431.16 435.928L431 437.922ZM414.46 420.023L416.46 420.019L414.46 420.023ZM431 402.038L431.16 404.032L433 403.884V402.038H431ZM431 394.917H433V393.077L431.167 392.924L431 394.917ZM414.523 377.023L416.523 377.019L414.523 377.023ZM431 359.044L431.167 361.037L433 360.883V359.044H431ZM431 351.911H433V350.078L431.174 349.919L431 351.911ZM414.585 334.023L416.585 334.019L414.585 334.023ZM431 316.049L431.174 318.041L433 317.882V316.049H431ZM431 308.906H433V307.079L431.181 306.914L431 308.906ZM414.649 291.024L416.649 291.019L414.649 291.024ZM431 273.055L431.181 275.047L433 274.881V273.055H431ZM431 265.9H433V264.08L431.188 263.909L431 265.9ZM414.711 248.024L416.711 248.019L414.711 248.024ZM431 230.061L431.188 232.052L433 231.881V230.061H431ZM431 222.894H433V221.08L431.195 220.904L431 222.894ZM414.775 205.024L416.775 205.019L414.775 205.024ZM431 187.067L431.195 189.057L433 188.881V187.067H431ZM431 179.888H433V178.08L431.202 177.898L431 179.888ZM414.837 162.024L416.837 162.019L414.837 162.024ZM431 144.073L431.202 146.063L433 145.88V144.073H431ZM431 136.881H433V135.08L431.209 134.892L431 136.881ZM414.9 119.024L416.9 119.019L414.9 119.024ZM431 101.08L431.209 103.069L433 102.881V101.08H431ZM431 93.8082H433V92.0702L431.279 91.8278L431 93.8082ZM415.534 76.0285L417.534 76.0237L415.534 76.0285ZM431 58.1621L431.279 60.1425L433 59.9001V58.1621H431ZM431 50.712H433V49.0358L431.35 48.7428L431 50.712ZM416.167 33.0331L418.167 33.0283V33.0283L416.167 33.0331ZM431 15.2674L431.349 17.2366L433 16.9437V15.2674H431ZM431 0H433V-2H431V0ZM388 20C399.046 20 408 11.0457 408 0H404C404 8.83656 396.837 16 388 16V20ZM368 0C368 11.0457 376.954 20 388 20V16C379.163 16 372 8.83656 372 0H368ZM363 2H370V-2H363V2ZM345 20C356.046 20 365 11.0457 365 0H361C361 8.83656 353.837 16 345 16V20ZM325 0C325 11.0457 333.954 20 345 20V16C336.163 16 329 8.83656 329 0H325ZM320 2H327V-2H320V2ZM302 20C313.046 20 322 11.0457 322 0H318C318 8.83656 310.837 16 302 16V20ZM282 0C282 11.0457 290.954 20 302 20V16C293.163 16 286 8.83656 286 0H282ZM277 2H284V-2H277V2ZM259 20C270.046 20 279 11.0457 279 0H275C275 8.83656 267.837 16 259 16V20ZM239 0C239 11.0457 247.954 20 259 20V16C250.163 16 243 8.83656 243 0H239ZM234 2H241V-2H234V2ZM216 20C227.046 20 236 11.0457 236 0H232C232 8.83656 224.837 16 216 16V20ZM196 0C196 11.0457 204.954 20 216 20V16C207.163 16 200 8.83656 200 0H196ZM191 2H198V-2H191V2ZM173 20C184.046 20 193 11.0457 193 0H189C189 8.83656 181.837 16 173 16V20ZM153 0C153 11.0457 161.954 20 173 20V16C164.163 16 157 8.83656 157 0H153ZM148 2H155V-2H148V2ZM130 20C141.046 20 150 11.0457 150 0H146C146 8.83656 138.837 16 130 16V20ZM110 0C110 11.0457 118.954 20 130 20V16C121.163 16 114 8.83656 114 0H110ZM105 2H112V-2H105V2ZM87 20C98.0457 20 107 11.0457 107 0H103C103 8.83656 95.8366 16 87 16V20ZM67 0C67 11.0457 75.9543 20 87 20V16C78.1634 16 71 8.83656 71 0H67ZM62 2H69V-2H62V2ZM44 20C55.0457 20 64 11.0457 64 0H60C60 8.83656 52.8366 16 44 16V20ZM24 0C24 11.0457 32.9543 20 44 20V16C35.1634 16 28 8.83656 28 0H24ZM0 2H26V-2H0V2ZM2 15.0614V0H-2V15.0614H2ZM0.764655 13.0434C0.478813 13.0441 0.194265 13.0508 -0.0888646 13.0634L0.0888646 17.0594C0.31602 17.0493 0.544529 17.044 0.774302 17.0434L0.764655 13.0434ZM20.8128 32.9951C20.7862 21.9495 11.8103 13.0168 0.764655 13.0434L0.774302 17.0434C9.61083 17.0221 16.7915 24.1682 16.8128 33.0048L20.8128 32.9951ZM0.861129 53.0433C11.9068 53.0167 20.8395 44.0408 20.8128 32.9951L16.8128 33.0048C16.8342 41.8413 9.68801 49.022 0.851482 49.0433L0.861129 53.0433ZM-0.0887393 53.0234C0.22621 53.0374 0.542887 53.0441 0.861117 53.0433L0.851495 49.0433C0.595648 49.0439 0.341355 49.0386 0.0887393 49.0273L-0.0887393 53.0234ZM2 58.0397V51.0254H-2V58.0397H2ZM0.131308 56.0388C0.0810595 56.039 0.0307281 56.0393 -0.0196813 56.0398L0.0196813 60.0396C0.059977 60.0392 0.100431 60.0389 0.141048 60.0388L0.131308 56.0388ZM20.1795 75.9905C20.1529 64.9449 11.177 56.0122 0.131354 56.0388L0.141001 60.0388C8.97753 60.0175 16.1582 67.1637 16.1795 76.0002L20.1795 75.9905ZM0.227828 96.0387C11.2735 96.0121 20.2062 87.0362 20.1795 75.9905L16.1795 76.0002C16.2009 84.8367 9.05471 92.0174 0.218182 92.0387L0.227828 96.0387ZM-0.0195277 96.0378C0.0628044 96.0386 0.14529 96.0389 0.227924 96.0387L0.218085 92.0387C0.15184 92.0389 0.0856533 92.0387 0.0195277 92.038L-0.0195277 96.0378ZM2 101.04V94.0379H-2V101.04H2ZM19.5462 118.986C19.52 108.125 10.8415 99.3069 0.049388 99.0403L-0.049388 103.039C8.58234 103.252 15.5253 110.307 15.5462 118.995L19.5462 118.986ZM0.049543 139.028C10.885 138.759 19.5725 129.879 19.5462 118.986L15.5462 118.995C15.5673 127.71 8.61716 134.814 -0.049543 135.029L0.049543 139.028ZM2 144.041V137.028H-2V144.041H2ZM19.4828 161.986C19.4566 151.148 10.8158 142.345 0.0563327 142.042L-0.0563327 146.04C8.5491 146.283 15.4619 153.326 15.4828 161.995L19.4828 161.986ZM0.0564796 182.026C10.8592 181.721 19.509 172.856 19.4828 161.986L15.4828 161.995C15.5037 170.691 8.58383 177.783 -0.0564796 178.027L0.0564796 182.026ZM2 187.043V180.027H-2V187.043H2ZM19.4207 204.986C19.3947 194.171 10.7906 185.383 0.0631211 185.044L-0.0631211 189.042C8.51659 189.313 15.3999 196.345 15.4208 204.995L19.4207 204.986ZM0.0632637 225.024C10.8339 224.683 19.4469 215.833 19.4207 204.986L15.4208 204.995C15.4417 213.672 8.55122 220.753 -0.0632637 221.026L0.0632637 225.024ZM2 230.045V223.025H-2V230.045H2ZM19.3573 247.986C19.3312 237.195 10.7648 228.421 0.0700735 228.046L-0.0700735 232.044C8.48327 232.344 15.3365 239.363 15.3573 247.995L19.3573 247.986ZM0.0702144 268.021C10.808 267.644 19.3834 258.809 19.3573 247.986L15.3573 247.995C15.3782 256.653 8.51782 263.722 -0.0702144 264.024L0.0702144 268.021ZM2 273.047V266.023H-2V273.047H2ZM19.2948 290.986C19.2688 280.218 10.7394 271.459 0.0769263 271.049L-0.0769263 275.046C8.45043 275.374 15.274 282.382 15.2948 290.995L19.2948 290.986ZM0.0770597 311.019C10.7825 310.606 19.3208 301.786 19.2948 290.986L15.2948 290.995C15.3156 299.634 8.48488 306.692 -0.0770597 307.022L0.0770597 311.019ZM2 316.05V309.02H-2V316.05H2ZM19.2313 333.986C19.2054 323.242 10.7135 314.498 0.0838926 314.052L-0.0838926 318.048C8.41704 318.405 15.2106 325.401 15.2313 333.995L19.2313 333.986ZM0.0840118 354.016C10.7565 353.567 19.2573 344.762 19.2313 333.986L15.2313 333.995C15.2521 342.615 8.45139 349.661 -0.0840118 350.019L0.0840118 354.016ZM2 359.053V352.018H-2V359.053H2ZM19.1688 376.986C19.1429 366.265 10.688 357.536 0.0907484 357.055L-0.0907484 361.051C8.38412 361.435 15.1481 368.42 15.1688 376.995L19.1688 376.986ZM0.0908666 397.013C10.7308 396.529 19.1947 387.738 19.1688 376.986L15.1688 376.995C15.1895 385.597 8.41839 392.63 -0.0908666 393.017L0.0908666 397.013ZM2 402.055V395.015H-2V402.055H2ZM19.1058 419.985C19.08 409.289 10.6622 400.574 0.0976715 400.058L-0.0976715 404.053C8.35091 404.466 15.0852 411.439 15.1058 419.995L19.1058 419.985ZM0.0977821 440.009C10.7049 439.49 19.1317 430.715 19.1058 419.985L15.1058 419.995C15.1265 428.578 8.38509 435.599 -0.0977821 436.014L0.0977821 440.009ZM2 445.059V438.012H-2V445.059H2ZM19.0433 462.985C19.0176 452.312 10.6365 443.613 0.104536 443.061L-0.104536 447.056C8.31791 447.497 15.0227 454.457 15.0433 462.995L19.0433 462.985ZM0.104639 483.006C10.6792 482.452 19.0691 473.691 19.0433 462.985L15.0433 462.995C15.064 471.559 8.352 478.568 -0.104639 479.011L0.104639 483.006ZM2 500V481.009H-2V500H2ZM27 498H0V502H27V498ZM45 480C33.9543 480 25 488.954 25 500H29C29 491.163 36.1634 484 45 484V480ZM65 500C65 488.954 56.0457 480 45 480V484C53.8366 484 61 491.163 61 500H65ZM70 498H63V502H70V498ZM88 480C76.9543 480 68 488.954 68 500H72C72 491.163 79.1634 484 88 484V480ZM108 500C108 488.954 99.0457 480 88 480V484C96.8366 484 104 491.163 104 500H108ZM113 498H106V502H113V498ZM131 480C119.954 480 111 488.954 111 500H115C115 491.163 122.163 484 131 484V480ZM151 500C151 488.954 142.046 480 131 480V484C139.837 484 147 491.163 147 500H151ZM156 498H149V502H156V498ZM174 480C162.954 480 154 488.954 154 500H158C158 491.163 165.163 484 174 484V480ZM194 500C194 488.954 185.046 480 174 480V484C182.837 484 190 491.163 190 500H194ZM199 498H192V502H199V498ZM217 480C205.954 480 197 488.954 197 500H201C201 491.163 208.163 484 217 484V480ZM237 500C237 488.954 228.046 480 217 480V484C225.837 484 233 491.163 233 500H237ZM242 498H235V502H242V498ZM260 480C248.954 480 240 488.954 240 500H244C244 491.163 251.163 484 260 484V480ZM280 500C280 488.954 271.046 480 260 480V484C268.837 484 276 491.163 276 500H280ZM285 498H278V502H285V498ZM303 480C291.954 480 283 488.954 283 500H287C287 491.163 294.163 484 303 484V480ZM323 500C323 488.954 314.046 480 303 480V484C311.837 484 319 491.163 319 500H323ZM328 498H321V502H328V498ZM346 480C334.954 480 326 488.954 326 500H330C330 491.163 337.163 484 346 484V480ZM366 500C366 488.954 357.046 480 346 480V484C354.837 484 362 491.163 362 500H366ZM371 498H364V502H371V498ZM373 500C373 491.163 380.163 484 389 484V480C377.954 480 369 488.954 369 500H373ZM389 484C397.837 484 405 491.163 405 500H409C409 488.954 400.046 480 389 480V484ZM431 498H407V502H431V498ZM429 480.927V500H433V480.927H429ZM412.397 463.028C412.423 473.536 420.546 482.13 430.847 482.921L431.153 478.932C422.916 478.3 416.418 471.423 416.397 463.019L412.397 463.028ZM430.847 443.039C420.504 443.834 412.372 452.488 412.397 463.028L416.397 463.019C416.377 454.588 422.882 447.663 431.153 447.028L430.847 443.039ZM429 437.922V445.033H433V437.922H429ZM412.46 420.028C412.485 430.512 420.572 439.091 430.84 439.915L431.16 435.928C422.949 435.269 416.48 428.404 416.46 420.019L412.46 420.028ZM430.84 400.045C420.53 400.872 412.435 409.511 412.46 420.028L416.46 420.019C416.44 411.607 422.916 404.694 431.16 404.032L430.84 400.045ZM429 394.917V402.038H433V394.917H429ZM412.523 377.028C412.548 387.489 420.598 396.052 430.833 396.91L431.167 392.924C422.983 392.238 416.543 385.385 416.523 377.019L412.523 377.028ZM430.833 357.051C420.556 357.912 412.498 366.535 412.523 377.028L416.523 377.019C416.503 368.626 422.949 361.725 431.167 361.037L430.833 357.051ZM429 351.911V359.044H433V351.911H429ZM412.585 334.028C412.611 344.465 420.624 353.014 430.826 353.904L431.174 349.919C423.016 349.207 416.606 342.366 416.585 334.019L412.585 334.028ZM430.826 314.057C420.583 314.951 412.56 323.559 412.585 334.028L416.585 334.019C416.565 325.645 422.983 318.756 431.174 318.041L430.826 314.057ZM429 308.906V316.049H433V308.906H429ZM412.649 291.028C412.674 301.441 420.651 309.974 430.819 310.898L431.181 306.914C423.05 306.176 416.669 299.347 416.649 291.019L412.649 291.028ZM430.819 271.063C420.609 271.99 412.624 280.583 412.649 291.028L416.649 291.019C416.629 282.664 423.017 275.788 431.181 275.047L430.819 271.063ZM429 265.9V273.055H433V265.9H429ZM412.711 248.028C412.736 258.418 420.677 266.935 430.812 267.891L431.188 263.909C423.083 263.145 416.731 256.328 416.711 248.019L412.711 248.028ZM430.812 228.069C420.636 229.029 412.686 237.607 412.711 248.028L416.711 248.019C416.691 239.683 423.05 232.819 431.188 232.052L430.812 228.069ZM429 222.894V230.061H433V222.894H429ZM412.775 205.029C412.8 215.394 420.704 223.896 430.805 224.884L431.195 220.904C423.117 220.113 416.795 213.309 416.775 205.019L412.775 205.029ZM430.805 185.076C420.662 186.069 412.75 194.631 412.775 205.029L416.775 205.019C416.755 196.703 423.084 189.851 431.195 189.057L430.805 185.076ZM429 179.888V187.067H433V179.888H429ZM412.837 162.028C412.862 172.37 420.73 180.857 430.798 181.878L431.202 177.898C423.151 177.082 416.857 170.29 416.837 162.019L412.837 162.028ZM430.798 142.083C420.689 143.108 412.812 151.654 412.837 162.028L416.837 162.019C416.817 153.722 423.118 146.882 431.202 146.063L430.798 142.083ZM429 136.881V144.073H433V136.881H429ZM412.9 119.029C412.925 129.346 420.757 137.818 430.791 138.87L431.209 134.892C423.185 134.05 416.92 127.271 416.9 119.019L412.9 119.029ZM430.791 99.0905C420.715 100.148 412.875 108.678 412.9 119.029L416.9 119.019C416.88 110.741 423.152 103.914 431.209 103.069L430.791 99.0905ZM429 93.8082V101.08H433V93.8082H429ZM413.534 76.0333C413.558 86.1087 421.026 94.423 430.721 95.7887L431.279 91.8278C423.527 90.7357 417.553 84.0809 417.534 76.0237L413.534 76.0333ZM430.721 56.1816C420.986 57.5529 413.509 65.925 413.534 76.0333L417.534 76.0237C417.514 67.94 423.495 61.2391 431.279 60.1425L430.721 56.1816ZM429 50.712V58.1621H433V50.712H429ZM414.167 33.0379C414.191 42.8685 421.301 51.0217 430.65 52.6813L431.35 48.7428C423.872 47.4156 418.186 40.8889 418.167 33.0283L414.167 33.0379ZM430.651 13.2982C421.262 14.9645 414.143 23.1741 414.167 33.0379L418.167 33.0283C418.148 25.1409 423.841 18.5692 431.349 17.2366L430.651 13.2982ZM429 0V15.2674H433V0H429ZM406 2H431V-2H406V2Z" fill="black" mask="url(#path-3-inside-1)"/>
<rect x="52" y="43" width="327" height="413" fill="#5F81E9" stroke="black" stroke-width="2"/>
<path d="M328 312.008C342.45 312.008 352.071 323.408 358.148 335.215C361.169 341.083 363.264 346.96 364.604 351.376C365.274 353.583 365.754 355.42 366.066 356.703C366.138 357.002 366.202 357.271 366.257 357.508H289.256C289.313 357.274 289.379 357.008 289.453 356.713C289.779 355.429 290.278 353.592 290.971 351.386C292.358 346.969 294.515 341.091 297.598 335.223C303.801 323.413 313.546 312.008 328 312.008Z" fill="#FFE7D1" stroke="black" stroke-width="2"/>
<path d="M328.475 312.008C340.515 312.309 348.441 320.568 352.502 326.301C352.657 326.52 352.685 326.696 352.675 326.822C352.664 326.955 352.605 327.093 352.491 327.214C352.267 327.454 351.841 327.608 351.338 327.394C347.96 325.951 343.503 324.404 339.97 324.509C338.457 324.553 337.351 324.815 336.454 325.202C335.644 325.552 335.039 325.993 334.539 326.358C334.493 326.392 334.449 326.424 334.405 326.456C333.871 326.843 333.432 327.137 332.832 327.329C332.233 327.522 331.4 327.633 330.092 327.512C327.806 327.301 326.24 326.402 324.502 325.393L324.462 325.37C322.738 324.368 320.84 323.266 318.092 323.012C316.147 322.833 313.825 323.308 311.543 324.03C309.239 324.759 306.876 325.775 304.815 326.762C304.295 327.012 303.869 326.854 303.655 326.625C303.545 326.508 303.49 326.375 303.483 326.245C303.477 326.123 303.509 325.942 303.685 325.714C308.281 319.775 316.726 311.714 328.475 312.008Z" fill="white" stroke="black" stroke-width="2"/>
<path d="M143.221 334.122C107.3 332.551 52 346.661 52 346.661V457H379V334.122L332.143 346.661C332.143 346.661 299.257 334.893 277.311 334.122C251.365 333.211 237.971 346.416 212.011 346.661C184.711 346.918 170.497 335.315 143.221 334.122Z" fill="#CAD7F0" stroke="black" stroke-width="2"/>
<path d="M85.8447 307H52V457H379V420.5H353.616V367H316.785V394H283.438V330.5H245.612V409H214.256L213.26 380.5H183.895V340.5H144.575V394H115.21V414H85.8447V307Z" fill="#313444" stroke="black" stroke-width="2"/>
<path d="M236.566 198H103.493C102.214 198 101.263 199.185 101.541 200.434L109.652 236.934C109.855 237.849 110.667 238.5 111.604 238.5H229.356C230.312 238.5 231.133 237.825 231.318 236.888L238.528 200.388C238.773 199.151 237.826 198 236.566 198Z" fill="#FFF0E4" stroke="black" stroke-width="2"/>
<path d="M191.516 185H147.551C146.253 185 145.299 186.217 145.609 187.477L147.821 196.477C148.041 197.371 148.843 198 149.764 198H189.549C190.489 198 191.302 197.345 191.503 196.427L193.47 187.427C193.742 186.18 192.792 185 191.516 185Z" fill="#F2E3D7" stroke="black" stroke-width="2"/>
<rect x="102" y="236" width="136" height="5" fill="#FFD7B2" stroke="black" stroke-width="2"/>
<rect x="92" y="215" width="156" height="6" fill="#FFD7B2" stroke="black" stroke-width="2"/>
<path d="M154 340.5C152.5 319 127 242 127 242H148C148 242 165 305 168.5 305C172 305 190 242 190 242H212.5C212.5 242 183 321 181.5 340.5C180 360 202.5 457 202.5 457H134.5C134.5 457 155.5 362 154 340.5Z" fill="#FFD7B2" stroke="black" stroke-width="2"/>
<path d="M169.003 126C169.105 124.778 170.895 124.777 170.997 126L175.913 185H164.087L169.003 126Z" fill="#F2E3D7" stroke="black" stroke-width="2"/>
<mask id="path-16-inside-2" fill="white">
<path fill-rule="evenodd" clip-rule="evenodd" d="M33 80.25C33 80.3344 33.0009 80.4187 33.0028 80.5027C26.9037 80.6342 22 85.6194 22 91.75C22 97.9632 27.0368 103 33.25 103C36.2729 103 39.0173 101.808 41.0386 99.8679C42.3182 103.443 45.7354 106 49.75 106C53.5522 106 56.8185 103.706 58.2405 100.427C60.0779 101.732 62.3243 102.5 64.75 102.5C70.9632 102.5 76 97.4632 76 91.25C76 86.4624 73.0094 82.3733 68.7944 80.7489C67.8714 76.324 63.9489 73 59.25 73C57.2988 73 55.4815 73.5731 53.9572 74.5603C52.003 71.2334 48.3873 69 44.25 69C38.0368 69 33 74.0368 33 80.25Z"/>
</mask>
<path fill-rule="evenodd" clip-rule="evenodd" d="M33 80.25C33 80.3344 33.0009 80.4187 33.0028 80.5027C26.9037 80.6342 22 85.6194 22 91.75C22 97.9632 27.0368 103 33.25 103C36.2729 103 39.0173 101.808 41.0386 99.8679C42.3182 103.443 45.7354 106 49.75 106C53.5522 106 56.8185 103.706 58.2405 100.427C60.0779 101.732 62.3243 102.5 64.75 102.5C70.9632 102.5 76 97.4632 76 91.25C76 86.4624 73.0094 82.3733 68.7944 80.7489C67.8714 76.324 63.9489 73 59.25 73C57.2988 73 55.4815 73.5731 53.9572 74.5603C52.003 71.2334 48.3873 69 44.25 69C38.0368 69 33 74.0368 33 80.25Z" fill="white"/>
<path d="M33.0028 80.5027L35.0023 80.4586L35.0464 82.4591L33.0459 82.5022L33.0028 80.5027ZM41.0386 99.8679L39.6538 98.4249L41.8812 96.2873L42.9216 99.1939L41.0386 99.8679ZM58.2405 100.427L56.4056 99.6309L57.3874 97.3667L59.3991 98.7963L58.2405 100.427ZM68.7944 80.7489L68.0752 82.6151L67.059 82.2234L66.8366 81.1573L68.7944 80.7489ZM53.9572 74.5603L55.0444 76.239L53.2908 77.3746L52.2327 75.5732L53.9572 74.5603ZM31.0033 80.5467C31.0011 80.448 31 80.3491 31 80.25H35C35 80.3197 35.0008 80.3893 35.0023 80.4586L31.0033 80.5467ZM20 91.75C20 84.5293 25.7755 78.658 32.9597 78.5031L33.0459 82.5022C28.032 82.6103 24 86.7095 24 91.75H20ZM33.25 105C25.9322 105 20 99.0678 20 91.75H24C24 96.8586 28.1414 101 33.25 101V105ZM42.4235 101.311C40.0446 103.594 36.8094 105 33.25 105V101C35.7363 101 37.9899 100.022 39.6538 98.4249L42.4235 101.311ZM42.9216 99.1939C43.9255 101.998 46.6066 104 49.75 104V108C44.8643 108 40.7108 104.887 39.1556 100.542L42.9216 99.1939ZM49.75 104C52.727 104 55.2893 102.205 56.4056 99.6309L60.0754 101.222C58.3478 105.207 54.3774 108 49.75 108V104ZM64.75 104.5C61.8956 104.5 59.2466 103.595 57.082 102.057L59.3991 98.7963C60.9091 99.8694 62.753 100.5 64.75 100.5V104.5ZM78 91.25C78 98.5678 72.0678 104.5 64.75 104.5V100.5C69.8586 100.5 74 96.3586 74 91.25H78ZM69.5137 78.8827C74.4746 80.7946 78 85.6081 78 91.25H74C74 87.3167 71.5442 83.952 68.0752 82.6151L69.5137 78.8827ZM59.25 71C64.9151 71 69.6398 75.0072 70.7523 80.3405L66.8366 81.1573C66.1031 77.6408 62.9826 75 59.25 75V71ZM52.8701 72.8815C54.7084 71.6911 56.9015 71 59.25 71V75C57.6961 75 56.2546 75.4552 55.0444 76.239L52.8701 72.8815ZM44.25 67C49.1253 67 53.3831 69.6342 55.6817 73.5473L52.2327 75.5732C50.6228 72.8326 47.6493 71 44.25 71V67ZM31 80.25C31 72.9322 36.9322 67 44.25 67V71C39.1414 71 35 75.1414 35 80.25H31Z" fill="black" mask="url(#path-16-inside-2)"/>
<mask id="path-18-inside-3" fill="white">
<path fill-rule="evenodd" clip-rule="evenodd" d="M283 96.5C283 96.6689 282.998 96.8373 282.994 97.0053C295.193 97.2683 305 107.239 305 119.5C305 131.926 294.926 142 282.5 142C276.454 142 270.965 139.616 266.923 135.736C264.364 142.885 257.529 148 249.5 148C241.896 148 235.363 143.412 232.519 136.853C228.844 139.465 224.351 141 219.5 141C207.074 141 197 130.926 197 118.5C197 108.925 202.981 100.747 211.411 97.4978C213.257 88.648 221.102 82 230.5 82C234.402 82 238.037 83.1463 241.086 85.1205C244.994 78.4667 252.225 74 260.5 74C272.926 74 283 84.0736 283 96.5Z"/>
</mask>
<path fill-rule="evenodd" clip-rule="evenodd" d="M283 96.5C283 96.6689 282.998 96.8373 282.994 97.0053C295.193 97.2683 305 107.239 305 119.5C305 131.926 294.926 142 282.5 142C276.454 142 270.965 139.616 266.923 135.736C264.364 142.885 257.529 148 249.5 148C241.896 148 235.363 143.412 232.519 136.853C228.844 139.465 224.351 141 219.5 141C207.074 141 197 130.926 197 118.5C197 108.925 202.981 100.747 211.411 97.4978C213.257 88.648 221.102 82 230.5 82C234.402 82 238.037 83.1463 241.086 85.1205C244.994 78.4667 252.225 74 260.5 74C272.926 74 283 84.0736 283 96.5Z" fill="white"/>
<path d="M282.994 97.0053L280.995 96.9613L280.951 98.9617L282.951 99.0049L282.994 97.0053ZM266.923 135.736L268.308 134.293L266.08 132.155L265.04 135.062L266.923 135.736ZM232.519 136.853L234.354 136.057L233.372 133.793L231.36 135.223L232.519 136.853ZM211.411 97.4978L212.13 99.364L213.147 98.9723L213.369 97.9062L211.411 97.4978ZM241.086 85.1205L239.998 86.7993L241.752 87.9349L242.81 86.1335L241.086 85.1205ZM284.994 97.0494C284.998 96.8667 285 96.6836 285 96.5H281C281 96.6542 280.998 96.808 280.995 96.9613L284.994 97.0494ZM307 119.5C307 106.149 296.321 95.2922 283.038 95.0058L282.951 99.0049C294.064 99.2445 303 108.329 303 119.5H307ZM282.5 144C296.031 144 307 133.031 307 119.5H303C303 130.822 293.822 140 282.5 140V144ZM265.538 137.179C269.938 141.402 275.918 144 282.5 144V140C276.991 140 271.993 137.829 268.308 134.293L265.538 137.179ZM265.04 135.062C262.756 141.441 256.658 146 249.5 146V150C258.4 150 265.971 144.329 268.806 136.41L265.04 135.062ZM249.5 146C242.721 146 236.892 141.911 234.354 136.057L230.684 137.649C233.834 144.913 241.07 150 249.5 150V146ZM219.5 143C224.78 143 229.675 141.327 233.678 138.483L231.36 135.223C228.013 137.602 223.923 139 219.5 139V143ZM195 118.5C195 132.031 205.969 143 219.5 143V139C208.178 139 199 129.822 199 118.5H195ZM210.692 95.6316C201.516 99.168 195 108.071 195 118.5H199C199 109.779 204.446 102.325 212.13 99.364L210.692 95.6316ZM230.5 80C220.136 80 211.489 87.3312 209.453 97.0894L213.369 97.9062C215.026 89.9648 222.068 84 230.5 84V80ZM242.173 83.4418C238.81 81.2642 234.8 80 230.5 80V84C234.005 84 237.264 85.0284 239.998 86.7993L242.173 83.4418ZM260.5 72C251.487 72 243.614 76.8675 239.361 84.1076L242.81 86.1335C246.374 80.0659 252.963 76 260.5 76V72ZM285 96.5C285 82.969 274.031 72 260.5 72V76C271.822 76 281 85.1782 281 96.5H285Z" fill="black" mask="url(#path-18-inside-3)"/>
</svg>
