<svg width="100" height="100" viewBox="0 0 100 100" fill="none" xmlns="http://www.w3.org/2000/svg">
<path d="M33.2279 83.8104L45.5537 71.4846L29.2671 55.198L16.9413 67.5238L33.2279 83.8104Z" fill="#3C64B1"/>
<path d="M13.3617 62.7292L37.2744 86.6418L45.1456 78.7707L21.2329 54.858L13.3617 62.7292Z" fill="#3C64B1"/>
<path d="M95.7019 52.8447C92.9622 49.949 89.2613 48.201 85.2789 47.9209L84.3185 47.8271C84.2712 47.8227 84.2238 47.8203 84.1761 47.8203C82.69 47.8203 81.1921 48.0564 79.622 48.5404L78.4863 47.4047C79.3119 45.342 78.8652 42.9338 77.2427 41.3115L77.0499 41.117C75.8853 39.952 74.3201 39.39 72.7712 39.4641C72.846 37.9146 72.2831 36.3516 71.1203 35.1871L70.9322 34.999C69.7669 33.8354 68.2011 33.2729 66.6541 33.3477C66.729 31.7979 66.1662 30.2348 65.0031 29.0699L64.815 28.8818C63.6505 27.7189 62.0863 27.1572 60.5376 27.2312C60.6126 25.6801 60.0482 24.115 58.8808 22.9477L58.6974 22.766C57.0662 21.1326 54.6519 20.6861 52.5931 21.5158L51.4605 20.3842C51.9441 18.8258 52.1804 17.3271 52.1804 15.8285C52.1804 15.7838 52.1785 15.7393 52.1744 15.6947L52.0859 14.7303C51.9279 12.4781 51.3093 10.3293 50.2476 8.34297C49.8662 7.6293 48.9785 7.36035 48.2652 7.7416C47.5517 8.12285 47.2826 9.01055 47.6638 9.72383C48.532 11.348 49.0369 13.1059 49.1644 14.9488C49.1652 14.9598 49.166 14.9705 49.1669 14.9814L49.2505 15.8932C49.2423 17.307 48.9658 18.7412 48.4058 20.2754C48.2105 20.8107 48.3433 21.4107 48.7464 21.8139L50.1972 23.2635L43.8165 29.6447L42.3666 28.1947C41.9619 27.7902 41.3589 27.6578 40.822 27.857C39.3195 28.4135 37.8814 28.6885 36.4291 28.6973L35.5449 28.609C35.5304 28.6076 35.516 28.6063 35.5015 28.6053C28.7654 28.1422 23.4888 22.5299 23.4888 15.8283C23.4888 14.632 23.6611 13.4467 24.0027 12.2855L31.9455 20.2121C32.5232 20.8146 33.2542 21.2793 34.1654 21.627C34.8806 21.9082 35.6181 22.051 36.358 22.051C38.0287 22.051 39.5978 21.402 40.7648 20.2352C42.4802 18.5586 43.0513 15.9734 42.2197 13.6492C42.2097 13.6213 42.1992 13.5941 42.1874 13.567C41.9357 12.9779 41.515 12.1135 40.7658 11.3928L32.8318 3.4541C33.9865 3.10547 35.166 2.92969 36.3578 2.92969C39.2908 2.92969 42.0488 3.89531 44.3335 5.72227C44.9656 6.22754 45.8873 6.125 46.3925 5.49297C46.8976 4.86113 46.7951 3.93945 46.1632 3.43418C43.3535 1.1875 39.9628 0 36.3578 0C34.0302 0 31.749 0.536719 29.5773 1.59551C29.1519 1.80293 28.8529 2.20312 28.7746 2.67012C28.6964 3.13691 28.8486 3.6127 29.1832 3.94766L38.7046 13.475C38.7128 13.4832 38.721 13.4912 38.7294 13.4992C39.0062 13.7635 39.2371 14.1273 39.4751 14.6758C39.9021 15.9146 39.6064 17.2703 38.705 18.1516C38.0796 18.7768 37.246 19.1211 36.3578 19.1211C35.9867 19.1211 35.6099 19.0469 35.2236 18.8951C34.7083 18.6984 34.3257 18.4639 34.0541 18.1781C34.0453 18.1687 34.0363 18.1596 34.0273 18.1506L24.4804 8.62324C24.1437 8.28711 23.6648 8.13594 23.1962 8.2166C22.7277 8.29766 22.3273 8.60117 22.123 9.03047C21.0851 11.2109 20.5589 13.498 20.5589 15.8281C20.5589 19.8568 22.0814 23.6846 24.846 26.6063C27.0777 28.9646 29.9513 30.5607 33.0982 31.2221C31.9871 33.8061 32.4173 36.9158 34.3732 39.0883L30.9726 42.4891C29.7029 43.7576 29.0035 45.4447 29.0035 47.2395C29.0035 48.9006 29.6025 50.4699 30.6974 51.6998L25.422 56.9752L22.2683 53.8215C21.6964 53.2496 20.7689 53.2496 20.1968 53.8215L12.3236 61.6926C12.3201 61.6961 12.3171 61.7 12.3138 61.7035L0.431006 73.5867C-0.141064 74.159 -0.141064 75.0863 0.431006 75.6584L9.56499 84.7924C10.1371 85.3643 11.0646 85.3643 11.6365 84.7924C12.2085 84.2201 12.2085 83.2928 11.6365 82.7207L3.53843 74.6227L21.2328 56.9289L24.3857 60.0818C24.3861 60.0822 24.3863 60.0826 24.3867 60.083C24.3871 60.0834 24.3874 60.0836 24.3878 60.084L40.673 76.3691C40.6732 76.3693 40.6736 76.3697 40.6738 76.3701C40.674 76.3705 40.6744 76.3707 40.6748 76.3709L43.0736 78.7697L25.3794 96.4639L15.7173 86.8016C15.1455 86.2297 14.2179 86.2297 13.6458 86.8016C13.0738 87.3738 13.0738 88.3012 13.6458 88.8732L24.3437 99.5711C24.6183 99.8457 24.991 100 25.3794 100C25.7679 100 26.1406 99.8457 26.4152 99.5711L38.2906 87.6959C38.2972 87.6896 38.3042 87.6842 38.3107 87.6777L46.1808 79.8055C46.4556 79.5307 46.6099 79.1582 46.6099 78.7695C46.6099 78.3809 46.4556 78.0086 46.1808 77.7336L43.781 75.3338L49.1591 69.9543C51.4503 71.4219 54.4353 71.3766 56.7177 69.7105C57.3712 69.2336 57.5142 68.3172 57.0373 67.6639C56.5603 67.0105 55.6439 66.8672 54.9906 67.3443C53.4761 68.4496 51.4124 68.2875 50.0833 66.9582C49.8085 66.6836 49.4361 66.5293 49.0474 66.5293C48.6587 66.5293 48.2863 66.6838 48.0115 66.9584L41.7093 73.2621L27.4941 59.0469L33.796 52.7447C34.3675 52.173 34.3681 51.2467 33.7974 50.6744L33.0441 49.9189C32.3279 49.2029 31.9335 48.2512 31.9335 47.2393C31.9335 46.2273 32.3279 45.2764 33.0441 44.5609L37.4683 40.1361C37.4701 40.1344 37.472 40.133 37.4738 40.1312C37.4755 40.1295 37.4769 40.1275 37.4787 40.1258L44.8427 32.7609C44.8458 32.7578 44.8494 32.7551 44.8527 32.752C44.856 32.7488 44.8585 32.7453 44.8617 32.742L52.7671 24.8359C52.8857 24.7174 53.0119 24.6123 53.1521 24.517C54.2332 23.7697 55.6935 23.9035 56.6302 24.8414L56.8144 25.0238C57.746 25.9555 57.88 27.4172 57.1318 28.5012C57.0404 28.634 56.9349 28.7604 56.8191 28.8768C56.8173 28.8785 56.8154 28.8801 56.8136 28.8818L48.0923 37.6031C47.5203 38.1754 47.5203 39.1027 48.0923 39.6748C48.3783 39.9607 48.7533 40.1037 49.1281 40.1037C49.5029 40.1037 49.8779 39.9607 50.1638 39.6748L58.8777 30.9607C58.8802 30.9582 58.883 30.9561 58.8855 30.9537C59.0035 30.8357 59.132 30.7287 59.2679 30.635C60.3498 29.8885 61.8117 30.0229 62.7437 30.9535L62.9306 31.1402C63.8617 32.0725 63.9958 33.534 63.2437 34.624C63.1556 34.7539 63.0505 34.8799 62.9316 34.9986C62.9314 34.9988 62.931 34.999 62.9308 34.9992L54.2097 43.7203C53.6376 44.2926 53.6376 45.2199 54.2097 45.792C54.4957 46.0779 54.8706 46.2209 55.2455 46.2209C55.6203 46.2209 55.9953 46.0779 56.2812 45.792L65.0019 37.0713C65.0023 37.0709 65.0025 37.0707 65.0029 37.0703C65.1218 36.9514 65.248 36.8463 65.3871 36.7518C66.4681 36.0059 67.9294 36.14 68.8611 37.0703L69.0478 37.257C69.9789 38.1893 70.1132 39.6506 69.3609 40.7406C69.2726 40.8707 69.1675 40.9971 69.0484 41.1162C69.0464 41.1182 69.0449 41.1203 69.0431 41.1221L60.3273 49.8377C59.7552 50.41 59.7552 51.3373 60.3273 51.9094C60.6132 52.1953 60.9882 52.3383 61.363 52.3383C61.7378 52.3383 62.1128 52.1953 62.3988 51.9094L71.1201 43.1883C71.1214 43.1869 71.1228 43.1852 71.1242 43.1838C71.2419 43.0664 71.3667 42.9625 71.5042 42.8689C72.5859 42.1225 74.047 42.2559 74.973 43.1822L75.1658 43.377C76.0958 44.307 76.2302 45.7678 75.4851 46.8504C75.3882 46.9912 75.2837 47.117 75.1658 47.235L58.9453 63.4557C58.3732 64.0277 58.373 64.9551 58.9451 65.5271C59.231 65.8133 59.606 65.9563 59.981 65.9563C60.3558 65.9563 60.7306 65.8133 61.0167 65.5273L68.2867 58.2574L69.0935 59.0641C68.6179 60.5848 68.3775 62.1225 68.3775 63.6477C68.3775 63.6934 68.3796 63.7393 68.3839 63.7848L68.4722 64.7223C68.7513 68.7141 70.4986 72.4195 73.3933 75.1586C76.3158 77.9236 80.1453 79.4465 84.1763 79.4465C86.4947 79.4465 88.779 78.9199 90.9667 77.8813C91.3966 77.6772 91.7005 77.277 91.7818 76.8082C91.8632 76.3395 91.7117 75.8602 91.3755 75.5234L81.8482 65.9727L81.8285 65.9531C81.4402 65.5785 81.2316 65.1328 81.1249 64.8248C81.1214 64.8147 81.1177 64.8045 81.114 64.7945C80.6486 63.5402 80.9265 62.2023 81.8435 61.2982C82.4759 60.6699 83.3042 60.3238 84.1761 60.3238C84.5562 60.3238 84.9279 60.3965 85.2806 60.5398C85.2923 60.5445 85.3042 60.5494 85.316 60.5537C85.8494 60.7547 86.2248 60.9816 86.497 61.2684C86.5056 61.2773 86.5144 61.2863 86.5232 61.2951L96.0525 70.8223C96.3874 71.1574 96.8644 71.3102 97.3314 71.2309C97.7988 71.1523 98.199 70.8523 98.406 70.4262C99.4626 68.2494 99.9984 65.9691 99.9984 63.6479C99.9984 59.61 98.4726 55.7732 95.7019 52.8447ZM36.4511 37.0102C35.1654 35.4773 35.0833 33.2436 36.2156 31.6197C36.2628 31.6242 36.3103 31.6268 36.3578 31.6268C37.8669 31.6268 39.4041 31.3861 40.9388 30.9104L41.7447 31.7162L36.4511 37.0102ZM96.5447 67.1723L88.6066 59.2359C88.0324 58.6367 87.299 58.173 86.366 57.8191C85.6664 57.5375 84.9296 57.3945 84.1761 57.3945C82.5251 57.3945 80.9632 58.043 79.7826 59.2164C78.0677 60.9068 77.5109 63.4893 78.3619 65.7994C78.6636 66.6635 79.1546 67.4414 79.7831 68.0514L87.7134 76.0014C86.5503 76.3443 85.3671 76.5174 84.1763 76.5174C77.4716 76.5174 71.8566 71.2398 71.3935 64.5027C71.3927 64.4904 71.3917 64.4783 71.3904 64.466L71.3072 63.5814C71.3156 62.1281 71.598 60.6514 72.147 59.191C72.3494 58.6529 72.2181 58.0465 71.8117 57.6398L70.3583 56.1865L76.7419 49.8031L78.1914 51.2527C78.5929 51.6543 79.1902 51.7877 79.7244 51.5949C81.2742 51.0357 82.7087 50.7592 84.1072 50.7504L85.0144 50.8391C85.0283 50.8404 85.0421 50.8416 85.056 50.8426C91.7923 51.3072 97.0689 56.9324 97.0689 63.6486C97.0687 64.8371 96.8929 66.0162 96.5447 67.1723Z" fill="#737B7D"/>
</svg>
