<svg width="100" height="100" viewBox="0 0 100 100" fill="none" xmlns="http://www.w3.org/2000/svg">
<path d="M71.875 67.1953V79.6797H28.2203H28.1406V67.1953V54.6953C28.1406 52.9766 29.5469 51.5703 31.2656 51.5703H68.75C70.4703 51.5703 71.875 52.9766 71.875 54.6953V67.1953Z" fill="#3C64B1"/>
<path d="M76.9531 23.4609C88.8594 23.6656 98.4375 33.3672 98.4375 45.3203C98.4375 57.3984 88.6562 67.1953 76.5625 67.1953H71.8906H71.875V54.6953C71.875 52.9766 70.4703 51.5703 68.75 51.5703H31.2656C29.5469 51.5703 28.1406 52.9766 28.1406 54.6953V67.1953H28.125H18.75C9.26719 67.1953 1.5625 59.4922 1.5625 50.0078C1.5625 40.5078 9.26719 32.8203 18.75 32.8203H20.4844C22.0469 17.8984 34.6719 6.25781 50 6.25781C61.9391 6.25781 72.2344 13.3047 76.9531 23.4609Z" fill="white"/>
<path d="M18.75 68.7578C8.41094 68.7578 0 60.3469 0 50.0078C0 39.6687 8.41094 31.2578 18.75 31.2578C19.6141 31.2578 20.3125 31.9562 20.3125 32.8203C20.3125 33.6844 19.6141 34.3828 18.75 34.3828C10.1344 34.3828 3.125 41.3922 3.125 50.0078C3.125 58.6234 10.1344 65.6328 18.75 65.6328C19.6141 65.6328 20.3125 66.3312 20.3125 67.1953C20.3125 68.0594 19.6141 68.7578 18.75 68.7578Z" fill="#737B7D"/>
<path d="M76.5625 68.7577C75.6984 68.7577 75 68.0593 75 67.1952C75 66.3312 75.6984 65.6327 76.5625 65.6327C87.7625 65.6327 96.875 56.5202 96.875 45.3202C96.875 34.3015 87.9078 25.1984 76.8844 25.0265C76.0219 25.0124 75.3328 24.3015 75.3469 23.439C75.3609 22.5765 76.1094 21.8203 76.9344 21.9015C89.6531 22.0999 100 32.6046 100 45.3202C100 58.2437 89.4859 68.7577 76.5625 68.7577Z" fill="#737B7D"/>
<path d="M28.1234 68.7578H18.75C17.8859 68.7578 17.1875 68.0594 17.1875 67.1953C17.1875 66.3313 17.8859 65.6328 18.75 65.6328H28.1234C28.9875 65.6328 29.6859 66.3313 29.6859 67.1953C29.6859 68.0594 28.9875 68.7578 28.1234 68.7578Z" fill="#737B7D"/>
<path d="M76.5629 68.7578H71.877C71.0129 68.7578 70.3145 68.0594 70.3145 67.1953C70.3145 66.3313 71.0129 65.6328 71.877 65.6328H76.5629C77.427 65.6328 78.1254 66.3313 78.1254 67.1953C78.1254 68.0594 77.427 68.7578 76.5629 68.7578Z" fill="#737B7D"/>
<path d="M79.6875 37.5078C78.8234 37.5078 78.125 36.8094 78.125 35.9453C78.125 33.9375 77.9125 31.9359 77.4953 29.9969C74.7297 17.1469 63.1672 7.82031 50 7.82031C34.4922 7.82031 21.875 20.4375 21.875 35.9453C21.875 36.8094 21.1766 37.5078 20.3125 37.5078C19.4484 37.5078 18.75 36.8094 18.75 35.9453C18.75 18.7141 32.7688 4.69531 50 4.69531C64.6281 4.69531 77.4766 15.0594 80.55 29.3391C81.0156 31.4922 81.25 33.7156 81.25 35.9453C81.25 36.8094 80.5516 37.5078 79.6875 37.5078Z" fill="#737B7D"/>
<path d="M20.475 34.3828H18.75C17.8859 34.3828 17.1875 33.6844 17.1875 32.8203C17.1875 31.9562 17.8859 31.2578 18.75 31.2578H20.475C21.3391 31.2578 22.0375 31.9562 22.0375 32.8203C22.0375 33.6844 21.3391 34.3828 20.475 34.3828Z" fill="#737B7D"/>
<path d="M56.252 45.3156C55.3879 45.3156 54.6895 44.6172 54.6895 43.7531V28.125C54.6895 27.2609 55.3879 26.5625 56.252 26.5625C57.116 26.5625 57.8145 27.2609 57.8145 28.125V43.7531C57.8145 44.6172 57.116 45.3156 56.252 45.3156Z" fill="#737B7D"/>
<path d="M59.3764 32.8124C58.9764 32.8124 58.5764 32.6593 58.2717 32.3546L55.1467 29.2296C54.5357 28.6187 54.5357 27.6312 55.1467 27.0202C55.7576 26.4093 56.7451 26.4093 57.3561 27.0202L60.481 30.1452C61.092 30.7561 61.092 31.7437 60.481 32.3546C60.1764 32.6593 59.7764 32.8124 59.3764 32.8124Z" fill="#737B7D"/>
<path d="M53.1264 32.8124C52.7264 32.8124 52.3264 32.6593 52.0217 32.3546C51.4107 31.7437 51.4107 30.7561 52.0217 30.1452L55.1467 27.0202C55.7576 26.4093 56.7451 26.4093 57.356 27.0202C57.967 27.6312 57.967 28.6187 57.356 29.2296L54.2311 32.3546C53.9264 32.6593 53.5264 32.8124 53.1264 32.8124Z" fill="#737B7D"/>
<path d="M43.7471 45.3156C42.883 45.3156 42.1846 44.6172 42.1846 43.7531V28.125C42.1846 27.2609 42.883 26.5625 43.7471 26.5625C44.6111 26.5625 45.3096 27.2609 45.3096 28.125V43.7531C45.3096 44.6172 44.6111 45.3156 43.7471 45.3156Z" fill="#737B7D"/>
<path d="M43.7465 45.3156C43.3465 45.3156 42.9465 45.1624 42.6418 44.8578L39.5168 41.7328C38.9059 41.1218 38.9059 40.1343 39.5168 39.5234C40.1277 38.9125 41.1152 38.9125 41.7262 39.5234L44.8512 42.6484C45.4621 43.2593 45.4621 44.2468 44.8512 44.8578C44.5465 45.1624 44.1465 45.3156 43.7465 45.3156Z" fill="#737B7D"/>
<path d="M43.7465 45.3156C43.3465 45.3156 42.9465 45.1624 42.6418 44.8578C42.0309 44.2468 42.0309 43.2593 42.6418 42.6484L45.7668 39.5234C46.3777 38.9125 47.3652 38.9125 47.9762 39.5234C48.5871 40.1343 48.5871 41.1218 47.9762 41.7328L44.8512 44.8578C44.5465 45.1624 44.1465 45.3156 43.7465 45.3156Z" fill="#737B7D"/>
<path d="M50.0469 84.3672C49.1828 84.3672 48.4766 83.6688 48.4766 82.8047C48.4766 81.9406 49.1672 81.2422 50.0297 81.2422H50.0469C50.9094 81.2422 51.6094 81.9406 51.6094 82.8047C51.6094 83.6688 50.9094 84.3672 50.0469 84.3672Z" fill="#737B7D"/>
<path d="M71.8625 81.2422H28.2109C27.3469 81.2422 26.6484 80.5438 26.6484 79.6797C26.6484 78.8156 27.3469 78.1172 28.2109 78.1172H71.8641C72.7281 78.1172 73.4266 78.8156 73.4266 79.6797C73.4266 80.5438 72.7266 81.2422 71.8625 81.2422Z" fill="#737B7D"/>
<path d="M68.7377 87.4922H31.2627C28.6783 87.4922 26.5752 85.3891 26.5752 82.8047V54.6985C26.5752 52.1141 28.6783 50.011 31.2627 50.011H68.7377C71.3221 50.011 73.4252 52.1141 73.4252 54.6985V82.8047C73.4252 85.3891 71.3221 87.4922 68.7377 87.4922ZM31.2627 53.136C30.4002 53.136 29.7002 53.836 29.7002 54.6985V82.8047C29.7002 83.6672 30.4002 84.3672 31.2627 84.3672H68.7377C69.6002 84.3672 70.3002 83.6672 70.3002 82.8047V54.6985C70.3002 53.836 69.6002 53.136 68.7377 53.136H31.2627Z" fill="#737B7D"/>
<path d="M42.1907 95.3047C42.0891 95.3047 41.986 95.2953 41.8829 95.2735C41.0376 95.1047 40.4876 94.2813 40.6579 93.4344L42.2204 85.6219C42.3891 84.7735 43.2126 84.2219 44.0595 84.3969C44.9048 84.5657 45.4548 85.3891 45.2845 86.236L43.722 94.0485C43.5735 94.7922 42.9204 95.3047 42.1907 95.3047Z" fill="#737B7D"/>
<path d="M57.8092 95.3046C57.0795 95.3046 56.4264 94.7921 56.2795 94.0484L54.717 86.2359C54.5483 85.389 55.0967 84.5671 55.942 84.3968C56.7998 84.2234 57.6123 84.7765 57.7811 85.6218L59.3436 93.4343C59.5123 94.2812 58.9639 95.1031 58.1186 95.2734C58.0139 95.2952 57.9108 95.3046 57.8092 95.3046Z" fill="#737B7D"/>
<path d="M60.9375 95.3047H39.0625C38.1984 95.3047 37.5 94.6063 37.5 93.7422C37.5 92.8781 38.1984 92.1797 39.0625 92.1797H60.9375C61.8016 92.1797 62.5 92.8781 62.5 93.7422C62.5 94.6063 61.8016 95.3047 60.9375 95.3047Z" fill="#737B7D"/>
</svg>
