<svg width="100" height="100" viewBox="0 0 100 100" fill="none" xmlns="http://www.w3.org/2000/svg">
<path d="M14.0625 35.9375H85.9375C86.7663 35.9375 87.5612 36.2667 88.1472 36.8528C88.7333 37.4388 89.0625 38.2337 89.0625 39.0625V89.0625H10.9375V39.0625C10.9375 38.2337 11.2667 37.4388 11.8528 36.8528C12.4388 36.2667 13.2337 35.9375 14.0625 35.9375Z" fill="white"/>
<path d="M4.6875 85.9375H95.3125V89.0625C95.3125 90.7201 94.654 92.3098 93.4819 93.4819C92.3098 94.654 90.7201 95.3125 89.0625 95.3125H10.9375C9.2799 95.3125 7.69018 94.654 6.51808 93.4819C5.34598 92.3098 4.6875 90.7201 4.6875 89.0625V85.9375Z" fill="white"/>
<path d="M10.9375 51.5625C13.5263 51.5625 15.625 49.4638 15.625 46.875C15.625 44.2862 13.5263 42.1875 10.9375 42.1875C8.34867 42.1875 6.25 44.2862 6.25 46.875C6.25 49.4638 8.34867 51.5625 10.9375 51.5625Z" fill="#3C64B1"/>
<path d="M21.875 29.6875L4.6875 15.1041L50 4.6875L95.3125 15.1041L78.125 29.6875H21.875Z" fill="#3C64B1"/>
<path d="M78.125 35.9375H21.875V21.875C21.875 21.875 35.9375 17.1875 50 17.1875C64.0625 17.1875 78.125 21.875 78.125 21.875V35.9375Z" fill="white"/>
<path d="M95.3121 84.3749H90.6246V39.0624C90.6232 37.8196 90.1289 36.6282 89.2502 35.7494C88.3714 34.8706 87.1799 34.3763 85.9371 34.3749H79.6871V30.4101L96.3231 16.2948C96.5443 16.1073 96.709 15.8619 96.7987 15.5862C96.8883 15.3104 96.8995 15.0151 96.8309 14.7333C96.7623 14.4515 96.6167 14.1944 96.4102 13.9907C96.2038 13.7871 95.9448 13.6448 95.6621 13.58L50.3496 3.16338C50.1193 3.11025 49.88 3.11025 49.6496 3.16338L4.33713 13.58C4.05448 13.6448 3.79545 13.7871 3.58904 13.9907C3.38262 14.1944 3.23696 14.4515 3.16837 14.7333C3.09977 15.0151 3.11094 15.3104 3.20063 15.5862C3.29032 15.8619 3.45498 16.1073 3.6762 16.2948L9.37463 21.1306V40.8228C8.03249 41.1687 6.84343 41.951 5.99445 43.0466C5.14548 44.1422 4.68476 45.4889 4.68476 46.8749C4.68476 48.2609 5.14548 49.6076 5.99445 50.7032C6.84343 51.7988 8.03249 52.5811 9.37463 52.927V84.3749H4.68713C4.27273 84.3749 3.87531 84.5395 3.58228 84.8325C3.28925 85.1256 3.12463 85.523 3.12463 85.9374V89.0624C3.12696 91.1337 3.95081 93.1195 5.41543 94.5841C6.88006 96.0487 8.86584 96.8726 10.9371 96.8749H89.0621C91.1334 96.8726 93.1192 96.0487 94.5838 94.5841C96.0485 93.1195 96.8723 91.1337 96.8746 89.0624V85.9374C96.8746 85.523 96.71 85.1256 96.417 84.8325C96.124 84.5395 95.7265 84.3749 95.3121 84.3749ZM87.4996 39.0624V84.3749H84.3746V42.1874C84.3746 41.773 84.21 41.3756 83.917 41.0825C83.624 40.7895 83.2265 40.6249 82.8121 40.6249H17.1871C16.7727 40.6249 16.3753 40.7895 16.0823 41.0825C15.7893 41.3756 15.6246 41.773 15.6246 42.1874V42.7476C14.7988 41.808 13.7103 41.1376 12.4996 40.8228V39.0624C12.5001 38.6481 12.6649 38.251 12.9578 37.9581C13.2507 37.6651 13.6479 37.5004 14.0621 37.4999H85.9371C86.3514 37.5004 86.7486 37.6651 87.0415 37.9581C87.3344 38.251 87.4992 38.6481 87.4996 39.0624ZM81.2496 84.3749H18.7496V43.7499H81.2496V84.3749ZM76.5621 27.5716C72.111 26.2704 61.1403 23.4374 49.9996 23.4374C38.859 23.4374 27.8883 26.2694 23.4371 27.5716V23.0235C26.9459 21.9644 38.5399 18.7499 49.9996 18.7499C61.445 18.7499 73.0506 21.9649 76.5621 23.0239V27.5716ZM23.4371 34.3749V30.836C26.9438 29.7774 38.5381 26.5624 49.9996 26.5624C61.4471 26.5624 73.0528 29.778 76.5621 30.8364V34.3749H23.4371ZM49.9996 6.29053L91.925 15.9288L79.6871 26.3124V21.8749C79.6871 21.547 79.5839 21.2274 79.3922 20.9614C79.2005 20.6953 78.9299 20.4964 78.6188 20.3927C78.0348 20.1979 64.153 15.6249 49.9996 15.6249C35.8463 15.6249 21.9645 20.1979 21.3805 20.3927C21.0694 20.4964 20.7988 20.6953 20.6071 20.9614C20.4153 21.2274 20.3122 21.547 20.3121 21.8749V26.3124L8.07424 15.9288L49.9996 6.29053ZM20.3121 30.4101V34.3749H14.0621C13.5298 34.3747 13.0013 34.4656 12.4996 34.6437V23.7819L20.3121 30.4101ZM7.81213 46.8749C7.81213 46.2568 7.99541 45.6526 8.33879 45.1387C8.68217 44.6248 9.17023 44.2243 9.74125 43.9878C10.3123 43.7513 10.9406 43.6894 11.5468 43.8099C12.153 43.9305 12.7098 44.2282 13.1468 44.6652C13.5839 45.1022 13.8815 45.6591 14.0021 46.2652C14.1227 46.8714 14.0608 47.4998 13.8243 48.0708C13.5877 48.6418 13.1872 49.1299 12.6733 49.4732C12.1594 49.8166 11.5552 49.9999 10.9371 49.9999C10.1086 49.9989 9.31435 49.6694 8.72851 49.0835C8.14267 48.4977 7.81312 47.7034 7.81213 46.8749ZM12.4996 52.927C13.7103 52.6122 14.7988 51.9418 15.6246 51.0022V84.3749H12.4996V52.927ZM93.7496 89.0624C93.7482 90.3052 93.2539 91.4966 92.3751 92.3754C91.4963 93.2541 90.3049 93.7485 89.0621 93.7499H10.9371C9.69438 93.7485 8.50293 93.2541 7.62417 92.3754C6.74541 91.4966 6.25108 90.3052 6.24963 89.0624V87.4999H93.7496V89.0624Z" fill="#737B7D"/>
</svg>
