<svg width="94" height="66" viewBox="0 0 94 66" fill="none" xmlns="http://www.w3.org/2000/svg">
<path d="M92.6172 37.1026L81.8514 34.0269L68.75 26.7481V24.5425C68.7486 23.2997 68.2542 22.1083 67.3755 21.2295C66.4967 20.3508 65.3053 19.8564 64.0625 19.855H57.8125V15.1675H59.375V12.0425H46.875V15.1675H48.4375V19.855H42.1875C40.9447 19.8564 39.7533 20.3508 38.8745 21.2295C37.9958 22.1083 37.5014 23.2997 37.5 24.5425V26.9165L28.3203 34.2603L30.2734 36.7005L39.6107 29.23H51.5625V38.605H23.4375C23.3798 38.605 23.3222 38.6082 23.2648 38.6146L9.20234 40.1771C9.15781 40.1819 9.11328 40.1888 9.06934 40.1976C6.51191 40.7087 4.21061 42.0902 2.55706 44.107C0.903521 46.1238 -9.23804e-05 48.6513 7.08372e-09 51.2593V58.9175C7.08372e-09 59.3319 0.16462 59.7293 0.457646 60.0223C0.750671 60.3154 1.1481 60.48 1.5625 60.48H10.6363C11.8095 62.5064 13.6986 64.0202 15.9319 64.7237C18.1652 65.4272 20.5809 65.2693 22.7036 64.2811C24.8263 63.2929 26.5023 61.5459 27.4017 59.3841C28.3011 57.2222 28.3587 54.8021 27.5633 52.5998C26.7679 50.3976 25.177 48.5729 23.1038 47.4847C21.0305 46.3965 18.6251 46.1238 16.3608 46.7201C14.0965 47.3164 12.1375 48.7386 10.8692 50.7068C9.60084 52.675 9.11513 55.0466 9.50762 57.355H3.125V51.2593C3.12529 50.6821 3.18703 50.1066 3.30918 49.5425H7.8125V46.4175H4.71914C4.80156 46.3058 4.88594 46.1954 4.97422 46.0878C6.15601 44.6482 7.79436 43.6559 9.61758 43.2753L23.5238 41.7302H51.5625V47.9802H31.25V51.1052H51.5625V57.3552H31.25V60.4802H66.8863C67.708 61.9052 68.8905 63.0887 70.3148 63.9116C71.7391 64.7344 73.3551 65.1677 75 65.1677C76.6449 65.1677 78.2609 64.7344 79.6852 63.9116C81.1095 63.0887 82.292 61.9052 83.1137 60.4802H85.9375C86.1801 60.4802 86.4194 60.4237 86.6363 60.3151L92.8863 57.1901C93.1459 57.0604 93.3642 56.8609 93.5167 56.614C93.6692 56.3671 93.75 56.0827 93.75 55.7925V38.605C93.75 38.2655 93.6395 37.9352 93.4351 37.6642C93.2307 37.3931 92.9436 37.196 92.6172 37.1026ZM18.75 49.5425C19.9861 49.5425 21.1945 49.909 22.2223 50.5958C23.2501 51.2826 24.0512 52.2587 24.5242 53.4007C24.9973 54.5427 25.1211 55.7994 24.8799 57.0118C24.6388 58.2242 24.0435 59.3378 23.1694 60.2119C22.2953 61.086 21.1817 61.6812 19.9693 61.9224C18.7569 62.1636 17.5003 62.0398 16.3582 61.5667C15.2162 61.0937 14.2401 60.2926 13.5533 59.2648C12.8666 58.237 12.5 57.0286 12.5 55.7925C12.5019 54.1355 13.1609 52.5468 14.3326 51.3751C15.5043 50.2034 17.093 49.5443 18.75 49.5425ZM78.1264 35.5319L73.0047 38.605H54.6875V29.23H66.7826L78.1264 35.5319ZM51.5625 15.1675H54.6875V19.855H51.5625V15.1675ZM40.625 26.105V24.5425C40.6255 24.1282 40.7902 23.7311 41.0832 23.4381C41.3761 23.1452 41.7732 22.9804 42.1875 22.98H64.0625C64.4768 22.9804 64.8739 23.1452 65.1668 23.4381C65.4598 23.7311 65.6245 24.1282 65.625 24.5425V26.105H40.625ZM75 62.0425C73.7639 62.0425 72.5555 61.6759 71.5277 60.9892C70.4999 60.3024 69.6988 59.3263 69.2258 58.1843C68.7527 57.0422 68.6289 55.7855 68.8701 54.5732C69.1113 53.3608 69.7065 52.2471 70.5806 51.3731C71.4547 50.499 72.5683 49.9037 73.7807 49.6626C74.9931 49.4214 76.2497 49.5452 77.3918 50.0182C78.5338 50.4913 79.5099 51.2924 80.1967 52.3202C80.8834 53.348 81.25 54.5564 81.25 55.7925C81.2481 57.4495 80.5891 59.0381 79.4174 60.2098C78.2457 61.3815 76.657 62.0406 75 62.0425ZM90.625 41.73H84.375V44.855H90.625V54.8269L85.5686 57.355H84.2424C84.471 56.0102 84.4034 54.6316 84.0443 53.3156C83.6852 51.9996 83.0432 50.7778 82.1632 49.7356C81.2831 48.6933 80.1862 47.8556 78.949 47.281C77.7118 46.7064 76.3641 46.4087 75 46.4087C73.6359 46.4087 72.2882 46.7064 71.051 47.281C69.8138 47.8556 68.7169 48.6933 67.8368 49.7356C66.9568 50.7778 66.3148 51.9996 65.9557 53.3156C65.5966 54.6316 65.529 56.0102 65.7576 57.355H54.6875V51.105H62.5V47.98H54.6875V41.73H73.4375C73.7207 41.7299 73.9985 41.6529 74.2414 41.5073L81.4727 37.1687L90.625 39.7835V41.73Z" fill="#737B7D"/>
<path d="M18.75 58.9175C20.4759 58.9175 21.875 57.5184 21.875 55.7925C21.875 54.0666 20.4759 52.6675 18.75 52.6675C17.0241 52.6675 15.625 54.0666 15.625 55.7925C15.625 57.5184 17.0241 58.9175 18.75 58.9175Z" fill="#737B7D"/>
<path d="M75 58.9175C76.7259 58.9175 78.125 57.5184 78.125 55.7925C78.125 54.0666 76.7259 52.6675 75 52.6675C73.2741 52.6675 71.875 54.0666 71.875 55.7925C71.875 57.5184 73.2741 58.9175 75 58.9175Z" fill="#737B7D"/>
<path d="M30.1455 9.375C28.0169 11.5044 26.7201 14.3249 26.4893 17.3268C26.2585 20.3288 27.1089 23.3144 28.8869 25.7441L31.4065 23.8953C30.0808 22.0635 29.4485 19.8205 29.6222 17.566C29.7959 15.3115 30.7644 13.1919 32.3551 11.5848L30.1455 9.375Z" fill="#737B7D"/>
<path d="M23.8711 30.1023L26.3361 28.1816C23.929 25.0799 22.7362 21.2065 22.9813 17.288C23.2264 13.3694 24.8925 9.67491 27.6674 6.89726L25.4576 4.6875C22.1447 8.00455 20.1557 12.4163 19.8636 17.0952C19.5715 21.7742 20.9964 26.399 23.8711 30.1023Z" fill="#737B7D"/>
<path d="M18.8475 34.4348L21.287 32.4817C17.7889 28.114 16.0271 22.6084 16.3397 17.0213C16.6523 11.4343 19.0173 6.15953 22.9807 2.20938L20.77 0C16.2621 4.49382 13.5727 10.4942 13.2179 16.8494C12.8631 23.2047 14.8679 29.4671 18.8475 34.4348Z" fill="#737B7D"/>
<path d="M74.5889 11.5848C76.3216 13.3093 77.3197 15.6376 77.3739 18.0816C77.4282 20.5257 76.5344 22.896 74.8799 24.6957L77.1846 26.8072C79.3847 24.4146 80.5734 21.2633 80.5016 18.0136C80.4299 14.764 79.1032 11.6682 76.7996 9.375L74.5889 11.5848Z" fill="#3C64B1"/>
<path d="M79.2764 6.89726C82.0977 9.71817 83.7722 13.4855 83.9757 17.4699C84.1792 21.4544 82.8973 25.3727 80.3781 28.4664L82.7986 30.4428C85.8077 26.7492 87.3392 22.0706 87.0967 17.3127C86.8543 12.5547 84.855 8.05603 81.4861 4.6875L79.2764 6.89726Z" fill="#3C64B1"/>
<path d="M85.8896 32.1897L88.3611 34.1021C96.2975 23.8442 95.357 9.1833 86.1736 0.000488281L83.9639 2.21025C92.0379 10.2847 92.866 23.1726 85.8896 32.1897Z" fill="#3C64B1"/>
</svg>
