<svg width="100" height="100" viewBox="0 0 100 100" fill="none" xmlns="http://www.w3.org/2000/svg">
<path d="M84.6946 54.9605C82.9558 53.2218 80.6441 52.2643 78.1852 52.2643C75.7262 52.2643 73.4145 53.221 71.6758 54.9605L65.0207 61.6164C64.9779 53.3377 58.2313 46.6155 49.9435 46.6155C41.6549 46.6155 34.909 53.3377 34.8662 61.6156L28.2104 54.9597C26.4716 53.2218 24.1599 52.2643 21.701 52.2643C19.242 52.2643 16.9303 53.221 15.1923 54.9605C11.6027 58.5494 11.6027 64.3897 15.1916 67.9793L34.4619 87.2489V97.0702C34.4619 98.6884 35.7734 99.9999 37.3916 99.9999H62.4953C64.1135 99.9999 65.425 98.6884 65.425 97.0702V87.2489L84.6953 67.9793C88.2842 64.3897 88.2842 58.5494 84.6946 54.9605ZM49.9435 52.4749C55.0269 52.4749 59.1628 56.6108 59.1628 61.695C59.1628 66.7784 55.0269 70.9151 49.9435 70.9151C44.8592 70.9151 40.7233 66.7784 40.7233 61.695C40.7233 56.6108 44.8592 52.4749 49.9435 52.4749ZM80.5518 63.8358L60.424 83.9637C59.8746 84.5137 59.5656 85.2584 59.5656 86.0358V94.1405H40.3213V86.0358C40.3213 85.2584 40.0123 84.513 39.4629 83.9637L19.3343 63.8358C18.0297 62.5312 18.0305 60.4079 19.3351 59.1033C19.9668 58.4716 20.8076 58.1237 21.701 58.1237C22.5951 58.1237 23.4351 58.4716 24.0676 59.1033L40.8797 75.9162C41.429 76.4655 42.1744 76.7745 42.9511 76.7745H56.935C57.7125 76.7745 58.4579 76.4655 59.0072 75.9162L75.8193 59.1033C76.4518 58.4716 77.2918 58.1237 78.1859 58.1237C79.0793 58.1237 79.9201 58.4708 80.5518 59.1033C81.8564 60.4079 81.8564 62.5312 80.5518 63.8358Z" fill="#3C64B1"/>
<path d="M36.9892 27.7611L34.9338 39.74C34.7454 40.8394 35.197 41.9502 36.0988 42.6056C36.6092 42.9764 37.2142 43.1656 37.8215 43.1656C38.2877 43.1656 38.7554 43.0542 39.1849 42.8284L49.9431 37.1727L60.7013 42.8284C61.1293 43.0542 61.5978 43.1656 62.0639 43.1656C62.067 43.1656 62.07 43.1656 62.0723 43.1656C63.6882 43.1625 64.9982 41.8518 64.9982 40.2359C64.9982 40.0108 64.973 39.7919 64.925 39.5805L62.8971 27.7611L71.6007 19.2772C72.3995 18.499 72.6863 17.3347 72.3423 16.2735C71.9974 15.213 71.0803 14.4402 69.9771 14.2799L57.9494 12.532L52.5699 1.63269C52.0763 0.63324 51.0578 0 49.9431 0C48.8277 0 47.8092 0.63324 47.3155 1.63269L41.9368 12.532L29.9091 14.2799C28.8051 14.4402 27.8888 15.213 27.544 16.2735C27.1991 17.3347 27.4867 18.499 28.2855 19.2772L36.9892 27.7611ZM44.3035 18.1091C45.2579 17.9703 46.0819 17.3714 46.5091 16.507L49.9431 9.54971L53.3763 16.507C53.8028 17.3714 54.6276 17.9703 55.582 18.1091L63.2602 19.2253L57.7045 24.6407C57.014 25.3136 56.6989 26.2833 56.8614 27.2339L58.1729 34.8801L51.3065 31.2698C50.8792 31.0448 50.4108 30.9326 49.9431 30.9326C49.4747 30.9326 49.0062 31.0448 48.5797 31.2698L41.7125 34.8801L43.0248 27.2339C43.188 26.2833 42.8729 25.3136 42.1825 24.6407L36.626 19.2245L44.3035 18.1091Z" fill="#3C64B1"/>
</svg>
