<svg width="92" height="101" viewBox="0 0 92 101" fill="none" xmlns="http://www.w3.org/2000/svg">
<path d="M28.1938 74.6136C27.561 74.8894 27.2716 75.626 27.5474 76.2587C27.8447 76.941 27.9955 77.6682 27.9955 78.4199C27.9955 81.4063 25.5658 83.8358 22.5796 83.8358C19.5934 83.8358 17.1637 81.4063 17.1637 78.4199C17.1637 75.4335 19.5934 73.004 22.5796 73.004C23.3311 73.004 24.0582 73.1547 24.7403 73.452C25.3732 73.7276 26.1096 73.4381 26.3854 72.8052C26.6612 72.1723 26.3715 71.4359 25.7388 71.1603C24.7396 70.725 23.6768 70.5044 22.5796 70.5044C18.215 70.5044 14.6641 74.0552 14.6641 78.4199C14.6641 82.7846 18.215 86.3354 22.5796 86.3354C26.9441 86.3354 30.4951 82.7846 30.4951 78.4199C30.4951 77.3224 30.2743 76.2592 29.8389 75.26C29.5631 74.6273 28.8268 74.3378 28.1938 74.6136Z" fill="#3C64B1"/>
<path d="M22.58 75.8369C21.1557 75.8369 19.9971 76.9956 19.9971 78.4199C19.9971 79.8442 21.1557 81.0028 22.58 81.0028C24.0043 81.0028 25.163 79.8442 25.163 78.4199C25.163 76.9956 24.0043 75.8369 22.58 75.8369ZM22.58 78.5032C22.534 78.5032 22.4967 78.4659 22.4967 78.4199C22.4967 78.3739 22.534 78.3366 22.58 78.3366C22.626 78.3366 22.6634 78.3739 22.6634 78.4199C22.6634 78.4659 22.626 78.5032 22.58 78.5032Z" fill="#3C64B1"/>
<path d="M82.4881 74.7095V65.426C82.4881 60.8041 78.8198 56.8624 73.9428 56.2555L65.0721 55.2413L59.8588 32.3029C59.6482 31.3761 59.9237 30.4214 60.5957 29.7493L63.2459 27.099C63.734 26.6109 63.734 25.8195 63.2459 25.3314C62.7578 24.8433 61.9664 24.8433 61.4785 25.3314L58.8283 27.9816C57.5452 29.2647 57.0193 31.0871 57.4214 32.8567L62.4403 54.9403L59.5972 54.6154L53.172 26.3441H53.2423C53.9325 26.3441 54.4921 25.7845 54.4921 25.0943C54.4921 24.4041 53.9325 23.8445 53.2423 23.8445H14.5892C14.5876 23.8445 14.5859 23.8445 14.5842 23.8445H13.2481C12.5579 23.8445 11.9983 24.4041 11.9983 25.0943C11.9983 25.715 12.4514 26.2288 13.0446 26.3261L8.02567 50.1665C8.00151 50.2813 7.99518 50.3956 8.00268 50.5073H2.58296C1.89273 50.5073 1.33314 51.0669 1.33314 51.7571C1.33314 52.4473 1.89273 53.0069 2.58296 53.0069H5.33256V63.7554C5.33256 63.79 5.3349 63.8242 5.33773 63.8582C2.00988 67.7925 0 72.8756 0 78.4199C0 90.8706 10.1294 101 22.5801 101C32.2522 101 40.5223 94.8866 43.7323 86.3213C43.7907 86.3296 43.8498 86.3355 43.9103 86.3355H47.9931V86.4188C47.9931 87.8431 49.1517 89.0017 50.576 89.0017H61.422C61.3596 89.4655 61.3245 89.9376 61.3245 90.4182C61.3245 96.253 66.0715 101 71.9063 101C77.7411 101 82.4881 96.253 82.4881 90.4182C82.4881 89.8801 82.4471 89.3514 82.3693 88.8346C83.9789 88.348 85.1544 86.8519 85.1544 85.0856V78.4199C85.1544 76.6975 84.0362 75.2324 82.4881 74.7095ZM79.9884 69.1713H78.572C78.5292 69.1713 78.4887 69.1308 78.4887 69.0879V67.7548C78.4887 67.712 78.5292 67.6715 78.572 67.6715H79.9884V69.1713ZM79.9819 65.1718H78.572C77.1477 65.1718 75.989 66.3305 75.989 67.7548V69.0879C75.989 70.5122 77.1477 71.6709 78.572 71.6709H79.9884V74.5038H50.2167C49.2302 67.5083 45.6417 61.3381 40.4635 57.0064H58.5037L73.6465 58.7374C77.1705 59.176 79.8486 61.9191 79.9819 65.1718ZM22.5801 50.5073H19.8305L21.8688 35.2198C22.1381 33.2 23.8779 31.6767 25.9158 31.6767H31.9954V52.1431C29.0525 51.0854 25.8826 50.5073 22.5801 50.5073ZM34.495 53.0903V31.6767H51.8205L57.0091 54.5067H37.2446C37.162 54.5067 37.0813 54.5152 37.0032 54.5306C36.1918 54.039 35.3529 53.5884 34.4905 53.1797C34.4927 53.1501 34.495 53.1204 34.495 53.0903ZM15.5954 26.3441H50.6625C50.6547 26.4621 50.663 26.5833 50.6905 26.7044L51.2524 29.177H25.9158C22.6304 29.177 19.8253 31.6329 19.3912 34.8896L17.342 50.2588C17.3308 50.3428 17.3285 50.426 17.3338 50.5073H10.5083L15.5954 26.3441ZM22.5801 98.5004C11.5077 98.5004 2.49964 89.4923 2.49964 78.4199C2.49964 67.3475 11.5077 58.3395 22.5801 58.3395C33.6525 58.3395 42.6605 67.3475 42.6605 78.4199C42.6605 89.4923 33.6525 98.5004 22.5801 98.5004ZM44.5021 83.8358C44.931 82.1001 45.1601 80.2863 45.1601 78.4199C45.1601 65.9692 35.0308 55.8399 22.5801 55.8399C16.9482 55.8399 11.7915 57.9126 7.8322 61.3351V53.0069H22.5801C36.5929 53.0069 47.9931 64.4071 47.9931 78.4199V83.8358H44.5021ZM71.9063 98.5004C67.4498 98.5004 63.8241 94.8747 63.8241 90.4182C63.8241 85.9617 67.4498 82.336 71.9063 82.336C76.3628 82.336 79.9884 85.9617 79.9884 90.4182C79.9884 94.8747 76.3628 98.5004 71.9063 98.5004ZM82.6547 85.0856C82.6547 85.704 82.2558 86.2296 81.7024 86.4224C80.1223 82.5632 76.3276 79.8364 71.9063 79.8364C67.4546 79.8364 63.639 82.6008 62.0789 86.5021H50.576C50.53 86.5021 50.4927 86.4648 50.4927 86.4188V78.4199C50.4927 77.945 50.4805 77.4727 50.457 77.0035H81.2383C82.0193 77.0035 82.6547 77.6389 82.6547 78.4199V85.0856Z" fill="#737B7D"/>
<mask id="path-4-outside-1" maskUnits="userSpaceOnUse" x="41.5742" y="0" width="50" height="52" fill="black">
<rect fill="white" x="41.5742" width="50" height="52"/>
<path fill-rule="evenodd" clip-rule="evenodd" d="M84.5552 16.5449V16.6317C86.7518 17.6394 88.554 19.3443 89.6819 21.4816C90.8098 23.6189 91.2002 26.0688 90.7924 28.4508C90.3846 30.8328 89.2015 33.0134 87.4269 34.6538C85.6524 36.2943 83.3856 37.3026 80.979 37.5222C80.9525 37.5268 80.9241 37.5268 80.8976 37.5268V39.4004C80.8976 39.6429 80.8013 39.8755 80.6298 40.047C80.4583 40.2185 80.2257 40.3148 79.9832 40.3148H76.7481C76.4483 41.4006 76.0149 42.4449 75.4578 43.4238L77.7466 45.7126C77.918 45.8841 78.0143 46.1166 78.0143 46.3591C78.0143 46.6015 77.918 46.8341 77.7466 47.0056L73.8695 50.8826C73.6949 51.048 73.4635 51.1402 73.223 51.1402C72.9825 51.1402 72.7511 51.048 72.5765 50.8826L70.2905 48.5911C69.7923 48.8746 69.2771 49.126 68.7482 49.3441V47.3367C69.1552 47.1374 69.5511 46.9145 69.9339 46.669C70.1094 46.5564 70.3182 46.507 70.5256 46.5293C70.733 46.5516 70.9266 46.6442 71.0742 46.7916L73.2258 48.9432L75.8099 46.3591L73.6583 44.2075C73.5105 44.0599 73.4176 43.8663 73.3952 43.6587C73.3727 43.451 73.422 43.242 73.5348 43.0663C74.2955 41.885 74.8389 40.5772 75.1396 39.2048C75.1842 39.001 75.2972 38.8187 75.4597 38.688C75.6221 38.5572 75.8244 38.486 76.033 38.486H79.0688V34.8284H76.033C75.824 34.8291 75.621 34.7581 75.458 34.6273C75.2949 34.4965 75.1816 34.3139 75.1369 34.1097C74.837 32.7374 74.2945 31.4297 73.5348 30.2481C73.422 30.0724 73.3727 29.8634 73.3952 29.6558C73.4176 29.4482 73.5105 29.2545 73.6583 29.107L75.8099 26.9554L73.2258 24.3713L71.0742 26.5229C70.9266 26.6703 70.733 26.7628 70.5256 26.7851C70.3182 26.8074 70.1094 26.7581 69.9339 26.6454C69.5511 26.3994 69.1552 26.1762 68.7482 25.9764V23.9703C69.2771 24.1884 69.7923 24.4399 70.2905 24.7233L72.5793 22.4345C72.7507 22.2631 72.9833 22.1668 73.2258 22.1668C73.4682 22.1668 73.7008 22.2631 73.8722 22.4345L77.7493 26.3116C77.9207 26.4831 78.017 26.7156 78.017 26.9581C78.017 27.2006 77.9207 27.4331 77.7493 27.6046L75.4578 29.8906C76.0149 30.8696 76.4483 31.9139 76.7481 32.9996H79.9832C80.2257 32.9996 80.4583 33.0959 80.6298 33.2674C80.8013 33.4389 80.8976 33.6715 80.8976 33.914V35.6898C82.9433 35.4859 84.8604 34.5979 86.339 33.1696C87.8175 31.7412 88.7711 29.8559 89.0455 27.8185C89.3199 25.781 88.8991 23.7106 87.8512 21.942C86.8032 20.1733 85.1893 18.8098 83.2705 18.0719C83.0788 17.9991 82.9171 17.8639 82.8115 17.6881C82.7058 17.5123 82.6624 17.3061 82.688 17.1026C82.7723 16.4592 82.7177 15.8052 82.5281 15.1846C82.3384 14.564 82.018 13.9912 81.5885 13.5047C81.159 13.0183 80.6303 12.6295 80.0379 12.3645C79.4456 12.0994 78.8033 11.9643 78.1544 11.9683C77.5166 11.9631 76.8854 12.0969 76.3046 12.3605C76.1828 12.4164 76.0503 12.4449 75.9164 12.4439C75.7824 12.4429 75.6504 12.4125 75.5295 12.3549C75.4086 12.2972 75.3018 12.2137 75.2167 12.1102C75.1317 12.0068 75.0704 11.8859 75.0372 11.7561C74.3808 9.20135 72.8932 6.93748 70.8089 5.32098C68.7245 3.70447 66.1617 2.82714 63.5239 2.82714C60.8862 2.82714 58.3233 3.70447 56.239 5.32098C54.1546 6.93748 52.6671 9.20135 52.0106 11.7561C51.9774 11.8859 51.9161 12.0068 51.8311 12.1102C51.746 12.2137 51.6393 12.2972 51.5184 12.3549C51.3975 12.4125 51.2654 12.4429 51.1314 12.4439C50.9975 12.4449 50.865 12.4164 50.7433 12.3605C50.1625 12.0969 49.5312 11.9631 48.8934 11.9683C48.2441 11.9637 47.6014 12.0983 47.0085 12.363C46.4155 12.6278 45.8863 13.0165 45.4562 13.503C45.0262 13.9895 44.7054 14.5625 44.5155 15.1835C44.4798 15.3004 44.4488 15.4184 44.4227 15.5374H42.5742C42.6757 14.9078 42.8707 14.295 43.1546 13.7198C43.5875 12.8424 44.2154 12.0757 44.9902 11.4783C45.765 10.881 46.6663 10.4688 47.6249 10.2733C48.5836 10.0779 49.5742 10.1043 50.5211 10.3507C51.4357 7.62638 53.1829 5.25817 55.516 3.58039C57.849 1.90261 60.6502 1 63.5239 1C66.3976 1 69.1988 1.90261 71.5319 3.58039C73.865 5.25817 75.6121 7.62638 76.5268 10.3507C77.474 10.1042 78.465 10.0779 79.424 10.2736C80.383 10.4693 81.2845 10.8818 82.0594 11.4797C82.8343 12.0776 83.4621 12.8449 83.8947 13.7228C84.3274 14.6008 84.5533 15.5661 84.5552 16.5449Z"/>
</mask>
<path fill-rule="evenodd" clip-rule="evenodd" d="M84.5552 16.5449V16.6317C86.7518 17.6394 88.554 19.3443 89.6819 21.4816C90.8098 23.6189 91.2002 26.0688 90.7924 28.4508C90.3846 30.8328 89.2015 33.0134 87.4269 34.6538C85.6524 36.2943 83.3856 37.3026 80.979 37.5222C80.9525 37.5268 80.9241 37.5268 80.8976 37.5268V39.4004C80.8976 39.6429 80.8013 39.8755 80.6298 40.047C80.4583 40.2185 80.2257 40.3148 79.9832 40.3148H76.7481C76.4483 41.4006 76.0149 42.4449 75.4578 43.4238L77.7466 45.7126C77.918 45.8841 78.0143 46.1166 78.0143 46.3591C78.0143 46.6015 77.918 46.8341 77.7466 47.0056L73.8695 50.8826C73.6949 51.048 73.4635 51.1402 73.223 51.1402C72.9825 51.1402 72.7511 51.048 72.5765 50.8826L70.2905 48.5911C69.7923 48.8746 69.2771 49.126 68.7482 49.3441V47.3367C69.1552 47.1374 69.5511 46.9145 69.9339 46.669C70.1094 46.5564 70.3182 46.507 70.5256 46.5293C70.733 46.5516 70.9266 46.6442 71.0742 46.7916L73.2258 48.9432L75.8099 46.3591L73.6583 44.2075C73.5105 44.0599 73.4176 43.8663 73.3952 43.6587C73.3727 43.451 73.422 43.242 73.5348 43.0663C74.2955 41.885 74.8389 40.5772 75.1396 39.2048C75.1842 39.001 75.2972 38.8187 75.4597 38.688C75.6221 38.5572 75.8244 38.486 76.033 38.486H79.0688V34.8284H76.033C75.824 34.8291 75.621 34.7581 75.458 34.6273C75.2949 34.4965 75.1816 34.3139 75.1369 34.1097C74.837 32.7374 74.2945 31.4297 73.5348 30.2481C73.422 30.0724 73.3727 29.8634 73.3952 29.6558C73.4176 29.4482 73.5105 29.2545 73.6583 29.107L75.8099 26.9554L73.2258 24.3713L71.0742 26.5229C70.9266 26.6703 70.733 26.7628 70.5256 26.7851C70.3182 26.8074 70.1094 26.7581 69.9339 26.6454C69.5511 26.3994 69.1552 26.1762 68.7482 25.9764V23.9703C69.2771 24.1884 69.7923 24.4399 70.2905 24.7233L72.5793 22.4345C72.7507 22.2631 72.9833 22.1668 73.2258 22.1668C73.4682 22.1668 73.7008 22.2631 73.8722 22.4345L77.7493 26.3116C77.9207 26.4831 78.017 26.7156 78.017 26.9581C78.017 27.2006 77.9207 27.4331 77.7493 27.6046L75.4578 29.8906C76.0149 30.8696 76.4483 31.9139 76.7481 32.9996H79.9832C80.2257 32.9996 80.4583 33.0959 80.6298 33.2674C80.8013 33.4389 80.8976 33.6715 80.8976 33.914V35.6898C82.9433 35.4859 84.8604 34.5979 86.339 33.1696C87.8175 31.7412 88.7711 29.8559 89.0455 27.8185C89.3199 25.781 88.8991 23.7106 87.8512 21.942C86.8032 20.1733 85.1893 18.8098 83.2705 18.0719C83.0788 17.9991 82.9171 17.8639 82.8115 17.6881C82.7058 17.5123 82.6624 17.3061 82.688 17.1026C82.7723 16.4592 82.7177 15.8052 82.5281 15.1846C82.3384 14.564 82.018 13.9912 81.5885 13.5047C81.159 13.0183 80.6303 12.6295 80.0379 12.3645C79.4456 12.0994 78.8033 11.9643 78.1544 11.9683C77.5166 11.9631 76.8854 12.0969 76.3046 12.3605C76.1828 12.4164 76.0503 12.4449 75.9164 12.4439C75.7824 12.4429 75.6504 12.4125 75.5295 12.3549C75.4086 12.2972 75.3018 12.2137 75.2167 12.1102C75.1317 12.0068 75.0704 11.8859 75.0372 11.7561C74.3808 9.20135 72.8932 6.93748 70.8089 5.32098C68.7245 3.70447 66.1617 2.82714 63.5239 2.82714C60.8862 2.82714 58.3233 3.70447 56.239 5.32098C54.1546 6.93748 52.6671 9.20135 52.0106 11.7561C51.9774 11.8859 51.9161 12.0068 51.8311 12.1102C51.746 12.2137 51.6393 12.2972 51.5184 12.3549C51.3975 12.4125 51.2654 12.4429 51.1314 12.4439C50.9975 12.4449 50.865 12.4164 50.7433 12.3605C50.1625 12.0969 49.5312 11.9631 48.8934 11.9683C48.2441 11.9637 47.6014 12.0983 47.0085 12.363C46.4155 12.6278 45.8863 13.0165 45.4562 13.503C45.0262 13.9895 44.7054 14.5625 44.5155 15.1835C44.4798 15.3004 44.4488 15.4184 44.4227 15.5374H42.5742C42.6757 14.9078 42.8707 14.295 43.1546 13.7198C43.5875 12.8424 44.2154 12.0757 44.9902 11.4783C45.765 10.881 46.6663 10.4688 47.6249 10.2733C48.5836 10.0779 49.5742 10.1043 50.5211 10.3507C51.4357 7.62638 53.1829 5.25817 55.516 3.58039C57.849 1.90261 60.6502 1 63.5239 1C66.3976 1 69.1988 1.90261 71.5319 3.58039C73.865 5.25817 75.6121 7.62638 76.5268 10.3507C77.474 10.1042 78.465 10.0779 79.424 10.2736C80.383 10.4693 81.2845 10.8818 82.0594 11.4797C82.8343 12.0776 83.4621 12.8449 83.8947 13.7228C84.3274 14.6008 84.5533 15.5661 84.5552 16.5449Z" fill="#3C64B1"/>
<path d="M84.5552 16.6317H84.4552V16.6959L84.5136 16.7226L84.5552 16.6317ZM84.5552 16.5449H84.6553L84.6552 16.5447L84.5552 16.5449ZM89.6819 21.4816L89.5935 21.5282L89.6819 21.4816ZM80.979 37.5222L80.9699 37.4223L80.962 37.4237L80.979 37.5222ZM80.8976 37.5268V37.4268H80.7976V37.5268H80.8976ZM80.6298 40.047L80.5591 39.9763V39.9763L80.6298 40.047ZM76.7481 40.3148V40.2148H76.6719L76.6517 40.2882L76.7481 40.3148ZM75.4578 43.4238L75.3709 43.3744L75.3332 43.4406L75.3871 43.4945L75.4578 43.4238ZM77.7466 45.7126L77.8173 45.6419L77.8173 45.6419L77.7466 45.7126ZM77.7466 47.0056L77.8173 47.0763L77.8173 47.0762L77.7466 47.0056ZM73.8695 50.8826L73.9383 50.9552L73.9402 50.9533L73.8695 50.8826ZM72.5765 50.8826L72.5057 50.9533L72.5078 50.9552L72.5765 50.8826ZM70.2905 48.5911L70.3613 48.5205L70.3074 48.4665L70.2411 48.5042L70.2905 48.5911ZM68.7482 49.3441H68.6482V49.4935L68.7863 49.4366L68.7482 49.3441ZM68.7482 47.3367L68.7042 47.2469L68.6482 47.2743V47.3367H68.7482ZM69.9339 46.669L69.9879 46.7532L69.9879 46.7532L69.9339 46.669ZM70.5256 46.5293L70.5149 46.6288H70.5149L70.5256 46.5293ZM71.0742 46.7916L71.1449 46.7209L71.1448 46.7208L71.0742 46.7916ZM73.2258 48.9432L73.1551 49.0139L73.2258 49.0846L73.2965 49.0139L73.2258 48.9432ZM75.8099 46.3591L75.8806 46.4298L75.9513 46.3591L75.8806 46.2884L75.8099 46.3591ZM73.6583 44.2075L73.729 44.1368L73.7289 44.1367L73.6583 44.2075ZM73.3952 43.6587L73.4946 43.6479L73.3952 43.6587ZM73.5348 43.0663L73.4508 43.0121L73.4507 43.0123L73.5348 43.0663ZM75.1396 39.2048L75.2373 39.2262L75.1396 39.2048ZM75.4597 38.688L75.397 38.6101L75.4597 38.688ZM76.033 38.486L76.033 38.586H76.033V38.486ZM79.0688 38.486V38.586H79.1688V38.486H79.0688ZM79.0688 34.8284H79.1688V34.7284H79.0688V34.8284ZM76.033 34.8284V34.7284L76.0327 34.7284L76.033 34.8284ZM75.458 34.6273L75.3954 34.7053L75.458 34.6273ZM75.1369 34.1097L75.0392 34.131L75.0392 34.1311L75.1369 34.1097ZM73.5348 30.2481L73.4507 30.3022L73.4507 30.3022L73.5348 30.2481ZM73.3952 29.6558L73.4946 29.6665V29.6665L73.3952 29.6558ZM73.6583 29.107L73.7289 29.1777L73.729 29.1777L73.6583 29.107ZM75.8099 26.9554L75.8806 27.0261L75.9513 26.9554L75.8806 26.8847L75.8099 26.9554ZM73.2258 24.3713L73.2965 24.3005L73.2258 24.2298L73.1551 24.3005L73.2258 24.3713ZM71.0742 26.5229L71.1448 26.5936L71.1449 26.5936L71.0742 26.5229ZM70.5256 26.7851L70.5363 26.8845L70.5256 26.7851ZM69.9339 26.6454L69.8798 26.7295L69.8799 26.7295L69.9339 26.6454ZM68.7482 25.9764H68.6482V26.0388L68.7041 26.0662L68.7482 25.9764ZM68.7482 23.9703L68.7863 23.8778L68.6482 23.8209V23.9703H68.7482ZM70.2905 24.7233L70.2411 24.8102L70.3073 24.8479L70.3612 24.794L70.2905 24.7233ZM72.5793 22.4345L72.5086 22.3638L72.5086 22.3638L72.5793 22.4345ZM73.8722 22.4345L73.943 22.3638L73.9429 22.3638L73.8722 22.4345ZM77.7493 26.3116L77.82 26.2409L77.82 26.2409L77.7493 26.3116ZM77.7493 27.6046L77.82 27.6754L77.82 27.6753L77.7493 27.6046ZM75.4578 29.8906L75.3872 29.8198L75.3332 29.8737L75.3709 29.9401L75.4578 29.8906ZM76.7481 32.9996L76.6517 33.0262L76.6719 33.0996H76.7481V32.9996ZM80.6298 33.2674L80.7005 33.1967L80.7005 33.1967L80.6298 33.2674ZM80.8976 35.6898H80.7976V35.8002L80.9075 35.7893L80.8976 35.6898ZM86.339 33.1696L86.2695 33.0976L86.339 33.1696ZM89.0455 27.8185L88.9464 27.8051L89.0455 27.8185ZM87.8512 21.942L87.7651 21.9929L87.8512 21.942ZM83.2705 18.0719L83.3064 17.9786L83.306 17.9784L83.2705 18.0719ZM82.8115 17.6881L82.7258 17.7396V17.7396L82.8115 17.6881ZM82.688 17.1026L82.5889 17.0897L82.5888 17.0901L82.688 17.1026ZM82.5281 15.1846L82.4324 15.2138L82.5281 15.1846ZM80.0379 12.3645L80.0788 12.2732L80.0379 12.3645ZM78.1544 11.9683L78.1536 12.0683L78.155 12.0682L78.1544 11.9683ZM76.3046 12.3605L76.2632 12.2695L76.2628 12.2696L76.3046 12.3605ZM75.5295 12.3549L75.4864 12.4451L75.5295 12.3549ZM75.2167 12.1102L75.294 12.0467L75.294 12.0467L75.2167 12.1102ZM75.0372 11.7561L75.1341 11.7313L75.1341 11.7312L75.0372 11.7561ZM52.0106 11.7561L51.9138 11.7312L51.9137 11.7313L52.0106 11.7561ZM51.8311 12.1102L51.9083 12.1737V12.1737L51.8311 12.1102ZM51.5184 12.3549L51.5614 12.4451L51.5184 12.3549ZM51.1314 12.4439L51.1307 12.3439L51.1314 12.4439ZM50.7433 12.3605L50.785 12.2696L50.7846 12.2695L50.7433 12.3605ZM48.8934 11.9683L48.8927 12.0683L48.8942 12.0682L48.8934 11.9683ZM47.0085 12.363L47.0492 12.4543L47.0085 12.363ZM45.4562 13.503L45.3813 13.4368L45.4562 13.503ZM44.5155 15.1835L44.6111 15.2127L44.5155 15.1835ZM44.4227 15.5374V15.6374H44.5031L44.5203 15.5589L44.4227 15.5374ZM42.5742 15.5374L42.4755 15.5215L42.4568 15.6374H42.5742V15.5374ZM43.1546 13.7198L43.0649 13.6755H43.0649L43.1546 13.7198ZM44.9902 11.4783L44.9292 11.3991L44.9902 11.4783ZM47.6249 10.2733L47.6449 10.3713L47.6249 10.2733ZM50.5211 10.3507L50.4959 10.4474L50.5862 10.4709L50.6159 10.3825L50.5211 10.3507ZM55.516 3.58039L55.5743 3.66158L55.516 3.58039ZM71.5319 3.58039L71.5902 3.4992L71.5319 3.58039ZM76.5268 10.3507L76.432 10.3825L76.4617 10.4709L76.5519 10.4474L76.5268 10.3507ZM82.0594 11.4797L82.1205 11.4005V11.4005L82.0594 11.4797ZM83.8947 13.7228L83.9844 13.6786L83.8947 13.7228ZM84.6553 16.6317V16.5449H84.4552V16.6317H84.6553ZM89.7703 21.4349C88.6322 19.2781 86.8135 17.5577 84.5969 16.5408L84.5136 16.7226C86.6901 17.7211 88.4759 19.4104 89.5935 21.5282L89.7703 21.4349ZM90.891 28.4677C91.3025 26.064 90.9085 23.5917 89.7703 21.4349L89.5935 21.5282C90.7111 23.646 91.0979 26.0737 90.6938 28.434L90.891 28.4677ZM87.4948 34.7273C89.2856 33.0719 90.4795 30.8714 90.891 28.4677L90.6938 28.434C90.2898 30.7942 89.1175 32.9549 87.3591 34.5804L87.4948 34.7273ZM80.9881 37.6218C83.4167 37.4002 85.7041 36.3826 87.4948 34.7273L87.3591 34.5804C85.6007 36.2059 83.3546 37.205 80.9699 37.4227L80.9881 37.6218ZM80.8976 37.6268C80.9225 37.6268 80.9596 37.6271 80.996 37.6208L80.962 37.4237C80.9454 37.4266 80.9258 37.4268 80.8976 37.4268V37.6268ZM80.9976 39.4004V37.5268H80.7976V39.4004H80.9976ZM80.7005 40.1177C80.8908 39.9275 80.9976 39.6695 80.9976 39.4004H80.7976C80.7976 39.6164 80.7118 39.8236 80.5591 39.9763L80.7005 40.1177ZM79.9832 40.4148C80.2523 40.4148 80.5103 40.308 80.7005 40.1177L80.5591 39.9763C80.4064 40.129 80.1992 40.2148 79.9832 40.2148V40.4148ZM76.7481 40.4148H79.9832V40.2148H76.7481V40.4148ZM75.5447 43.4733C76.1059 42.4871 76.5425 41.4352 76.8444 40.3415L76.6517 40.2882C76.3541 41.366 75.9239 42.4026 75.3709 43.3744L75.5447 43.4733ZM77.8173 45.6419L75.5285 43.3531L75.3871 43.4945L77.6759 45.7833L77.8173 45.6419ZM78.1143 46.3591C78.1143 46.0901 78.0075 45.8321 77.8173 45.6419L77.6759 45.7833C77.8285 45.936 77.9143 46.1431 77.9143 46.3591H78.1143ZM77.8173 47.0762C78.0075 46.886 78.1143 46.628 78.1143 46.3591H77.9143C77.9143 46.575 77.8285 46.7821 77.6759 46.9349L77.8173 47.0762ZM73.9402 50.9533L77.8173 47.0763L77.6759 46.9348L73.7988 50.8119L73.9402 50.9533ZM73.223 51.2402C73.4891 51.2402 73.7451 51.1382 73.9383 50.9552L73.8007 50.81C73.6447 50.9578 73.4379 51.0402 73.223 51.0402V51.2402ZM72.5078 50.9552C72.7009 51.1382 72.9569 51.2402 73.223 51.2402V51.0402C73.0081 51.0402 72.8013 50.9578 72.6453 50.81L72.5078 50.9552ZM70.2197 48.6618L72.5057 50.9533L72.6473 50.812L70.3613 48.5205L70.2197 48.6618ZM68.7863 49.4366C69.3191 49.2169 69.8381 48.9636 70.34 48.6781L70.2411 48.5042C69.7465 48.7856 69.2351 49.0352 68.7101 49.2517L68.7863 49.4366ZM68.6482 47.3367V49.3441H68.8482V47.3367H68.6482ZM69.8799 46.5849C69.5004 46.8283 69.1078 47.0492 68.7042 47.2469L68.7922 47.4265C69.2026 47.2255 69.6019 47.0008 69.9879 46.7532L69.8799 46.5849ZM70.5363 46.4299C70.3062 46.4052 70.0746 46.4599 69.8799 46.5849L69.9879 46.7532C70.1443 46.6528 70.3302 46.6089 70.5149 46.6288L70.5363 46.4299ZM71.1448 46.7208C70.9811 46.5573 70.7664 46.4546 70.5363 46.4299L70.5149 46.6288C70.6997 46.6486 70.872 46.731 71.0035 46.8623L71.1448 46.7208ZM73.2965 48.8725L71.1449 46.7209L71.0035 46.8623L73.1551 49.0139L73.2965 48.8725ZM75.7392 46.2884L73.155 48.8725L73.2965 49.0139L75.8806 46.4298L75.7392 46.2884ZM73.5876 44.2782L75.7392 46.4298L75.8806 46.2884L73.729 44.1368L73.5876 44.2782ZM73.2958 43.6694C73.3207 43.8997 73.4237 44.1146 73.5876 44.2782L73.7289 44.1367C73.5973 44.0053 73.5146 43.8328 73.4946 43.6479L73.2958 43.6694ZM73.4507 43.0123C73.3255 43.2072 73.2709 43.4391 73.2958 43.6694L73.4946 43.6479C73.4746 43.463 73.5185 43.2768 73.619 43.1203L73.4507 43.0123ZM75.0419 39.1833C74.7438 40.5442 74.2049 41.8408 73.4508 43.0121L73.6189 43.1204C74.386 41.9291 74.9341 40.6103 75.2373 39.2262L75.0419 39.1833ZM75.397 38.6101C75.2167 38.7551 75.0914 38.9574 75.0419 39.1833L75.2373 39.2262C75.277 39.0447 75.3776 38.8823 75.5223 38.7659L75.397 38.6101ZM76.033 38.386C75.8016 38.386 75.5772 38.465 75.397 38.6101L75.5223 38.7659C75.6671 38.6495 75.8472 38.586 76.033 38.586L76.033 38.386ZM79.0688 38.386H76.033V38.586H79.0688V38.386ZM78.9688 34.8284V38.486H79.1688V34.8284H78.9688ZM76.033 34.9284H79.0688V34.7284H76.033V34.9284ZM75.3954 34.7053C75.5763 34.8504 75.8014 34.9291 76.0333 34.9284L76.0327 34.7284C75.8465 34.729 75.6658 34.6658 75.5205 34.5493L75.3954 34.7053ZM75.0392 34.1311C75.0888 34.3576 75.2145 34.5603 75.3954 34.7053L75.5205 34.5493C75.3753 34.4328 75.2744 34.2701 75.2345 34.0883L75.0392 34.1311ZM73.4507 30.3022C74.2039 31.4737 74.7419 32.7704 75.0392 34.131L75.2346 34.0883C74.9322 32.7044 74.3851 31.3856 73.6189 30.1941L73.4507 30.3022ZM73.2958 29.645C73.2709 29.8753 73.3255 30.1072 73.4507 30.3022L73.619 30.1941C73.5185 30.0376 73.4746 29.8514 73.4946 29.6665L73.2958 29.645ZM73.5876 29.0362C73.4237 29.1999 73.3207 29.4147 73.2958 29.645L73.4946 29.6665C73.5146 29.4816 73.5973 29.3091 73.7289 29.1777L73.5876 29.0362ZM75.7392 26.8847L73.5876 29.0363L73.729 29.1777L75.8806 27.0261L75.7392 26.8847ZM73.1551 24.442L75.7392 27.0261L75.8806 26.8847L73.2965 24.3005L73.1551 24.442ZM71.1449 26.5936L73.2965 24.442L73.1551 24.3005L71.0035 26.4521L71.1449 26.5936ZM70.5363 26.8845C70.7664 26.8598 70.9811 26.7571 71.1448 26.5936L71.0035 26.4521C70.872 26.5834 70.6997 26.6658 70.5149 26.6857L70.5363 26.8845ZM69.8799 26.7295C70.0746 26.8546 70.3062 26.9092 70.5363 26.8845L70.5149 26.6857C70.3302 26.7055 70.1443 26.6616 69.9879 26.5612L69.8799 26.7295ZM68.7041 26.0662C69.1077 26.2643 69.5003 26.4856 69.8798 26.7295L69.988 26.5613C69.602 26.3132 69.2027 26.0881 68.7922 25.8867L68.7041 26.0662ZM68.6482 23.9703V25.9764H68.8482V23.9703H68.6482ZM70.34 24.6364C69.8381 24.3509 69.3191 24.0976 68.7863 23.8778L68.7101 24.0627C69.2351 24.2793 69.7465 24.5289 70.2411 24.8102L70.34 24.6364ZM72.5086 22.3638L70.2198 24.6526L70.3612 24.794L72.65 22.5053L72.5086 22.3638ZM73.2258 22.0668C72.9568 22.0668 72.6988 22.1736 72.5086 22.3638L72.65 22.5053C72.8027 22.3526 73.0098 22.2668 73.2258 22.2668V22.0668ZM73.9429 22.3638C73.7527 22.1736 73.4947 22.0668 73.2258 22.0668V22.2668C73.4417 22.2668 73.6488 22.3526 73.8015 22.5053L73.9429 22.3638ZM77.82 26.2409L73.943 22.3638L73.8015 22.5053L77.6786 26.3823L77.82 26.2409ZM78.1171 26.9581C78.1171 26.6891 78.0102 26.4312 77.82 26.2409L77.6786 26.3823C77.8313 26.535 77.917 26.7422 77.917 26.9581H78.1171ZM77.82 27.6753C78.0102 27.4851 78.1171 27.2271 78.1171 26.9581H77.917C77.917 27.1741 77.8313 27.3812 77.6786 27.5339L77.82 27.6753ZM75.5284 29.9614L77.82 27.6754L77.6787 27.5338L75.3872 29.8198L75.5284 29.9614ZM76.8444 32.973C76.5425 31.8793 76.1059 30.8273 75.5447 29.8412L75.3709 29.9401C75.9239 30.9118 76.3541 31.9485 76.6517 33.0262L76.8444 32.973ZM79.9832 32.8996H76.7481V33.0996H79.9832V32.8996ZM80.7005 33.1967C80.5103 33.0065 80.2523 32.8996 79.9832 32.8996V33.0996C80.1992 33.0996 80.4064 33.1854 80.5591 33.3381L80.7005 33.1967ZM80.9976 33.914C80.9976 33.645 80.8908 33.3869 80.7005 33.1967L80.5591 33.3381C80.7118 33.4909 80.7976 33.698 80.7976 33.914H80.9976ZM80.9976 35.6898V33.914H80.7976V35.6898H80.9976ZM86.2695 33.0976C84.8071 34.5104 82.911 35.3886 80.8877 35.5903L80.9075 35.7893C82.9756 35.5831 84.9137 34.6855 86.4085 33.2415L86.2695 33.0976ZM88.9464 27.8051C88.675 29.8202 87.7319 31.6849 86.2695 33.0976L86.4085 33.2415C87.9032 31.7975 88.8672 29.8915 89.1446 27.8318L88.9464 27.8051ZM87.7651 21.9929C88.8016 23.7422 89.2178 25.79 88.9464 27.8051L89.1446 27.8318C89.422 25.7721 88.9966 23.679 87.9372 21.891L87.7651 21.9929ZM83.2346 18.1652C85.1324 18.8951 86.7287 20.2436 87.7651 21.9929L87.9372 21.891C86.8778 20.103 85.2462 18.7245 83.3064 17.9786L83.2346 18.1652ZM82.7258 17.7396C82.843 17.9346 83.0223 18.0846 83.235 18.1654L83.306 17.9784C83.1353 17.9136 82.9913 17.7932 82.8972 17.6366L82.7258 17.7396ZM82.5888 17.0901C82.5603 17.3159 82.6086 17.5446 82.7258 17.7396L82.8972 17.6366C82.8031 17.48 82.7644 17.2964 82.7872 17.1152L82.5888 17.0901ZM82.4324 15.2138C82.6179 15.8207 82.6713 16.4604 82.5889 17.0897L82.7872 17.1156C82.8733 16.458 82.8175 15.7896 82.6237 15.1553L82.4324 15.2138ZM81.5135 13.5709C81.9336 14.0467 82.2469 14.6069 82.4324 15.2138L82.6237 15.1553C82.4299 14.5211 82.1024 13.9357 81.6635 13.4385L81.5135 13.5709ZM79.9971 12.4557C80.5764 12.7149 81.0935 13.0952 81.5135 13.5709L81.6635 13.4385C81.2245 12.9414 80.6841 12.544 80.0788 12.2732L79.9971 12.4557ZM78.155 12.0682C78.7897 12.0644 79.4178 12.1965 79.9971 12.4557L80.0788 12.2732C79.4734 12.0023 78.817 11.8642 78.1538 11.8683L78.155 12.0682ZM76.3459 12.4516C76.9135 12.194 77.5303 12.0632 78.1536 12.0682L78.1552 11.8683C77.5029 11.8629 76.8573 11.9999 76.2632 12.2695L76.3459 12.4516ZM75.9156 12.5439C76.0642 12.545 76.2112 12.5134 76.3463 12.4514L76.2628 12.2696C76.1544 12.3194 76.0364 12.3448 75.9171 12.3439L75.9156 12.5439ZM75.4864 12.4451C75.6205 12.5091 75.7671 12.5428 75.9156 12.5439L75.9171 12.3439C75.7978 12.343 75.6802 12.3159 75.5725 12.2646L75.4864 12.4451ZM75.1395 12.1737C75.2339 12.2885 75.3523 12.3812 75.4864 12.4451L75.5725 12.2646C75.4648 12.2132 75.3698 12.1389 75.294 12.0467L75.1395 12.1737ZM74.9403 11.7809C74.9771 11.9248 75.0451 12.0589 75.1395 12.1737L75.294 12.0467C75.2182 11.9546 75.1636 11.8469 75.1341 11.7313L74.9403 11.7809ZM70.7476 5.4C72.8144 7.00291 74.2894 9.24773 74.9403 11.781L75.1341 11.7312C74.4721 9.15497 72.9721 6.87206 70.8701 5.24195L70.7476 5.4ZM63.5239 2.92714C66.1395 2.92714 68.6807 3.79709 70.7476 5.4L70.8701 5.24195C68.7682 3.61185 66.1838 2.72714 63.5239 2.72714V2.92714ZM56.3002 5.4C58.3671 3.79709 60.9083 2.92714 63.5239 2.92714V2.72714C60.864 2.72714 58.2796 3.61185 56.1777 5.24195L56.3002 5.4ZM52.1075 11.781C52.7584 9.24773 54.2334 7.00291 56.3002 5.4L56.1777 5.24195C54.0758 6.87206 52.5757 9.15497 51.9138 11.7312L52.1075 11.781ZM51.9083 12.1737C52.0027 12.0589 52.0707 11.9248 52.1075 11.7809L51.9137 11.7313C51.8842 11.8469 51.8296 11.9546 51.7538 12.0467L51.9083 12.1737ZM51.5614 12.4451C51.6955 12.3812 51.814 12.2885 51.9083 12.1737L51.7538 12.0467C51.6781 12.1389 51.583 12.2132 51.4753 12.2646L51.5614 12.4451ZM51.1322 12.5439C51.2808 12.5428 51.4273 12.5091 51.5614 12.4451L51.4753 12.2646C51.3676 12.3159 51.25 12.343 51.1307 12.3439L51.1322 12.5439ZM50.7015 12.4514C50.8366 12.5134 50.9836 12.545 51.1322 12.5439L51.1307 12.3439C51.0114 12.3448 50.8934 12.3194 50.785 12.2696L50.7015 12.4514ZM48.8942 12.0682C49.5175 12.0632 50.1344 12.194 50.7019 12.4516L50.7846 12.2695C50.1906 11.9999 49.5449 11.8629 48.8926 11.8683L48.8942 12.0682ZM47.0492 12.4543C47.6291 12.1954 48.2577 12.0638 48.8927 12.0682L48.8941 11.8683C48.2305 11.8636 47.5736 12.0011 46.9677 12.2717L47.0492 12.4543ZM45.5312 13.5692C45.9517 13.0934 46.4694 12.7133 47.0492 12.4543L46.9677 12.2717C46.3617 12.5423 45.8208 12.9396 45.3813 13.4368L45.5312 13.5692ZM44.6111 15.2127C44.7969 14.6055 45.1106 14.045 45.5312 13.5692L45.3813 13.4368C44.9418 13.934 44.614 14.5196 44.4199 15.1542L44.6111 15.2127ZM44.5203 15.5589C44.5459 15.4425 44.5762 15.327 44.6111 15.2127L44.4199 15.1542C44.3833 15.2737 44.3517 15.3944 44.325 15.5159L44.5203 15.5589ZM42.5742 15.6374H44.4227V15.4374H42.5742V15.6374ZM43.0649 13.6755C42.7766 14.2597 42.5785 14.8821 42.4755 15.5215L42.6729 15.5533C42.7728 14.9335 42.9649 14.3303 43.2443 13.764L43.0649 13.6755ZM44.9292 11.3991C44.1422 12.0058 43.5046 12.7845 43.0649 13.6755L43.2443 13.764C43.6704 12.9003 44.2885 12.1456 45.0513 11.5575L44.9292 11.3991ZM47.6049 10.1753C46.6313 10.3738 45.7161 10.7924 44.9292 11.3991L45.0513 11.5575C45.814 10.9695 46.7012 10.5637 47.6449 10.3713L47.6049 10.1753ZM50.5462 10.2539C49.5846 10.0037 48.5785 9.97684 47.6049 10.1753L47.6449 10.3713C48.5886 10.1789 49.5638 10.2049 50.4959 10.4474L50.5462 10.2539ZM55.4576 3.4992C53.1075 5.18922 51.3475 7.57469 50.4263 10.3188L50.6159 10.3825C51.5238 7.67807 53.2583 5.32713 55.5743 3.66158L55.4576 3.4992ZM63.5239 0.9C60.6292 0.9 57.8077 1.80919 55.4576 3.4992L55.5743 3.66158C57.8904 1.99603 60.6711 1.1 63.5239 1.1V0.9ZM71.5902 3.4992C69.2401 1.80919 66.4186 0.9 63.5239 0.9V1.1C66.3767 1.1 69.1574 1.99603 71.4735 3.66158L71.5902 3.4992ZM76.6216 10.3188C75.7003 7.57469 73.9403 5.18922 71.5902 3.4992L71.4735 3.66158C73.7896 5.32713 75.524 7.67807 76.432 10.3825L76.6216 10.3188ZM79.444 10.1756C78.4701 9.97682 77.4636 10.0036 76.5016 10.2539L76.5519 10.4474C77.4844 10.2049 78.46 10.1789 79.404 10.3715L79.444 10.1756ZM82.1205 11.4005C81.3335 10.7933 80.4179 10.3743 79.444 10.1756L79.404 10.3715C80.3481 10.5642 81.2355 10.9703 81.9983 11.5589L82.1205 11.4005ZM83.9844 13.6786C83.5451 12.787 82.9075 12.0077 82.1205 11.4005L81.9983 11.5589C82.7612 12.1474 83.3792 12.9028 83.805 13.767L83.9844 13.6786ZM84.6552 16.5447C84.6533 15.5506 84.4238 14.5703 83.9844 13.6786L83.805 13.767C84.2309 14.6313 84.4533 15.5816 84.4552 16.5451L84.6552 16.5447Z" fill="#3C64B1" mask="url(#path-4-outside-1)"/>
</svg>
