<svg width="100" height="100" viewBox="0 0 100 100" fill="none" xmlns="http://www.w3.org/2000/svg">
<g clip-path="url(#clip0)">
<path d="M97.2787 86.1245C97.2787 90.1963 93.9783 93.4968 89.9065 93.4968C85.8347 93.4968 82.5342 90.1963 82.5342 86.1245C82.5342 82.0527 85.8347 78.7522 89.9065 78.7522C93.9783 78.7522 97.2787 82.0527 97.2787 86.1245Z" fill="#737B7D"/>
<path d="M92.6464 86.1245C92.6464 87.6374 91.4196 88.8642 89.9067 88.8642C88.3938 88.8642 87.167 87.6374 87.167 86.1245C87.167 84.6116 88.3938 83.3848 89.9067 83.3848C91.4196 83.3848 92.6464 84.6116 92.6464 86.1245Z" fill="#F0F0F2"/>
<path d="M54.6213 86.1245C54.6213 90.1963 51.3201 93.4968 47.249 93.4968C43.1772 93.4968 39.876 90.1963 39.876 86.1245C39.876 82.0527 43.1772 78.7522 47.249 78.7522C51.3201 78.7522 54.6213 82.0527 54.6213 86.1245Z" fill="#737B7D"/>
<path d="M49.9875 86.1245C49.9875 87.6374 48.7614 88.8642 47.2485 88.8642C45.7356 88.8642 44.5088 87.6374 44.5088 86.1245C44.5088 84.6116 45.7356 83.3848 47.2485 83.3848C48.7614 83.3848 49.9875 84.6116 49.9875 86.1245Z" fill="#F0F0F2"/>
<path d="M89.9068 84.8937C89.0737 84.8937 88.3977 84.2185 88.3977 83.3847V75.0152C88.3977 74.1813 89.0737 73.5061 89.9068 73.5061C90.74 73.5061 91.4159 74.1813 91.4159 75.0152V83.3847C91.4159 84.2185 90.74 84.8937 89.9068 84.8937ZM48.7577 83.3847V75.0152C48.7577 74.1813 48.0825 73.5061 47.2493 73.5061C46.4154 73.5061 45.7402 74.1813 45.7402 75.0152V83.3847C45.7402 84.2185 46.4154 84.8937 47.2493 84.8937C48.0825 84.8937 48.7577 84.2185 48.7577 83.3847Z" fill="#3C64B1"/>
<path d="M89.9066 73.5061C89.0734 73.5061 88.3975 74.1813 88.3975 75.0152V77.7336H91.4157V75.0152C91.4157 74.1813 90.7397 73.5061 89.9066 73.5061Z" fill="#3C64B1"/>
<path d="M47.2493 73.5061C46.4154 73.5061 45.7402 74.1813 45.7402 75.0152V77.7336H48.7584V75.0152C48.7577 74.1813 48.0825 73.5061 47.2493 73.5061Z" fill="#3C64B1"/>
<path d="M100 72.6868C100 74.0051 98.9304 75.0763 97.6105 75.0763H44.0445C41.8442 75.0763 39.8407 73.8655 38.8153 71.92C37.7892 69.9745 37.925 67.6384 39.1678 65.8241L41.742 62.0643L47.4457 61.3838C47.4617 61.8736 47.3282 62.371 47.0291 62.8051L43.1099 68.5249C42.762 69.0346 42.9467 69.5106 43.0428 69.6914C43.1381 69.873 43.4265 70.2972 44.0445 70.2972H97.6098C98.9304 70.2972 100 71.3661 100 72.6868Z" fill="#3C64B1"/>
<path d="M97.6109 70.2974H92.5557C93.8763 70.2974 94.9452 71.3662 94.9452 72.6869C94.9452 74.0052 93.8763 75.0764 92.5557 75.0764H97.6109C98.9308 75.0764 100 74.0052 100 72.6869C100 71.3662 98.9308 70.2974 97.6109 70.2974Z" fill="#3C64B1"/>
<path d="M98.0055 34.0744C98.0055 34.069 98.0048 34.0652 98.0048 34.0599V25.785C98.0048 23.6229 96.3133 21.8391 94.1542 21.7254L50.2279 19.3985C50.2104 19.3977 50.1921 19.3962 50.1738 19.3954L28.3316 18.2388L27.9928 16.7114C27.4496 14.2639 25.5049 12.3901 23.039 11.9384L16.7059 10.7772C15.8865 10.6277 15.0999 11.1701 14.9496 11.9895C14.8001 12.8097 15.3425 13.5963 16.1619 13.7458L22.4951 14.9063C23.7654 15.139 24.7663 16.1041 25.0463 17.3645L33.4501 55.2421C33.4501 55.2444 33.4509 55.246 33.4517 55.2483L34.7425 61.0687C35.1233 62.783 36.627 63.9641 38.3413 63.9641C38.4893 63.9641 38.6389 63.9549 38.7884 63.9366L82.9222 58.6678L89.4186 57.8934C94.3137 57.3067 98.0048 53.1486 98.0048 48.22V34.0919C98.0048 34.0858 98.0055 34.0805 98.0055 34.0744ZM57.5926 58.6533L56.0721 48.9899L73.8806 47.8126L74.6298 56.6193L57.5926 58.6533ZM55.6013 45.9961L54.0045 35.8467L72.8529 35.7338L73.625 44.8044L55.6013 45.9961ZM32.2676 35.9771L50.952 35.865L52.5778 46.196L34.7952 47.3717L32.2676 35.9771ZM71.8184 23.5641L72.5966 32.7171L53.5307 32.8315L51.9064 22.5097L71.8184 23.5641ZM75.881 35.7155L94.9866 35.601V43.3929L76.6371 44.606L75.881 35.7155ZM94.9866 25.785V32.5836L75.6239 32.6996L74.861 23.7259L93.9948 24.739C94.5509 24.768 94.9866 25.2281 94.9866 25.785ZM48.8257 22.3472L50.4782 32.8499L31.5992 32.9628L29.0106 21.2974L48.8257 22.3472ZM38.4306 60.9405C38.0842 60.981 37.7653 60.7559 37.689 60.4156L35.4567 50.3525L53.0485 49.1897L54.5935 59.0111L38.4306 60.9405ZM89.0608 54.8965L77.6282 56.2614L76.8927 47.6135L94.9866 46.418V48.22C94.9866 51.622 92.4391 54.4922 89.0608 54.8965Z" fill="#737B7D"/>
<path d="M15.6295 15.2381L2.53742 12.9294C0.867343 12.6349 -0.247312 11.0427 0.0471828 9.37336C0.341678 7.70328 1.93393 6.58863 3.60325 6.88312L16.6953 9.19101C16.8448 9.21772 16.9448 9.36039 16.9181 9.50992L15.9476 15.0153C15.9209 15.1648 15.779 15.2648 15.6295 15.2381Z" fill="#3C64B1"/>
</g>
<defs>
<clipPath id="clip0">
<rect width="100" height="100" fill="white"/>
</clipPath>
</defs>
</svg>
 